<svg xmlns="http://www.w3.org/2000/svg" width="68.019" height="68.019" viewBox="0 0 68.019 68.019">
  <g id="Group_6847" data-name="Group 6847" transform="translate(-1475.111 -851.839)">
    <rect id="Rectangle_1888" data-name="Rectangle 1888" width="55.455" height="45.372" transform="translate(1483.472 862.399)" fill="#fff"/>
    <g id="Group_6843" data-name="Group 6843" transform="translate(1475.112 851.839)">
      <path id="Subtraction_10" data-name="Subtraction 10" d="M58.019,68.019H10a10.012,10.012,0,0,1-10-10V10A10.012,10.012,0,0,1,10,0H58.019a10.012,10.012,0,0,1,10,10V58.019A10.011,10.011,0,0,1,58.019,68.019ZM28.575,37.352h0a3.9,3.9,0,0,1,1.539.315A3.189,3.189,0,0,1,31.2,38.678l10.91,15.016A2.5,2.5,0,0,0,44.24,54.9c.052,0,.1,0,.157-.005h5.045L37.183,38.209a5.962,5.962,0,0,0-1.876-1.789,16.079,16.079,0,0,0,4.354-1.643,12.156,12.156,0,0,0,3.256-2.625,11.013,11.013,0,0,0,1.377-2h4.6V27.4H45.332a12.055,12.055,0,0,0,.327-2.89c0-.265,0-.524-.013-.769H48.9V20.982H45.2a12.185,12.185,0,0,0-.446-1.3,9.359,9.359,0,0,0-2.8-3.677,13.091,13.091,0,0,0-4.8-2.332,25.94,25.94,0,0,0-6.423-.81c-.156,0-.314,0-.47,0H18.383V54.9h5.661V37.358h4.311C28.428,37.354,28.5,37.352,28.575,37.352Zm1.66-4.127-.239,0H24.044V17.355h6.211c3.249,0,5.73.642,7.376,1.907a6.676,6.676,0,0,1,1.512,1.72H30.2v2.758h9.886a6.739,6.739,0,0,1,.026,1.183,8.578,8.578,0,0,1-.332,2.476H30.2v2.757h8.114a7.027,7.027,0,0,1-.768.765,8.889,8.889,0,0,1-3.167,1.7A14.542,14.542,0,0,1,30.235,33.225Z" transform="translate(0 0)" fill="#2a9eda"/>
    </g>
  </g>
</svg>
