<svg id="Dark_Blue" xmlns="http://www.w3.org/2000/svg" width="179.693" height="48.101" viewBox="0 0 179.693 48.101">
  <g id="Rectangle_1" data-name="Rectangle 1">
    <rect id="Rectangle_2" data-name="Rectangle 2" width="48.101" height="48.101" rx="3" fill="#204866"/>
  </g>
  <g id="Group_2" data-name="Group 2" transform="translate(13 9.097)">
    <g id="Path_3" data-name="Path 3">
      <path id="Path_1" data-name="Path 1" d="M340.724,432.92v12.4h-4V415.6h8.4a18.354,18.354,0,0,1,4.875.57,9.3,9.3,0,0,1,3.391,1.649,6.6,6.6,0,0,1,1.981,2.6,8.7,8.7,0,0,1,.643,3.412,8.551,8.551,0,0,1-.5,2.945,7.778,7.778,0,0,1-1.441,2.46,8.627,8.627,0,0,1-2.3,1.857,11.4,11.4,0,0,1-3.08,1.162,4.248,4.248,0,0,1,1.327,1.265l8.67,11.8h-3.568a1.759,1.759,0,0,1-1.618-.85l-7.715-10.619a2.245,2.245,0,0,0-.768-.715,2.766,2.766,0,0,0-1.244-.218Zm0-2.925h4.21a10.248,10.248,0,0,0,3.1-.425,6.311,6.311,0,0,0,2.24-1.2,4.989,4.989,0,0,0,1.358-1.857,6.06,6.06,0,0,0,.455-2.385,4.737,4.737,0,0,0-1.755-4,8.476,8.476,0,0,0-5.216-1.348h-4.393Z" transform="translate(-336.721 -415.599)" fill="#fff"/>
    </g>
    <g id="Path_2" data-name="Path 2" transform="translate(8.357 5.74)">
      <path id="Path_2-2" data-name="Path 2" d="M368.407,430.434H355.186" transform="translate(-355.186 -429.459)" fill="#fff"/>
      <rect id="Rectangle_3" data-name="Rectangle 3" width="13.221" height="1.95" fill="#fff"/>
    </g>
    <g id="Path_1-2" data-name="Path 1" transform="translate(8.357 10.277)">
      <path id="Path_3-2" data-name="Path 3" d="M368.407,440.458H355.186" transform="translate(-355.186 -439.483)" fill="#fff"/>
      <rect id="Rectangle_4" data-name="Rectangle 4" width="13.221" height="1.95" fill="#fff"/>
    </g>
  </g>
  <path id="Path_4" data-name="Path 4" d="M443.215,447.384V423.9h10.136a10.367,10.367,0,0,1,4.575.951,7.131,7.131,0,0,1,3.05,2.74,8.091,8.091,0,0,1,1.089,4.289,7.678,7.678,0,0,1-1.118,4.254,6.942,6.942,0,0,1-3.13,2.614,11.6,11.6,0,0,1-4.7.883h-6.054V434.68h4.77a5.787,5.787,0,0,0,1.921-.281,2.421,2.421,0,0,0,1.227-.9,2.775,2.775,0,0,0,.43-1.616,2.883,2.883,0,0,0-.43-1.645,2.509,2.509,0,0,0-1.227-.94,5.4,5.4,0,0,0-1.921-.3H449.59v18.391Zm13.759-10.778,5.87,10.778h-6.925l-5.733-10.778Z" transform="translate(-382.013 -411.045)" fill="#204866"/>
  <path id="Path_5" data-name="Path 5" d="M501.1,454.527a10.2,10.2,0,0,1-4.856-1.084,7.466,7.466,0,0,1-3.13-3.119,10.164,10.164,0,0,1-1.1-4.879,9.9,9.9,0,0,1,1.1-4.77,7.87,7.87,0,0,1,3.107-3.176,9.462,9.462,0,0,1,4.735-1.135,10.035,10.035,0,0,1,3.612.619,7.606,7.606,0,0,1,2.763,1.794,7.984,7.984,0,0,1,1.766,2.849,10.8,10.8,0,0,1,.619,3.772v1.468H493.993v-3.486H503.9a2.486,2.486,0,0,0-.384-1.336,2.593,2.593,0,0,0-1-.906,3.01,3.01,0,0,0-1.416-.327,3.067,3.067,0,0,0-1.41.327,2.66,2.66,0,0,0-1.026.9,2.489,2.489,0,0,0-.407,1.341v3.761a3.157,3.157,0,0,0,.356,1.513,2.573,2.573,0,0,0,1.02,1.043,3.2,3.2,0,0,0,1.605.379,3.745,3.745,0,0,0,1.2-.183,2.652,2.652,0,0,0,.934-.533,2.1,2.1,0,0,0,.573-.843h5.779a6.545,6.545,0,0,1-1.41,3.182,7.252,7.252,0,0,1-2.941,2.087A11.355,11.355,0,0,1,501.1,454.527Z" transform="translate(-408.726 -417.867)" fill="#204866"/>
  <path id="Path_6" data-name="Path 6" d="M549,428.442v4.586H537.214v-4.586Zm-9.539,17.611V427.937a7.494,7.494,0,0,1,.78-3.611,5.012,5.012,0,0,1,2.2-2.144,7.4,7.4,0,0,1,3.348-.711,14.8,14.8,0,0,1,2.345.184q1.141.184,1.691.321l-.917,4.541a5.276,5.276,0,0,0-.8-.166,6.039,6.039,0,0,0-.8-.063,1.51,1.51,0,0,0-1.2.378,1.527,1.527,0,0,0-.31,1v18.391Z" transform="translate(-433.466 -409.715)" fill="#204866"/>
  <path id="Path_7" data-name="Path 7" d="M573.9,461.09a12.48,12.48,0,0,1-2.075-.166,9.062,9.062,0,0,1-1.731-.453l1.376-4.495a6.848,6.848,0,0,0,1.427.355,2.366,2.366,0,0,0,1.113-.091,1.142,1.142,0,0,0,.671-.654l.138-.321-6.191-18.39h6.6l2.844,12.2h.184l2.889-12.2h6.65l-6.421,19.078a8.582,8.582,0,0,1-1.393,2.62,6.3,6.3,0,0,1-2.39,1.84A8.868,8.868,0,0,1,573.9,461.09Z" transform="translate(-450.658 -418.148)" fill="#204866"/>
  <path id="Path_8" data-name="Path 8" d="M624.394,444.3v9.906h-6.329V436.6h6.008v3.348h.183a4.98,4.98,0,0,1,2.024-2.625,6.557,6.557,0,0,1,6.639-.1,5.8,5.8,0,0,1,2.144,2.344,7.278,7.278,0,0,1,.752,3.406v11.236h-6.329V444.3a2.918,2.918,0,0,0-.659-2.052,2.379,2.379,0,0,0-1.863-.745,2.644,2.644,0,0,0-1.358.338,2.233,2.233,0,0,0-.889.963A3.448,3.448,0,0,0,624.394,444.3Z" transform="translate(-477.722 -417.871)" fill="#204866"/>
  <path id="Path_9" data-name="Path 9" d="M674.964,454.527a10.2,10.2,0,0,1-4.856-1.084,7.465,7.465,0,0,1-3.13-3.119,10.162,10.162,0,0,1-1.1-4.879,9.9,9.9,0,0,1,1.1-4.77,7.867,7.867,0,0,1,3.107-3.176,9.461,9.461,0,0,1,4.735-1.135,10.034,10.034,0,0,1,3.612.619,7.607,7.607,0,0,1,2.763,1.794,7.984,7.984,0,0,1,1.766,2.849,10.806,10.806,0,0,1,.619,3.772v1.468H667.855v-3.485h9.906a2.488,2.488,0,0,0-.384-1.336,2.594,2.594,0,0,0-1-.906,3.013,3.013,0,0,0-1.416-.327,3.066,3.066,0,0,0-1.41.327,2.666,2.666,0,0,0-1.026.9,2.493,2.493,0,0,0-.407,1.341v3.761a3.161,3.161,0,0,0,.356,1.513A2.575,2.575,0,0,0,673.5,449.7a3.192,3.192,0,0,0,1.605.379,3.747,3.747,0,0,0,1.2-.184,2.65,2.65,0,0,0,.934-.533,2.107,2.107,0,0,0,.573-.843h5.779a6.54,6.54,0,0,1-1.41,3.182,7.253,7.253,0,0,1-2.941,2.087A11.353,11.353,0,0,1,674.964,454.527Z" transform="translate(-503.894 -417.867)" fill="#204866"/>
</svg>
