<svg xmlns="http://www.w3.org/2000/svg" width="61.41" height="61.41" viewBox="0 0 61.41 61.41"><defs><style>.a{fill:#fff;stroke:rgba(0,0,0,0);stroke-miterlimit:10;}</style></defs><g transform="translate(0.5 0.501)"><path class="a" d="M56.562,60.41H3.848A3.852,3.852,0,0,1,0,56.562V3.848A3.852,3.852,0,0,1,3.848,0H56.562A3.852,3.852,0,0,1,60.41,3.848V56.562A3.852,3.852,0,0,1,56.562,60.41ZM25.454,33.354a3.483,3.483,0,0,1,1.373.282,2.83,2.83,0,0,1,.98.9L37.58,47.994a2.242,2.242,0,0,0,1.911,1.082c.051,0,.1,0,.138,0h4.52L33.172,34.124a5.347,5.347,0,0,0-1.684-1.6,14.528,14.528,0,0,0,3.9-1.47A10.873,10.873,0,0,0,38.3,28.7a9.944,9.944,0,0,0,1.24-1.8h4.113V24.452h-3.19a10.9,10.9,0,0,0,.294-2.595c0-.229,0-.465-.013-.7h2.908V18.7H40.347a10.854,10.854,0,0,0-.4-1.17,8.377,8.377,0,0,0-2.507-3.295,11.681,11.681,0,0,0-4.3-2.089,23.218,23.218,0,0,0-5.754-.726c-.139,0-.281,0-.421,0H16.328V49.073H21.4V33.364l3.855,0C25.32,33.356,25.387,33.354,25.454,33.354Zm1.49-3.693h0l-.214,0H21.4V15.449h5.567c.251-.018.506-.027.757-.027a10.7,10.7,0,0,1,5.85,1.735A5.941,5.941,0,0,1,34.931,18.7H26.912v2.45h8.857a5.986,5.986,0,0,1,.024,1.07,7.7,7.7,0,0,1-.3,2.228H26.912V26.9h7.28a6.469,6.469,0,0,1-.7.7,7.943,7.943,0,0,1-2.839,1.523A12.951,12.951,0,0,1,26.944,29.66Z" transform="translate(0 -0.001)"/></g></svg>