<svg xmlns="http://www.w3.org/2000/svg" xmlns:xlink="http://www.w3.org/1999/xlink" width="657.789" height="430.12" viewBox="0 0 657.789 430.12">
  <defs>
    <filter id="Path_13210" x="0" y="0" width="601.876" height="342.645" filterUnits="userSpaceOnUse">
      <feOffset dy="5" input="SourceAlpha"/>
      <feGaussianBlur stdDeviation="5" result="blur"/>
      <feFlood flood-color="#e2e2e2" flood-opacity="0.161"/>
      <feComposite operator="in" in2="blur"/>
      <feComposite in="SourceGraphic"/>
    </filter>
    <filter id="Path_13311" x="40.334" y="57.974" width="617.455" height="372.146" filterUnits="userSpaceOnUse">
      <feOffset dy="5" input="SourceAlpha"/>
      <feGaussianBlur stdDeviation="5" result="blur-2"/>
      <feFlood flood-color="#e2e2e2" flood-opacity="0.161"/>
      <feComposite operator="in" in2="blur-2"/>
      <feComposite in="SourceGraphic"/>
    </filter>
  </defs>
  <g id="Group_6834" data-name="Group 6834" transform="translate(-945 -2237)">
    <g id="Group_6828" data-name="Group 6828" transform="translate(960 2247)">
      <g id="Group_6777" data-name="Group 6777" transform="translate(0 0)">
        <g transform="matrix(1, 0, 0, 1, -15, -10)" filter="url(#Path_13210)">
          <path id="Path_13210-2" data-name="Path 13210" d="M7.122,0H564.754a7.122,7.122,0,0,1,7.122,7.122v298.4a7.122,7.122,0,0,1-7.122,7.122H7.122A7.122,7.122,0,0,1,0,305.523V7.122A7.122,7.122,0,0,1,7.122,0Z" transform="translate(15 10)" fill="#2a9dd9"/>
        </g>
        <path id="Intersection_6" data-name="Intersection 6" d="M119.354,309.8C47.918,269.976,0,196.591,0,112.653A217.817,217.817,0,0,1,31.386,0H282.733A12.107,12.107,0,0,1,294.84,12.107V297.689A12.107,12.107,0,0,1,282.733,309.8Z" transform="translate(274.187 1.424)" fill="#1986bf"/>
        <path id="Path_13191" data-name="Path 13191" d="M6.115.185V9.674c-.007,1.423-.666,2.181-1.839,2.181A1.7,1.7,0,0,1,2.432,10.1H0c0,2.491,1.819,3.769,4.185,3.769A4,4,0,0,0,8.54,9.674V.185ZM14,13.885a3.126,3.126,0,0,0,2.972-1.595h.079v1.39h2.293V6.906c0-2.675-2.181-3.479-4.112-3.479-2.128,0-3.763.949-4.29,2.794l2.227.316a2.021,2.021,0,0,1,2.076-1.285c1.107,0,1.713.567,1.713,1.562v.04c0,.685-.718.718-2.5.909-1.964.211-3.842.8-3.842,3.077C10.616,12.83,12.072,13.885,14,13.885Zm.619-1.753c-1,0-1.707-.455-1.707-1.331,0-.916.8-1.3,1.865-1.45a7.262,7.262,0,0,0,2.188-.494v1.193A2.155,2.155,0,0,1,14.623,12.132ZM24.138,7.75A2.078,2.078,0,0,1,26.28,5.443,1.906,1.906,0,0,1,28.25,7.6V13.68h2.385V7.236c.007-2.425-1.377-3.809-3.466-3.809a3.038,3.038,0,0,0-3.018,1.852h-.119V3.558h-2.28V13.68h2.385ZM37.4,11.176h6.438v2.5h2.333v-2.5H47.9V9.166H46.175V.185H43.13L37.4,9.232Zm6.465-2.01h-3.96V9.061l3.855-6.109h.105ZM59.69,3.558h-2V1.133H55.308V3.558H53.871V5.4h1.437v5.628c-.013,1.9,1.371,2.84,3.163,2.787a4.794,4.794,0,0,0,1.4-.237l-.4-1.865a2.974,2.974,0,0,1-.7.092c-.6,0-1.081-.211-1.081-1.173V5.4h2ZM66,13.878c2.965,0,4.85-2.089,4.85-5.219S68.962,3.427,66,3.427s-4.85,2.1-4.85,5.232S63.031,13.878,66,13.878Zm.013-1.911c-1.641,0-2.445-1.463-2.445-3.315s.8-3.334,2.445-3.334c1.614,0,2.418,1.483,2.418,3.334S67.624,11.967,66.01,11.967ZM82.9.185V9.674c-.007,1.423-.666,2.181-1.839,2.181A1.7,1.7,0,0,1,79.216,10.1H76.784c0,2.491,1.819,3.769,4.185,3.769a4,4,0,0,0,4.356-4.191V.185Zm7.888,13.7a3.126,3.126,0,0,0,2.972-1.595h.079v1.39h2.293V6.906c0-2.675-2.181-3.479-4.112-3.479-2.129,0-3.763.949-4.29,2.794l2.227.316a2.021,2.021,0,0,1,2.076-1.285c1.107,0,1.713.567,1.713,1.562v.04c0,.685-.718.718-2.5.909-1.964.211-3.842.8-3.842,3.077C87.4,12.83,88.857,13.885,90.787,13.885Zm.619-1.753c-1,0-1.707-.455-1.707-1.331,0-.916.8-1.3,1.865-1.45a7.262,7.262,0,0,0,2.188-.494v1.193A2.155,2.155,0,0,1,91.407,12.132Zm9.516-4.382a2.078,2.078,0,0,1,2.142-2.306,1.906,1.906,0,0,1,1.97,2.161V13.68h2.385V7.236c.007-2.425-1.377-3.809-3.466-3.809a3.038,3.038,0,0,0-3.018,1.852h-.119V3.558h-2.28V13.68h2.385Zm18.352,6.115c2.886,0,4.988-1.654,4.982-3.934a3.083,3.083,0,0,0-2.939-3.17V6.656a2.9,2.9,0,0,0,2.438-2.919C123.762,1.68,122.01,0,119.314,0c-2.623,0-4.652,1.562-4.705,3.822h2.353A2.105,2.105,0,0,1,119.3,1.984a1.886,1.886,0,0,1,2.089,1.9c.007,1.18-.969,1.964-2.366,1.964h-1.193V7.73h1.193c1.707,0,2.722.857,2.715,2.076.007,1.193-1.028,2.01-2.471,2.01-1.357,0-2.405-.705-2.465-1.806h-2.478C114.392,12.29,116.428,13.865,119.275,13.865ZM132.013.185h-2.326l-3.354,2.155V4.58l3.157-2.016h.079V13.68h2.445Z" transform="translate(401.706 66.732)" fill="#fff"/>
        <path id="Path_13190" data-name="Path 13190" d="M1.142,9l.9-2.548H5.685L6.59,9H7.732l-3.3-9H3.3L0,9ZM2.39,5.483,3.831,1.423H3.9L5.342,5.483Zm9.12-3.233H10.069V.633H9.032V2.249H8.013v.879H9.032V7.345a1.726,1.726,0,0,0,1.828,1.74,2.157,2.157,0,0,0,.773-.123l-.211-.931a2,2,0,0,1-.457.053c-.457,0-.9-.141-.9-1.019V3.128H11.51Zm4.5,0H14.568V.633H13.531V2.249H12.512v.879h1.019V7.345a1.726,1.726,0,0,0,1.828,1.74,2.157,2.157,0,0,0,.773-.123l-.211-.931a2,2,0,0,1-.457.053c-.457,0-.9-.141-.9-1.019V3.128h1.441Zm4.323,6.889a2.625,2.625,0,0,0,2.689-1.7l-1-.281a1.652,1.652,0,0,1-1.687,1.054,2.044,2.044,0,0,1-2.1-2.232h4.9V5.535c0-2.513-1.494-3.374-2.9-3.374-1.828,0-3.04,1.441-3.04,3.515S18.381,9.138,20.332,9.138Zm-2.1-4.059a2.015,2.015,0,0,1,2-1.986,1.829,1.829,0,0,1,1.845,1.986Zm7.517-.141a1.673,1.673,0,0,1,1.722-1.845A1.491,1.491,0,0,1,29.013,4.78V9h1.037V4.709c0-1.722-.918-2.548-2.284-2.548A1.991,1.991,0,0,0,25.8,3.3h-.088V2.249h-1V9h1.037Zm8.751,4.2A2.087,2.087,0,0,0,36.463,7.96h.123V9h1V0H36.551V3.321h-.088a2.054,2.054,0,0,0-1.951-1.16c-1.7,0-2.882,1.353-2.882,3.479C31.631,7.785,32.808,9.138,34.5,9.138Zm.141-.931c-1.3,0-1.968-1.142-1.968-2.583,0-1.423.65-2.53,1.968-2.53,1.265,0,1.933,1.019,1.933,2.53C36.569,7.152,35.884,8.206,34.636,8.206Zm6.976.949a2.12,2.12,0,0,0,2-1.072h.053V9h1.037V4.551a2.217,2.217,0,0,0-2.5-2.39A2.741,2.741,0,0,0,39.5,3.743l.984.351a1.823,1.823,0,0,1,1.757-1.019,1.253,1.253,0,0,1,1.423,1.371v.035c0,.5-.51.457-1.74.615-1.252.163-2.618.439-2.618,1.986A2.085,2.085,0,0,0,41.612,9.155Zm.158-.931c-.826,0-1.423-.369-1.423-1.09,0-.791.72-1.037,1.529-1.142a5.328,5.328,0,0,0,1.792-.387v.949A1.732,1.732,0,0,1,41.77,8.224ZM47.64,4.938a1.673,1.673,0,0,1,1.722-1.845A1.491,1.491,0,0,1,50.908,4.78V9h1.037V4.709c0-1.722-.918-2.548-2.284-2.548A1.991,1.991,0,0,0,47.692,3.3H47.6V2.249h-1V9H47.64Zm8.945,4.2a2.5,2.5,0,0,0,2.653-2.109H58.2a1.57,1.57,0,0,1-1.617,1.177c-1.23,0-2.021-1.019-2.021-2.583,0-1.529.808-2.53,2.021-2.53A1.582,1.582,0,0,1,58.2,4.27h1.037a2.514,2.514,0,0,0-2.671-2.109c-1.828,0-3.04,1.441-3.04,3.5C53.527,7.679,54.686,9.138,56.584,9.138Zm6.994,0a2.625,2.625,0,0,0,2.689-1.7l-1-.281a1.652,1.652,0,0,1-1.687,1.054,2.044,2.044,0,0,1-2.1-2.232h4.9V5.535c0-2.513-1.494-3.374-2.9-3.374-1.828,0-3.04,1.441-3.04,3.515S61.628,9.138,63.578,9.138Zm-2.1-4.059a2.015,2.015,0,0,1,2-1.986,1.829,1.829,0,0,1,1.845,1.986Zm12.7,4.059a2.5,2.5,0,0,0,2.653-2.109H75.791a1.57,1.57,0,0,1-1.617,1.177c-1.23,0-2.021-1.019-2.021-2.583,0-1.529.808-2.53,2.021-2.53A1.582,1.582,0,0,1,75.791,4.27h1.037a2.514,2.514,0,0,0-2.671-2.109c-1.828,0-3.04,1.441-3.04,3.5C71.117,7.679,72.277,9.138,74.174,9.138Zm4.832,2.39a2.028,2.028,0,0,0,1.986-1.546l2.873-7.714-1.133-.018L80.87,7.627H80.8L78.937,2.249H77.812l2.5,6.783-.193.527c-.378,1.028-.843,1.125-1.6.931l-.264.914A2.04,2.04,0,0,0,79.007,11.528Zm8.725-2.39a2.5,2.5,0,0,0,2.653-2.109H89.349a1.57,1.57,0,0,1-1.617,1.177c-1.23,0-2.021-1.019-2.021-2.583,0-1.529.808-2.53,2.021-2.53A1.582,1.582,0,0,1,89.349,4.27h1.037a2.514,2.514,0,0,0-2.671-2.109c-1.828,0-3.04,1.441-3.04,3.5C84.674,7.679,85.834,9.138,87.732,9.138ZM92.933,0H91.9V9h1.037ZM97.66,9.138a2.625,2.625,0,0,0,2.689-1.7l-1-.281A1.652,1.652,0,0,1,97.66,8.206a2.044,2.044,0,0,1-2.1-2.232h4.9V5.535c0-2.513-1.494-3.374-2.9-3.374-1.828,0-3.04,1.441-3.04,3.515S95.71,9.138,97.66,9.138Zm-2.1-4.059a2.015,2.015,0,0,1,2-1.986A1.829,1.829,0,0,1,99.4,5.079Z" transform="translate(401.163 46.673)" fill="#fff"/>
        <g id="question-mark" transform="translate(508.765 45.833)">
          <g id="Group_4902" data-name="Group 4902" transform="translate(0.197 0.197)">
            <path id="Path_4391" data-name="Path 4391" d="M9.08,0H2.749A2.615,2.615,0,0,0,0,2.456V8.462a2.615,2.615,0,0,0,2.749,2.456H4.375a.378.378,0,0,1,.342.2l.856,1.72a.394.394,0,0,0,.684,0l.856-1.72a.378.378,0,0,1,.342-.2H9.08a2.615,2.615,0,0,0,2.749-2.456V2.456A2.615,2.615,0,0,0,9.079,0Z" transform="translate(0 0)" fill="#f5f5f5"/>
          </g>
          <g id="Group_4903" data-name="Group 4903" transform="translate(4.065 1.974)">
            <path id="Path_4392" data-name="Path 4392" d="M2.409,5.211H1.676a.138.138,0,0,1-.138-.138V3.347a.256.256,0,0,1,.256-.256h.248a1.042,1.042,0,0,0,1.04-1.1A1.041,1.041,0,0,0,1.011,1.9h0a.167.167,0,0,1-.166.144H.164A.165.165,0,0,1,0,1.87q0-.053.012-.105A2.05,2.05,0,1,1,2.721,3.983a.258.258,0,0,0-.174.243v.848A.138.138,0,0,1,2.409,5.211Z" fill="#2a9eda"/>
          </g>
          <g id="Group_4904" data-name="Group 4904" transform="translate(8.783 0.197)">
            <path id="Path_4393" data-name="Path 4393" d="M.787,0H0A2.456,2.456,0,0,1,2.456,2.456V8.462A2.456,2.456,0,0,1,0,10.918H.787A2.456,2.456,0,0,0,3.243,8.462V2.456A2.456,2.456,0,0,0,.787,0Z" transform="translate(0 0)" fill="#ebe5ed"/>
          </g>
          <g id="Group_4905" data-name="Group 4905" transform="translate(5.836 1.974)">
            <path id="Path_4394" data-name="Path 4394" d="M.111,4.226v.848A.138.138,0,0,1,0,5.208l.027,0H.76A.138.138,0,0,0,.9,5.074V4.226a.258.258,0,0,1,.174-.243,2.057,2.057,0,0,0,.808-.522,2.033,2.033,0,0,0,.56-1.519A2.056,2.056,0,0,0,.436,0,2.055,2.055,0,0,0,0,.039a2.057,2.057,0,0,1,1.654,1.9A2.033,2.033,0,0,1,1.093,3.46a2.056,2.056,0,0,1-.808.522.258.258,0,0,0-.174.243" transform="translate(0 0)" fill="#2a9eda"/>
          </g>
          <g id="Group_4906" data-name="Group 4906" transform="translate(5.538 8.112)">
            <circle id="Ellipse_355" data-name="Ellipse 355" cx="0.575" cy="0.575" r="0.575" fill="#2a9eda"/>
          </g>
          <g id="Group_4907" data-name="Group 4907" transform="translate(0 0)">
            <path id="Path_4395" data-name="Path 4395" d="M9.264,0H2.958A2.821,2.821,0,0,0,0,2.653V7.321a.209.209,0,0,0,.219.2.209.209,0,0,0,.219-.2V2.653A2.4,2.4,0,0,1,2.958.393H9.264a2.4,2.4,0,0,1,2.519,2.259V4.467a.221.221,0,0,0,.439,0V2.653A2.821,2.821,0,0,0,9.264,0Z" transform="translate(0)" fill="#2a9eda"/>
            <path id="Path_4396" data-name="Path 4396" d="M12,0a.209.209,0,0,0-.219.2V3.6A2.4,2.4,0,0,1,9.264,5.861H7.644a.6.6,0,0,0-.541.315L6.251,7.9a.161.161,0,0,1-.28,0l-.852-1.72a.6.6,0,0,0-.541-.315H2.958A2.4,2.4,0,0,1,.439,3.6V3.05a.209.209,0,0,0-.219-.2A.209.209,0,0,0,0,3.05V3.6A2.821,2.821,0,0,0,2.958,6.254h1.62a.155.155,0,0,1,.14.082l.852,1.72a.622.622,0,0,0,1.082,0L7.5,6.336a.155.155,0,0,1,.14-.082h1.62A2.821,2.821,0,0,0,12.222,3.6V.2A.209.209,0,0,0,12,0Z" transform="translate(0 5.057)" fill="#2a9eda"/>
          </g>
        </g>
        <rect id="Rectangle_1832" data-name="Rectangle 1832" width="170.922" height="66.232" rx="25" transform="translate(365.346 199.409)" fill="#b3b3b3" opacity="0"/>
        <text id="Withdraw" transform="translate(399.53 237.062)" fill="#fff" font-size="18" font-family="Helvetica-Bold, Helvetica" font-weight="700" opacity="0"><tspan x="0" y="0">Withdraw</tspan></text>
        <g id="Group_6776" data-name="Group 6776" transform="translate(365.346 205.106)">
          <rect id="Rectangle_1" data-name="Rectangle 1" width="170.922" height="66.944" rx="33.472" transform="translate(0 0)" fill="#2a9dd9"/>
          <path id="Path_13209" data-name="Path 13209" d="M4.505,16.645H7.75L10.74,6.35h.123l3,10.294h3.244L21.611.9H17.975L15.368,11.863H15.23L12.362.9H9.249L6.373,11.84H6.243L3.636.9H0Zm18.82,0H26.6V4.836H23.326ZM24.971,3.314a1.725,1.725,0,0,0,1.776-1.661,1.776,1.776,0,0,0-3.544,0A1.723,1.723,0,0,0,24.971,3.314ZM35.5,4.836H33.274V2.007H30V4.836H28.384V7.3H30v6.15c-.015,2.314,1.561,3.46,3.936,3.36a6.371,6.371,0,0,0,1.776-.308L35.2,14.061a4.474,4.474,0,0,1-.815.108c-.653,0-1.107-.246-1.107-1.153V7.3H35.5Zm5.651,4.982A2.2,2.2,0,0,1,43.422,7.4,2.02,2.02,0,0,1,45.529,9.71v6.935H48.8V9.126c.008-2.768-1.622-4.444-4.082-4.444a3.49,3.49,0,0,0-3.529,2.237h-.138V.9H37.871V16.645h3.275Zm14.592,7.019a3.491,3.491,0,0,0,3.352-2.083h.138v1.891h3.229V.9H59.19v5.92h-.1a3.479,3.479,0,0,0-3.36-2.137c-2.591,0-4.782,2.014-4.782,6.074C50.949,14.707,53.048,16.837,55.738,16.837Zm1.038-2.606c-1.607,0-2.483-1.43-2.483-3.49,0-2.045.861-3.452,2.483-3.452,1.591,0,2.483,1.345,2.483,3.452S58.352,14.231,56.776,14.231Zm8.365,2.414h3.275V9.964a2.384,2.384,0,0,1,2.506-2.452,5.509,5.509,0,0,1,1.384.177V4.782a4.916,4.916,0,0,0-1.03-.115A2.869,2.869,0,0,0,68.439,6.9h-.123V4.836H65.141Zm11.886.223a3.626,3.626,0,0,0,3.452-1.861h.092v1.638h3.106V8.68c0-2.814-2.383-4-5.013-4-2.829,0-4.69,1.353-5.143,3.506l3.029.246a1.976,1.976,0,0,1,2.1-1.361c1.115,0,1.753.561,1.753,1.53v.046c0,.761-.807.861-2.86,1.061-2.337.215-4.436,1-4.436,3.636C73.106,15.684,74.774,16.868,77.027,16.868Zm.938-2.26c-1.007,0-1.73-.469-1.73-1.368,0-.923.761-1.376,1.914-1.538a7.876,7.876,0,0,0,2.276-.53v1.253A2.266,2.266,0,0,1,77.965,14.607Zm10.586,2.037h3.46l2.03-7.427h.146l2.03,7.427h3.467l3.206-11.809H99.584l-1.8,7.888h-.1L95.747,4.836H92.5L90.588,12.77h-.108l-1.83-7.934H85.338Z" transform="translate(34.033 25.673)" fill="#fff"/>
        </g>
        <g id="Component_33_1" data-name="Component 33 – 1" transform="translate(35.567 43.3)">
          <path id="Subtraction_9" data-name="Subtraction 9" d="M56.562,60.41H3.848A3.852,3.852,0,0,1,0,56.562V3.848A3.852,3.852,0,0,1,3.848,0H56.562A3.852,3.852,0,0,1,60.41,3.848V56.562A3.852,3.852,0,0,1,56.562,60.41ZM25.454,33.354a3.483,3.483,0,0,1,1.373.282,2.83,2.83,0,0,1,.98.9L37.58,47.994a2.242,2.242,0,0,0,1.911,1.082c.051,0,.1,0,.138,0h4.52L33.172,34.124a5.347,5.347,0,0,0-1.684-1.6,14.528,14.528,0,0,0,3.9-1.47A10.873,10.873,0,0,0,38.3,28.7a9.944,9.944,0,0,0,1.24-1.8h4.113V24.452h-3.19a10.9,10.9,0,0,0,.294-2.595c0-.229,0-.465-.013-.7h2.908V18.7H40.347a10.854,10.854,0,0,0-.4-1.17,8.377,8.377,0,0,0-2.507-3.295,11.681,11.681,0,0,0-4.3-2.089,23.218,23.218,0,0,0-5.754-.726c-.139,0-.281,0-.421,0H16.328V49.073H21.4V33.364l3.855,0C25.32,33.356,25.387,33.354,25.454,33.354Zm1.49-3.693h0l-.214,0H21.4V15.449h5.567c.251-.018.506-.027.757-.027a10.7,10.7,0,0,1,5.85,1.735A5.941,5.941,0,0,1,34.931,18.7H26.912v2.45h8.857a5.986,5.986,0,0,1,.024,1.07,7.7,7.7,0,0,1-.3,2.228H26.912V26.9h7.28a6.469,6.469,0,0,1-.7.7,7.943,7.943,0,0,1-2.839,1.523A12.951,12.951,0,0,1,26.944,29.66Z" transform="translate(0 -0.001)" fill="#fff" stroke="rgba(0,0,0,0)" stroke-miterlimit="10" stroke-width="1"/>
        </g>
        <g id="Group_6772" data-name="Group 6772" transform="translate(36.305 205.671)">
          <path id="Path_13158" data-name="Path 13158" d="M21.516,8.2H17.3A9.159,9.159,0,0,0,16.27,5.126l4.116-.015,1.189-4.7H1.367L0,6.894H5.409A3.889,3.889,0,0,1,8.692,8.2H1.129L0,12.779H9.019a3.705,3.705,0,0,1-3.611,2.259H.654L.594,19.554l9.688,11.293h8.559v-.3L10.4,20.208l.327-.149c3.7-1.679,5.75-3.73,6.434-7.281h3.224ZM45.468,31.263c7.444,0,12.689-3.789,12.66-9.153.03-3.73-2.467-6.36-7.37-6.894v-.238c3.626-.386,6.27-2.719,6.241-6.122C57.028,3.73,52.273,0,45.527,0,38.633,0,33.73,3.938,33.7,9.51h7.9c.03-1.842,1.649-3.15,3.923-3.15,2.08,0,3.536,1.263,3.507,3.031.03,1.842-1.694,3.15-4.16,3.15H41.783v5.706h3.091c2.675,0,4.547,1.308,4.517,3.15.03,1.887-1.575,3.21-3.863,3.21-2.377,0-4.071-1.263-4.1-3.031H33.105C33.135,27.251,38.261,31.263,45.468,31.263Zm29.6.416c8.276.015,13.418-5.914,13.432-15.988C88.514,5.676,83.343,0,75.067,0s-13.4,5.646-13.432,15.691S66.776,31.664,75.067,31.679Zm0-6.716c-2.853,0-4.9-2.868-4.874-9.272.03-6.256,2.021-9.034,4.874-9.034s4.859,2.779,4.874,9.034C79.955,22.1,77.92,24.963,75.067,24.963Zm23.952,1.724H92.838v1.664A36.69,36.69,0,0,1,91,38.276h5.052A31.081,31.081,0,0,0,98.9,28.351ZM116.2,31.679c8.276.015,13.417-5.914,13.432-15.988C129.643,5.676,124.472,0,116.2,0s-13.4,5.646-13.432,15.691S107.9,31.664,116.2,31.679Zm0-6.716c-2.853,0-4.9-2.868-4.874-9.272.03-6.256,2.021-9.034,4.874-9.034s4.859,2.779,4.874,9.034C121.084,22.1,119.049,24.963,116.2,24.963Zm30.55,6.716c8.276.015,13.418-5.914,13.432-15.988C160.193,5.676,155.022,0,146.746,0s-13.4,5.646-13.432,15.691S138.454,31.664,146.746,31.679Zm0-6.716c-2.853,0-4.9-2.868-4.874-9.272.03-6.256,2.021-9.034,4.874-9.034s4.859,2.779,4.874,9.034C151.634,22.1,149.6,24.963,146.746,24.963Zm30.55,6.716c8.276.015,13.417-5.914,13.432-15.988C190.743,5.676,185.572,0,177.3,0s-13.4,5.646-13.432,15.691S169,31.664,177.3,31.679Zm0-6.716c-2.853,0-4.9-2.868-4.874-9.272.03-6.256,2.021-9.034,4.874-9.034s4.859,2.779,4.874,9.034C182.184,22.1,180.148,24.963,177.3,24.963Z" transform="translate(0.892 27.316)" fill="#fff"/>
          <path id="Path_13157" data-name="Path 13157" d="M8.559,3.487A3.953,3.953,0,0,0,4.477.178C1.882.178,0,2.179,0,5.389S1.882,10.6,4.477,10.6A3.953,3.953,0,0,0,8.559,7.291H7.33A2.76,2.76,0,0,1,4.477,9.45c-1.842,0-3.289-1.426-3.289-4.061S2.635,1.327,4.477,1.327A2.76,2.76,0,0,1,7.33,3.487ZM15.176,7.35a1.976,1.976,0,0,1-1.961,2.08A1.658,1.658,0,0,1,11.55,7.608V2.853H10.381V7.687c0,1.942,1.03,2.873,2.457,2.873A2.372,2.372,0,0,0,15.1,9.173h.079v1.288h1.169V2.853H15.176Zm3.309,3.11h1.169V5.646a1.8,1.8,0,0,1,1.922-1.783,3.574,3.574,0,0,1,.713.079V2.754c-.134-.01-.441-.02-.614-.02A2.07,2.07,0,0,0,19.693,4h-.079V2.853H18.484Zm5.191,0h1.169V5.646a1.8,1.8,0,0,1,1.922-1.783,3.574,3.574,0,0,1,.713.079V2.754c-.134-.01-.441-.02-.614-.02A2.07,2.07,0,0,0,24.884,4H24.8V2.853H23.675Zm8.143.158A2.959,2.959,0,0,0,34.849,8.7L33.72,8.38a1.862,1.862,0,0,1-1.9,1.189,2.3,2.3,0,0,1-2.372-2.516h5.523v-.5c0-2.833-1.684-3.8-3.269-3.8-2.06,0-3.427,1.625-3.427,3.962S29.619,10.619,31.818,10.619ZM29.445,6.043A2.272,2.272,0,0,1,31.7,3.8a2.062,2.062,0,0,1,2.08,2.239Zm8.474-.158A1.886,1.886,0,0,1,39.861,3.8a1.681,1.681,0,0,1,1.743,1.9v4.755h1.169V5.627c0-1.942-1.035-2.873-2.576-2.873a2.245,2.245,0,0,0-2.219,1.288h-.1V2.853H36.751v7.608H37.92Zm10.3-3.031H46.6V1.03H45.428V2.853H44.279v.991h1.149V8.6a1.946,1.946,0,0,0,2.06,1.961,2.432,2.432,0,0,0,.872-.139l-.238-1.05a2.256,2.256,0,0,1-.515.059c-.515,0-1.01-.158-1.01-1.149V3.843h1.625Zm7.925,7.786A2.39,2.39,0,0,0,58.405,9.43h.059v1.03h1.169V5.448A2.5,2.5,0,0,0,56.82,2.754a3.09,3.09,0,0,0-3.051,1.783l1.109.4A2.056,2.056,0,0,1,56.86,3.784a1.413,1.413,0,0,1,1.6,1.545v.04c0,.565-.575.515-1.961.693-1.412.183-2.952.5-2.952,2.239A2.351,2.351,0,0,0,56.147,10.639Zm.178-1.05c-.931,0-1.6-.416-1.6-1.228,0-.892.812-1.169,1.724-1.288a6.006,6.006,0,0,0,2.021-.436v1.07A1.953,1.953,0,0,1,56.325,9.589ZM67.717,2.853H66.449l-2.1,6.062h-.079l-2.1-6.062H60.9l2.813,7.608H64.9Zm3.546,7.786A2.39,2.39,0,0,0,73.521,9.43h.059v1.03H74.75V5.448a2.5,2.5,0,0,0-2.813-2.694,3.09,3.09,0,0,0-3.051,1.783l1.109.4a2.056,2.056,0,0,1,1.981-1.149,1.413,1.413,0,0,1,1.6,1.545v.04c0,.565-.575.515-1.961.693-1.412.183-2.952.5-2.952,2.239A2.351,2.351,0,0,0,71.263,10.639Zm.178-1.05c-.931,0-1.6-.416-1.6-1.228,0-.892.812-1.169,1.724-1.288a6.006,6.006,0,0,0,2.021-.436v1.07A1.953,1.953,0,0,1,71.441,9.589Zm5.448.872h1.169V2.853H76.889Zm.594-8.876a.817.817,0,0,0,.832-.792.833.833,0,0,0-1.664,0A.817.817,0,0,0,77.484,1.585ZM81.367.317H80.2V10.461h1.169Zm4.378,10.322A2.39,2.39,0,0,0,88,9.43h.059v1.03h1.169V5.448a2.5,2.5,0,0,0-2.813-2.694,3.09,3.09,0,0,0-3.051,1.783l1.109.4a2.056,2.056,0,0,1,1.981-1.149,1.413,1.413,0,0,1,1.6,1.545v.04c0,.565-.575.515-1.961.693-1.412.183-2.952.5-2.952,2.239A2.351,2.351,0,0,0,85.745,10.639Zm.178-1.05c-.931,0-1.6-.416-1.6-1.228,0-.892.812-1.169,1.724-1.288a6.007,6.007,0,0,0,2.021-.436v1.07A1.953,1.953,0,0,1,85.924,9.589Zm5.607.872H92.66V9.292H92.8a2.353,2.353,0,0,0,2.219,1.327c1.9,0,3.229-1.526,3.229-3.943,0-2.4-1.327-3.923-3.249-3.923a2.316,2.316,0,0,0-2.2,1.308h-.1V.317H91.53Zm1.149-3.8c0-1.7.753-2.853,2.179-2.853,1.486,0,2.219,1.248,2.219,2.853,0,1.625-.753,2.912-2.219,2.912C93.452,9.569,92.679,8.38,92.679,6.657ZM101.2.317H100.03V10.461H101.2Zm5.329,10.3A2.959,2.959,0,0,0,109.559,8.7L108.43,8.38a1.862,1.862,0,0,1-1.9,1.189,2.3,2.3,0,0,1-2.372-2.516h5.523v-.5c0-2.833-1.684-3.8-3.269-3.8-2.06,0-3.427,1.625-3.427,3.962S104.329,10.619,106.528,10.619Zm-2.372-4.577A2.272,2.272,0,0,1,106.409,3.8a2.062,2.062,0,0,1,2.08,2.239Zm16.617-1.486a2.564,2.564,0,0,0-2.694-1.8c-1.6,0-2.793.911-2.793,2.2,0,1.05.624,1.753,2.021,2.08l1.268.3c.768.178,1.129.545,1.129,1.07,0,.654-.693,1.189-1.783,1.189a1.6,1.6,0,0,1-1.763-1.228l-1.109.277c.272,1.293,1.337,1.981,2.893,1.981,1.768,0,2.972-.966,2.972-2.278,0-1.06-.664-1.729-2.021-2.06L117.761,6c-.9-.223-1.308-.525-1.308-1.109,0-.654.693-1.129,1.625-1.129a1.6,1.6,0,0,1,1.644,1.09Zm4.141,6.082a2.39,2.39,0,0,0,2.259-1.209h.059v1.03H128.4V5.448a2.5,2.5,0,0,0-2.813-2.694,3.09,3.09,0,0,0-3.051,1.783l1.109.4a2.056,2.056,0,0,1,1.981-1.149,1.413,1.413,0,0,1,1.6,1.545v.04c0,.565-.575.515-1.961.693-1.412.183-2.952.5-2.952,2.239A2.351,2.351,0,0,0,124.913,10.639Zm.178-1.05c-.931,0-1.6-.416-1.6-1.228,0-.892.812-1.169,1.724-1.288a6.006,6.006,0,0,0,2.021-.436v1.07A1.953,1.953,0,0,1,125.091,9.589ZM131.709.317H130.54V10.461h1.169Zm4.378,10.322a2.39,2.39,0,0,0,2.259-1.209h.059v1.03h1.169V5.448a2.5,2.5,0,0,0-2.813-2.694,3.09,3.09,0,0,0-3.051,1.783l1.109.4A2.056,2.056,0,0,1,136.8,3.784a1.413,1.413,0,0,1,1.6,1.545v.04c0,.565-.575.515-1.961.693-1.412.183-2.952.5-2.952,2.239A2.351,2.351,0,0,0,136.087,10.639Zm.178-1.05c-.931,0-1.6-.416-1.6-1.228,0-.892.812-1.169,1.724-1.288a6.006,6.006,0,0,0,2.021-.436v1.07A1.953,1.953,0,0,1,136.265,9.589Zm5.448.872h1.169V5.646A1.8,1.8,0,0,1,144.8,3.863a3.573,3.573,0,0,1,.713.079V2.754c-.134-.01-.441-.02-.614-.02A2.07,2.07,0,0,0,142.922,4h-.079V2.853h-1.129Zm6.181,2.853a2.286,2.286,0,0,0,2.239-1.743l3.239-8.7-1.278-.02-2.1,6.062h-.079l-2.1-6.062h-1.268l2.813,7.647-.218.594c-.426,1.159-.951,1.268-1.8,1.05l-.3,1.03A2.3,2.3,0,0,0,147.895,13.314Z" transform="translate(0 0.63)" fill="#fff"/>
          <g id="question-mark-2" data-name="question-mark" transform="translate(163.05 0)">
            <g id="Group_4902-2" data-name="Group 4902" transform="translate(0.222 0.222)">
              <path id="Path_4391-2" data-name="Path 4391" d="M10.236,0H3.1A2.948,2.948,0,0,0,0,2.769V9.54a2.948,2.948,0,0,0,3.1,2.769H4.933a.427.427,0,0,1,.385.224l.965,1.94a.444.444,0,0,0,.771,0l.965-1.94a.427.427,0,0,1,.385-.224h1.833a2.948,2.948,0,0,0,3.1-2.769V2.769A2.948,2.948,0,0,0,10.236,0Z" transform="translate(0 0)" fill="#f5f5f5"/>
            </g>
            <g id="Group_4903-2" data-name="Group 4903" transform="translate(4.583 2.226)">
              <path id="Path_4392-2" data-name="Path 4392" d="M2.716,5.875H1.889a.155.155,0,0,1-.155-.155V3.774a.289.289,0,0,1,.289-.289H2.3A1.175,1.175,0,0,0,3.475,2.248a1.174,1.174,0,0,0-2.335-.1v0a.189.189,0,0,1-.187.163H.185A.186.186,0,0,1,0,2.108q.005-.06.013-.118a2.311,2.311,0,1,1,3.053,2.5.291.291,0,0,0-.2.274V5.72A.155.155,0,0,1,2.716,5.875Z" transform="translate(0 0)" fill="#2a9eda"/>
            </g>
            <g id="Group_4904-2" data-name="Group 4904" transform="translate(9.902 0.222)">
              <path id="Path_4393-2" data-name="Path 4393" d="M.887,0H0A2.769,2.769,0,0,1,2.769,2.769V9.54A2.769,2.769,0,0,1,0,12.309H.887A2.769,2.769,0,0,0,3.656,9.54V2.769A2.769,2.769,0,0,0,.887,0Z" transform="translate(0 0)" fill="#ebe5ed"/>
            </g>
            <g id="Group_4905-2" data-name="Group 4905" transform="translate(6.579 2.226)">
              <path id="Path_4394-2" data-name="Path 4394" d="M.125,4.764V5.72A.155.155,0,0,1,0,5.872a.155.155,0,0,0,.03,0H.857a.155.155,0,0,0,.155-.155V4.764a.291.291,0,0,1,.2-.274A2.319,2.319,0,0,0,2.12,3.9a2.292,2.292,0,0,0,.632-1.713A2.318,2.318,0,0,0,.491,0,2.317,2.317,0,0,0,0,.043,2.319,2.319,0,0,1,1.865,2.189,2.292,2.292,0,0,1,1.233,3.9a2.318,2.318,0,0,1-.911.589.291.291,0,0,0-.2.274" transform="translate(0 0)" fill="#2a9eda"/>
            </g>
            <g id="Group_4906-2" data-name="Group 4906" transform="translate(6.243 9.145)">
              <circle id="Ellipse_355-2" data-name="Ellipse 355" cx="0.649" cy="0.649" r="0.649" fill="#2a9eda"/>
            </g>
            <g id="Group_4907-2" data-name="Group 4907" transform="translate(0 0)">
              <path id="Path_4395-2" data-name="Path 4395" d="M10.445,0H3.335A3.181,3.181,0,0,0,0,2.991V8.253a.236.236,0,0,0,.247.222.236.236,0,0,0,.247-.222V2.991A2.709,2.709,0,0,1,3.335.444h7.11a2.709,2.709,0,0,1,2.84,2.547V5.036a.249.249,0,0,0,.495,0V2.991A3.181,3.181,0,0,0,10.445,0Z" transform="translate(0)" fill="#2a9eda"/>
              <path id="Path_4396-2" data-name="Path 4396" d="M13.532,0a.236.236,0,0,0-.247.222V4.06a2.709,2.709,0,0,1-2.84,2.547H8.618a.675.675,0,0,0-.61.356L7.048,8.9a.181.181,0,0,1-.316,0l-.961-1.94a.675.675,0,0,0-.61-.356H3.335A2.709,2.709,0,0,1,.495,4.06V3.439a.236.236,0,0,0-.247-.222A.236.236,0,0,0,0,3.439V4.06A3.181,3.181,0,0,0,3.335,7.051H5.161a.175.175,0,0,1,.158.092l.961,1.94a.7.7,0,0,0,1.22,0l.961-1.94a.175.175,0,0,1,.158-.092h1.826A3.181,3.181,0,0,0,13.779,4.06V.222A.236.236,0,0,0,13.532,0Z" transform="translate(0 5.702)" fill="#2a9eda"/>
            </g>
          </g>
        </g>
      </g>
      <g id="Group_6778" data-name="Group 6778" transform="matrix(0.999, 0.052, -0.052, 0.999, 56.697, 57.974)">
        <g transform="matrix(1, -0.05, 0.05, 1, -75.16, -64.13)" filter="url(#Path_13311)">
          <path id="Path_13311-2" data-name="Path 13311" d="M9.264,0H562.613a9.264,9.264,0,0,1,9.264,9.264V303.381a9.264,9.264,0,0,1-9.264,9.264H9.264A9.264,9.264,0,0,1,0,303.381V9.264A9.264,9.264,0,0,1,9.264,0Z" transform="matrix(1, 0.05, -0.05, 1, 71.7, 67.97)" fill="#204866"/>
        </g>
        <path id="Intersection_6-2" data-name="Intersection 6" d="M119.353,309.8C47.918,269.976,0,196.591,0,112.653A217.816,217.816,0,0,1,31.386,0H277.84a17,17,0,0,1,17,17V292.8a17,17,0,0,1-17,17Z" transform="translate(274.187 1.424)" fill="#1e415a"/>
        <path id="Path_13191-2" data-name="Path 13191" d="M6.115.185V9.674c-.007,1.423-.666,2.181-1.839,2.181A1.7,1.7,0,0,1,2.432,10.1H0c0,2.491,1.819,3.769,4.185,3.769A4,4,0,0,0,8.54,9.674V.185ZM14,13.885a3.126,3.126,0,0,0,2.972-1.595h.079v1.39h2.293V6.906c0-2.675-2.181-3.479-4.112-3.479-2.128,0-3.763.949-4.29,2.794l2.227.316a2.021,2.021,0,0,1,2.076-1.285c1.107,0,1.713.567,1.713,1.562v.04c0,.685-.718.718-2.5.909-1.964.211-3.842.8-3.842,3.077C10.616,12.83,12.072,13.885,14,13.885Zm.619-1.753c-1,0-1.707-.455-1.707-1.331,0-.916.8-1.3,1.865-1.45a7.262,7.262,0,0,0,2.188-.494v1.193A2.155,2.155,0,0,1,14.623,12.132ZM24.138,7.75A2.078,2.078,0,0,1,26.28,5.443,1.906,1.906,0,0,1,28.25,7.6V13.68h2.385V7.236c.007-2.425-1.377-3.809-3.466-3.809a3.038,3.038,0,0,0-3.018,1.852h-.119V3.558h-2.28V13.68h2.385ZM37.4,11.176h6.438v2.5h2.333v-2.5H47.9V9.166H46.175V.185H43.13L37.4,9.232Zm6.465-2.01h-3.96V9.061l3.855-6.109h.105ZM59.69,3.558h-2V1.133H55.308V3.558H53.871V5.4h1.437v5.628c-.013,1.9,1.371,2.84,3.163,2.787a4.794,4.794,0,0,0,1.4-.237l-.4-1.865a2.974,2.974,0,0,1-.7.092c-.6,0-1.081-.211-1.081-1.173V5.4h2ZM66,13.878c2.965,0,4.85-2.089,4.85-5.219S68.962,3.427,66,3.427s-4.85,2.1-4.85,5.232S63.031,13.878,66,13.878Zm.013-1.911c-1.641,0-2.445-1.463-2.445-3.315s.8-3.334,2.445-3.334c1.614,0,2.418,1.483,2.418,3.334S67.624,11.967,66.01,11.967ZM82.9.185V9.674c-.007,1.423-.666,2.181-1.839,2.181A1.7,1.7,0,0,1,79.216,10.1H76.784c0,2.491,1.819,3.769,4.185,3.769a4,4,0,0,0,4.356-4.191V.185Zm7.888,13.7a3.126,3.126,0,0,0,2.972-1.595h.079v1.39h2.293V6.906c0-2.675-2.181-3.479-4.112-3.479-2.129,0-3.763.949-4.29,2.794l2.227.316a2.021,2.021,0,0,1,2.076-1.285c1.107,0,1.713.567,1.713,1.562v.04c0,.685-.718.718-2.5.909-1.964.211-3.842.8-3.842,3.077C87.4,12.83,88.857,13.885,90.787,13.885Zm.619-1.753c-1,0-1.707-.455-1.707-1.331,0-.916.8-1.3,1.865-1.45a7.262,7.262,0,0,0,2.188-.494v1.193A2.155,2.155,0,0,1,91.407,12.132Zm9.516-4.382a2.078,2.078,0,0,1,2.142-2.306,1.906,1.906,0,0,1,1.97,2.161V13.68h2.385V7.236c.007-2.425-1.377-3.809-3.466-3.809a3.038,3.038,0,0,0-3.018,1.852h-.119V3.558h-2.28V13.68h2.385Zm18.352,6.115c2.886,0,4.988-1.654,4.982-3.934a3.083,3.083,0,0,0-2.939-3.17V6.656a2.9,2.9,0,0,0,2.438-2.919C123.762,1.68,122.01,0,119.314,0c-2.623,0-4.652,1.562-4.705,3.822h2.353A2.105,2.105,0,0,1,119.3,1.984a1.886,1.886,0,0,1,2.089,1.9c.007,1.18-.969,1.964-2.366,1.964h-1.193V7.73h1.193c1.707,0,2.722.857,2.715,2.076.007,1.193-1.028,2.01-2.471,2.01-1.357,0-2.405-.705-2.465-1.806h-2.478C114.392,12.29,116.428,13.865,119.275,13.865ZM132.013.185h-2.326l-3.354,2.155V4.58l3.157-2.016h.079V13.68h2.445Z" transform="translate(401.706 66.732)" fill="#fff"/>
        <path id="Path_13190-2" data-name="Path 13190" d="M1.142,9l.9-2.548H5.685L6.59,9H7.732l-3.3-9H3.3L0,9ZM2.39,5.483,3.831,1.423H3.9L5.342,5.483Zm9.12-3.233H10.069V.633H9.032V2.249H8.013v.879H9.032V7.345a1.726,1.726,0,0,0,1.828,1.74,2.157,2.157,0,0,0,.773-.123l-.211-.931a2,2,0,0,1-.457.053c-.457,0-.9-.141-.9-1.019V3.128H11.51Zm4.5,0H14.568V.633H13.531V2.249H12.512v.879h1.019V7.345a1.726,1.726,0,0,0,1.828,1.74,2.157,2.157,0,0,0,.773-.123l-.211-.931a2,2,0,0,1-.457.053c-.457,0-.9-.141-.9-1.019V3.128h1.441Zm4.323,6.889a2.625,2.625,0,0,0,2.689-1.7l-1-.281a1.652,1.652,0,0,1-1.687,1.054,2.044,2.044,0,0,1-2.1-2.232h4.9V5.535c0-2.513-1.494-3.374-2.9-3.374-1.828,0-3.04,1.441-3.04,3.515S18.381,9.138,20.332,9.138Zm-2.1-4.059a2.015,2.015,0,0,1,2-1.986,1.829,1.829,0,0,1,1.845,1.986Zm7.517-.141a1.673,1.673,0,0,1,1.722-1.845A1.491,1.491,0,0,1,29.013,4.78V9h1.037V4.709c0-1.722-.918-2.548-2.284-2.548A1.991,1.991,0,0,0,25.8,3.3h-.088V2.249h-1V9h1.037Zm8.751,4.2A2.087,2.087,0,0,0,36.463,7.96h.123V9h1V0H36.551V3.321h-.088a2.054,2.054,0,0,0-1.951-1.16c-1.7,0-2.882,1.353-2.882,3.479C31.631,7.785,32.808,9.138,34.5,9.138Zm.141-.931c-1.3,0-1.968-1.142-1.968-2.583,0-1.423.65-2.53,1.968-2.53,1.265,0,1.933,1.019,1.933,2.53C36.569,7.152,35.884,8.206,34.636,8.206Zm6.976.949a2.12,2.12,0,0,0,2-1.072h.053V9h1.037V4.551a2.217,2.217,0,0,0-2.5-2.39A2.741,2.741,0,0,0,39.5,3.743l.984.351a1.823,1.823,0,0,1,1.757-1.019,1.253,1.253,0,0,1,1.423,1.371v.035c0,.5-.51.457-1.74.615-1.252.163-2.618.439-2.618,1.986A2.085,2.085,0,0,0,41.612,9.155Zm.158-.931c-.826,0-1.423-.369-1.423-1.09,0-.791.72-1.037,1.529-1.142a5.328,5.328,0,0,0,1.792-.387v.949A1.732,1.732,0,0,1,41.77,8.224ZM47.64,4.938a1.673,1.673,0,0,1,1.722-1.845A1.491,1.491,0,0,1,50.908,4.78V9h1.037V4.709c0-1.722-.918-2.548-2.284-2.548A1.991,1.991,0,0,0,47.692,3.3H47.6V2.249h-1V9H47.64Zm8.945,4.2a2.5,2.5,0,0,0,2.653-2.109H58.2a1.57,1.57,0,0,1-1.617,1.177c-1.23,0-2.021-1.019-2.021-2.583,0-1.529.808-2.53,2.021-2.53A1.582,1.582,0,0,1,58.2,4.27h1.037a2.514,2.514,0,0,0-2.671-2.109c-1.828,0-3.04,1.441-3.04,3.5C53.527,7.679,54.686,9.138,56.584,9.138Zm6.994,0a2.625,2.625,0,0,0,2.689-1.7l-1-.281a1.652,1.652,0,0,1-1.687,1.054,2.044,2.044,0,0,1-2.1-2.232h4.9V5.535c0-2.513-1.494-3.374-2.9-3.374-1.828,0-3.04,1.441-3.04,3.515S61.628,9.138,63.578,9.138Zm-2.1-4.059a2.015,2.015,0,0,1,2-1.986,1.829,1.829,0,0,1,1.845,1.986Zm12.7,4.059a2.5,2.5,0,0,0,2.653-2.109H75.791a1.57,1.57,0,0,1-1.617,1.177c-1.23,0-2.021-1.019-2.021-2.583,0-1.529.808-2.53,2.021-2.53A1.582,1.582,0,0,1,75.791,4.27h1.037a2.514,2.514,0,0,0-2.671-2.109c-1.828,0-3.04,1.441-3.04,3.5C71.117,7.679,72.277,9.138,74.174,9.138Zm4.832,2.39a2.028,2.028,0,0,0,1.986-1.546l2.873-7.714-1.133-.018L80.87,7.627H80.8L78.937,2.249H77.812l2.5,6.783-.193.527c-.378,1.028-.843,1.125-1.6.931l-.264.914A2.04,2.04,0,0,0,79.007,11.528Zm8.725-2.39a2.5,2.5,0,0,0,2.653-2.109H89.349a1.57,1.57,0,0,1-1.617,1.177c-1.23,0-2.021-1.019-2.021-2.583,0-1.529.808-2.53,2.021-2.53A1.582,1.582,0,0,1,89.349,4.27h1.037a2.514,2.514,0,0,0-2.671-2.109c-1.828,0-3.04,1.441-3.04,3.5C84.674,7.679,85.834,9.138,87.732,9.138ZM92.933,0H91.9V9h1.037ZM97.66,9.138a2.625,2.625,0,0,0,2.689-1.7l-1-.281A1.652,1.652,0,0,1,97.66,8.206a2.044,2.044,0,0,1-2.1-2.232h4.9V5.535c0-2.513-1.494-3.374-2.9-3.374-1.828,0-3.04,1.441-3.04,3.515S95.71,9.138,97.66,9.138Zm-2.1-4.059a2.015,2.015,0,0,1,2-1.986A1.829,1.829,0,0,1,99.4,5.079Z" transform="translate(401.163 46.673)" fill="#fff"/>
        <g id="question-mark-3" data-name="question-mark" transform="translate(508.765 45.833)">
          <g id="Group_4902-3" data-name="Group 4902" transform="translate(0.197 0.197)">
            <path id="Path_4391-3" data-name="Path 4391" d="M9.08,0H2.749A2.615,2.615,0,0,0,0,2.456V8.462a2.615,2.615,0,0,0,2.749,2.456H4.375a.378.378,0,0,1,.342.2l.856,1.72a.394.394,0,0,0,.684,0l.856-1.72a.378.378,0,0,1,.342-.2H9.08a2.615,2.615,0,0,0,2.749-2.456V2.456A2.615,2.615,0,0,0,9.079,0Z" transform="translate(0 0)" fill="#f5f5f5"/>
          </g>
          <g id="Group_4903-3" data-name="Group 4903" transform="translate(4.065 1.974)">
            <path id="Path_4392-3" data-name="Path 4392" d="M2.409,5.211H1.676a.138.138,0,0,1-.138-.138V3.347a.256.256,0,0,1,.256-.256h.248a1.042,1.042,0,0,0,1.04-1.1A1.041,1.041,0,0,0,1.011,1.9h0a.167.167,0,0,1-.166.144H.164A.165.165,0,0,1,0,1.87q0-.053.012-.105A2.05,2.05,0,1,1,2.721,3.983a.258.258,0,0,0-.174.243v.848A.138.138,0,0,1,2.409,5.211Z" fill="#2a9eda"/>
          </g>
          <g id="Group_4904-3" data-name="Group 4904" transform="translate(8.783 0.197)">
            <path id="Path_4393-3" data-name="Path 4393" d="M.787,0H0A2.456,2.456,0,0,1,2.456,2.456V8.462A2.456,2.456,0,0,1,0,10.918H.787A2.456,2.456,0,0,0,3.243,8.462V2.456A2.456,2.456,0,0,0,.787,0Z" fill="#ebe5ed"/>
          </g>
          <g id="Group_4905-3" data-name="Group 4905" transform="translate(5.836 1.974)">
            <path id="Path_4394-3" data-name="Path 4394" d="M.111,4.226v.848A.138.138,0,0,1,0,5.208l.027,0H.76A.138.138,0,0,0,.9,5.074V4.226a.258.258,0,0,1,.174-.243,2.057,2.057,0,0,0,.808-.522,2.033,2.033,0,0,0,.56-1.519A2.056,2.056,0,0,0,.436,0,2.055,2.055,0,0,0,0,.039a2.057,2.057,0,0,1,1.654,1.9A2.033,2.033,0,0,1,1.093,3.46a2.056,2.056,0,0,1-.808.522.258.258,0,0,0-.174.243" transform="translate(0)" fill="#2a9eda"/>
          </g>
          <g id="Group_4906-3" data-name="Group 4906" transform="translate(5.538 8.112)">
            <circle id="Ellipse_355-3" data-name="Ellipse 355" cx="0.575" cy="0.575" r="0.575" fill="#2a9eda"/>
          </g>
          <g id="Group_4907-3" data-name="Group 4907" transform="translate(0 0)">
            <path id="Path_4395-3" data-name="Path 4395" d="M9.264,0H2.958A2.821,2.821,0,0,0,0,2.653V7.321a.209.209,0,0,0,.219.2.209.209,0,0,0,.219-.2V2.653A2.4,2.4,0,0,1,2.958.393H9.264a2.4,2.4,0,0,1,2.519,2.259V4.467a.221.221,0,0,0,.439,0V2.653A2.821,2.821,0,0,0,9.264,0Z" transform="translate(0)" fill="#2a9eda"/>
            <path id="Path_4396-3" data-name="Path 4396" d="M12,0a.209.209,0,0,0-.219.2V3.6A2.4,2.4,0,0,1,9.264,5.861H7.644a.6.6,0,0,0-.541.315L6.251,7.9a.161.161,0,0,1-.28,0l-.852-1.72a.6.6,0,0,0-.541-.315H2.958A2.4,2.4,0,0,1,.439,3.6V3.05a.209.209,0,0,0-.219-.2A.209.209,0,0,0,0,3.05V3.6A2.821,2.821,0,0,0,2.958,6.254h1.62a.155.155,0,0,1,.14.082l.852,1.72a.622.622,0,0,0,1.082,0L7.5,6.336a.155.155,0,0,1,.14-.082h1.62A2.821,2.821,0,0,0,12.222,3.6V.2A.209.209,0,0,0,12,0Z" transform="translate(0 5.057)" fill="#2a9eda"/>
          </g>
        </g>
        <rect id="Rectangle_1832-2" data-name="Rectangle 1832" width="170.922" height="66.232" rx="25" transform="translate(365.346 199.409)" fill="#b3b3b3" opacity="0"/>
        <text id="Withdraw-2" data-name="Withdraw" transform="translate(399.53 237.062)" fill="#fff" font-size="18" font-family="Helvetica-Bold, Helvetica" font-weight="700" opacity="0"><tspan x="0" y="0">Withdraw</tspan></text>
        <g id="Group_6776-2" data-name="Group 6776" transform="translate(365.346 205.106)">
          <rect id="Rectangle_1-2" data-name="Rectangle 1" width="170.922" height="66.944" rx="33.472" transform="translate(0 0)" fill="#2a9dd9"/>
          <path id="Path_13209-2" data-name="Path 13209" d="M4.505,16.645H7.75L10.74,6.35h.123l3,10.294h3.244L21.611.9H17.975L15.368,11.863H15.23L12.362.9H9.249L6.373,11.84H6.243L3.636.9H0Zm18.82,0H26.6V4.836H23.326ZM24.971,3.314a1.725,1.725,0,0,0,1.776-1.661,1.776,1.776,0,0,0-3.544,0A1.723,1.723,0,0,0,24.971,3.314ZM35.5,4.836H33.274V2.007H30V4.836H28.384V7.3H30v6.15c-.015,2.314,1.561,3.46,3.936,3.36a6.371,6.371,0,0,0,1.776-.308L35.2,14.061a4.474,4.474,0,0,1-.815.108c-.653,0-1.107-.246-1.107-1.153V7.3H35.5Zm5.651,4.982A2.2,2.2,0,0,1,43.422,7.4,2.02,2.02,0,0,1,45.529,9.71v6.935H48.8V9.126c.008-2.768-1.622-4.444-4.082-4.444a3.49,3.49,0,0,0-3.529,2.237h-.138V.9H37.871V16.645h3.275Zm14.592,7.019a3.491,3.491,0,0,0,3.352-2.083h.138v1.891h3.229V.9H59.19v5.92h-.1a3.479,3.479,0,0,0-3.36-2.137c-2.591,0-4.782,2.014-4.782,6.074C50.949,14.707,53.048,16.837,55.738,16.837Zm1.038-2.606c-1.607,0-2.483-1.43-2.483-3.49,0-2.045.861-3.452,2.483-3.452,1.591,0,2.483,1.345,2.483,3.452S58.352,14.231,56.776,14.231Zm8.365,2.414h3.275V9.964a2.384,2.384,0,0,1,2.506-2.452,5.509,5.509,0,0,1,1.384.177V4.782a4.916,4.916,0,0,0-1.03-.115A2.869,2.869,0,0,0,68.439,6.9h-.123V4.836H65.141Zm11.886.223a3.626,3.626,0,0,0,3.452-1.861h.092v1.638h3.106V8.68c0-2.814-2.383-4-5.013-4-2.829,0-4.69,1.353-5.143,3.506l3.029.246a1.976,1.976,0,0,1,2.1-1.361c1.115,0,1.753.561,1.753,1.53v.046c0,.761-.807.861-2.86,1.061-2.337.215-4.436,1-4.436,3.636C73.106,15.684,74.774,16.868,77.027,16.868Zm.938-2.26c-1.007,0-1.73-.469-1.73-1.368,0-.923.761-1.376,1.914-1.538a7.876,7.876,0,0,0,2.276-.53v1.253A2.266,2.266,0,0,1,77.965,14.607Zm10.586,2.037h3.46l2.03-7.427h.146l2.03,7.427h3.467l3.206-11.809H99.584l-1.8,7.888h-.1L95.747,4.836H92.5L90.588,12.77h-.108l-1.83-7.934H85.338Z" transform="translate(34.033 25.673)" fill="#fff"/>
        </g>
        <g id="Component_33_2" data-name="Component 33 – 2" transform="translate(35.567 43.3)">
          <path id="Subtraction_9-2" data-name="Subtraction 9" d="M56.562,60.41H3.848A3.852,3.852,0,0,1,0,56.562V3.848A3.852,3.852,0,0,1,3.848,0H56.562A3.852,3.852,0,0,1,60.41,3.848V56.562A3.852,3.852,0,0,1,56.562,60.41ZM25.454,33.354a3.483,3.483,0,0,1,1.373.282,2.83,2.83,0,0,1,.98.9L37.58,47.994a2.242,2.242,0,0,0,1.911,1.082c.051,0,.1,0,.138,0h4.52L33.172,34.124a5.347,5.347,0,0,0-1.684-1.6,14.528,14.528,0,0,0,3.9-1.47A10.873,10.873,0,0,0,38.3,28.7a9.944,9.944,0,0,0,1.24-1.8h4.113V24.452h-3.19a10.9,10.9,0,0,0,.294-2.595c0-.229,0-.465-.013-.7h2.908V18.7H40.347a10.854,10.854,0,0,0-.4-1.17,8.377,8.377,0,0,0-2.507-3.295,11.681,11.681,0,0,0-4.3-2.089,23.218,23.218,0,0,0-5.754-.726c-.139,0-.281,0-.421,0H16.328V49.073H21.4V33.364l3.855,0C25.32,33.356,25.387,33.354,25.454,33.354Zm1.49-3.693h0l-.214,0H21.4V15.449h5.567c.251-.018.506-.027.757-.027a10.7,10.7,0,0,1,5.85,1.735A5.941,5.941,0,0,1,34.931,18.7H26.912v2.45h8.857a5.986,5.986,0,0,1,.024,1.07,7.7,7.7,0,0,1-.3,2.228H26.912V26.9h7.28a6.469,6.469,0,0,1-.7.7,7.943,7.943,0,0,1-2.839,1.523A12.951,12.951,0,0,1,26.944,29.66Z" transform="translate(0 -0.001)" fill="#fff" stroke="rgba(0,0,0,0)" stroke-miterlimit="10" stroke-width="1"/>
        </g>
        <g id="Group_6772-2" data-name="Group 6772" transform="translate(36.305 205.671)">
          <path id="Path_13158-2" data-name="Path 13158" d="M21.516,8.2H17.3A9.159,9.159,0,0,0,16.27,5.126l4.116-.015,1.189-4.7H1.367L0,6.894H5.409A3.889,3.889,0,0,1,8.692,8.2H1.129L0,12.779H9.019a3.705,3.705,0,0,1-3.611,2.259H.654L.594,19.554l9.688,11.293h8.559v-.3L10.4,20.208l.327-.149c3.7-1.679,5.75-3.73,6.434-7.281h3.224ZM45.468,31.263c7.444,0,12.689-3.789,12.66-9.153.03-3.73-2.467-6.36-7.37-6.894v-.238c3.626-.386,6.27-2.719,6.241-6.122C57.028,3.73,52.273,0,45.527,0,38.633,0,33.73,3.938,33.7,9.51h7.9c.03-1.842,1.649-3.15,3.923-3.15,2.08,0,3.536,1.263,3.507,3.031.03,1.842-1.694,3.15-4.16,3.15H41.783v5.706h3.091c2.675,0,4.547,1.308,4.517,3.15.03,1.887-1.575,3.21-3.863,3.21-2.377,0-4.071-1.263-4.1-3.031H33.105C33.135,27.251,38.261,31.263,45.468,31.263Zm29.6.416c8.276.015,13.418-5.914,13.432-15.988C88.514,5.676,83.343,0,75.067,0s-13.4,5.646-13.432,15.691S66.776,31.664,75.067,31.679Zm0-6.716c-2.853,0-4.9-2.868-4.874-9.272.03-6.256,2.021-9.034,4.874-9.034s4.859,2.779,4.874,9.034C79.955,22.1,77.92,24.963,75.067,24.963Zm23.952,1.724H92.838v1.664A36.69,36.69,0,0,1,91,38.276h5.052A31.081,31.081,0,0,0,98.9,28.351ZM116.2,31.679c8.276.015,13.417-5.914,13.432-15.988C129.643,5.676,124.472,0,116.2,0s-13.4,5.646-13.432,15.691S107.9,31.664,116.2,31.679Zm0-6.716c-2.853,0-4.9-2.868-4.874-9.272.03-6.256,2.021-9.034,4.874-9.034s4.859,2.779,4.874,9.034C121.084,22.1,119.049,24.963,116.2,24.963Zm30.55,6.716c8.276.015,13.418-5.914,13.432-15.988C160.193,5.676,155.022,0,146.746,0s-13.4,5.646-13.432,15.691S138.454,31.664,146.746,31.679Zm0-6.716c-2.853,0-4.9-2.868-4.874-9.272.03-6.256,2.021-9.034,4.874-9.034s4.859,2.779,4.874,9.034C151.634,22.1,149.6,24.963,146.746,24.963Zm30.55,6.716c8.276.015,13.417-5.914,13.432-15.988C190.743,5.676,185.572,0,177.3,0s-13.4,5.646-13.432,15.691S169,31.664,177.3,31.679Zm0-6.716c-2.853,0-4.9-2.868-4.874-9.272.03-6.256,2.021-9.034,4.874-9.034s4.859,2.779,4.874,9.034C182.184,22.1,180.148,24.963,177.3,24.963Z" transform="translate(0.892 27.316)" fill="#fff"/>
          <path id="Path_13157-2" data-name="Path 13157" d="M8.559,3.487A3.953,3.953,0,0,0,4.477.178C1.882.178,0,2.179,0,5.389S1.882,10.6,4.477,10.6A3.953,3.953,0,0,0,8.559,7.291H7.33A2.76,2.76,0,0,1,4.477,9.45c-1.842,0-3.289-1.426-3.289-4.061S2.635,1.327,4.477,1.327A2.76,2.76,0,0,1,7.33,3.487ZM15.176,7.35a1.976,1.976,0,0,1-1.961,2.08A1.658,1.658,0,0,1,11.55,7.608V2.853H10.381V7.687c0,1.942,1.03,2.873,2.457,2.873A2.372,2.372,0,0,0,15.1,9.173h.079v1.288h1.169V2.853H15.176Zm3.309,3.11h1.169V5.646a1.8,1.8,0,0,1,1.922-1.783,3.574,3.574,0,0,1,.713.079V2.754c-.134-.01-.441-.02-.614-.02A2.07,2.07,0,0,0,19.693,4h-.079V2.853H18.484Zm5.191,0h1.169V5.646a1.8,1.8,0,0,1,1.922-1.783,3.574,3.574,0,0,1,.713.079V2.754c-.134-.01-.441-.02-.614-.02A2.07,2.07,0,0,0,24.884,4H24.8V2.853H23.675Zm8.143.158A2.959,2.959,0,0,0,34.849,8.7L33.72,8.38a1.862,1.862,0,0,1-1.9,1.189,2.3,2.3,0,0,1-2.372-2.516h5.523v-.5c0-2.833-1.684-3.8-3.269-3.8-2.06,0-3.427,1.625-3.427,3.962S29.619,10.619,31.818,10.619ZM29.445,6.043A2.272,2.272,0,0,1,31.7,3.8a2.062,2.062,0,0,1,2.08,2.239Zm8.474-.158A1.886,1.886,0,0,1,39.861,3.8a1.681,1.681,0,0,1,1.743,1.9v4.755h1.169V5.627c0-1.942-1.035-2.873-2.576-2.873a2.245,2.245,0,0,0-2.219,1.288h-.1V2.853H36.751v7.608H37.92Zm10.3-3.031H46.6V1.03H45.428V2.853H44.279v.991h1.149V8.6a1.946,1.946,0,0,0,2.06,1.961,2.432,2.432,0,0,0,.872-.139l-.238-1.05a2.256,2.256,0,0,1-.515.059c-.515,0-1.01-.158-1.01-1.149V3.843h1.625Zm7.925,7.786A2.39,2.39,0,0,0,58.405,9.43h.059v1.03h1.169V5.448A2.5,2.5,0,0,0,56.82,2.754a3.09,3.09,0,0,0-3.051,1.783l1.109.4A2.056,2.056,0,0,1,56.86,3.784a1.413,1.413,0,0,1,1.6,1.545v.04c0,.565-.575.515-1.961.693-1.412.183-2.952.5-2.952,2.239A2.351,2.351,0,0,0,56.147,10.639Zm.178-1.05c-.931,0-1.6-.416-1.6-1.228,0-.892.812-1.169,1.724-1.288a6.006,6.006,0,0,0,2.021-.436v1.07A1.953,1.953,0,0,1,56.325,9.589ZM67.717,2.853H66.449l-2.1,6.062h-.079l-2.1-6.062H60.9l2.813,7.608H64.9Zm3.546,7.786A2.39,2.39,0,0,0,73.521,9.43h.059v1.03H74.75V5.448a2.5,2.5,0,0,0-2.813-2.694,3.09,3.09,0,0,0-3.051,1.783l1.109.4a2.056,2.056,0,0,1,1.981-1.149,1.413,1.413,0,0,1,1.6,1.545v.04c0,.565-.575.515-1.961.693-1.412.183-2.952.5-2.952,2.239A2.351,2.351,0,0,0,71.263,10.639Zm.178-1.05c-.931,0-1.6-.416-1.6-1.228,0-.892.812-1.169,1.724-1.288a6.006,6.006,0,0,0,2.021-.436v1.07A1.953,1.953,0,0,1,71.441,9.589Zm5.448.872h1.169V2.853H76.889Zm.594-8.876a.817.817,0,0,0,.832-.792.833.833,0,0,0-1.664,0A.817.817,0,0,0,77.484,1.585ZM81.367.317H80.2V10.461h1.169Zm4.378,10.322A2.39,2.39,0,0,0,88,9.43h.059v1.03h1.169V5.448a2.5,2.5,0,0,0-2.813-2.694,3.09,3.09,0,0,0-3.051,1.783l1.109.4a2.056,2.056,0,0,1,1.981-1.149,1.413,1.413,0,0,1,1.6,1.545v.04c0,.565-.575.515-1.961.693-1.412.183-2.952.5-2.952,2.239A2.351,2.351,0,0,0,85.745,10.639Zm.178-1.05c-.931,0-1.6-.416-1.6-1.228,0-.892.812-1.169,1.724-1.288a6.007,6.007,0,0,0,2.021-.436v1.07A1.953,1.953,0,0,1,85.924,9.589Zm5.607.872H92.66V9.292H92.8a2.353,2.353,0,0,0,2.219,1.327c1.9,0,3.229-1.526,3.229-3.943,0-2.4-1.327-3.923-3.249-3.923a2.316,2.316,0,0,0-2.2,1.308h-.1V.317H91.53Zm1.149-3.8c0-1.7.753-2.853,2.179-2.853,1.486,0,2.219,1.248,2.219,2.853,0,1.625-.753,2.912-2.219,2.912C93.452,9.569,92.679,8.38,92.679,6.657ZM101.2.317H100.03V10.461H101.2Zm5.329,10.3A2.959,2.959,0,0,0,109.559,8.7L108.43,8.38a1.862,1.862,0,0,1-1.9,1.189,2.3,2.3,0,0,1-2.372-2.516h5.523v-.5c0-2.833-1.684-3.8-3.269-3.8-2.06,0-3.427,1.625-3.427,3.962S104.329,10.619,106.528,10.619Zm-2.372-4.577A2.272,2.272,0,0,1,106.409,3.8a2.062,2.062,0,0,1,2.08,2.239Zm16.617-1.486a2.564,2.564,0,0,0-2.694-1.8c-1.6,0-2.793.911-2.793,2.2,0,1.05.624,1.753,2.021,2.08l1.268.3c.768.178,1.129.545,1.129,1.07,0,.654-.693,1.189-1.783,1.189a1.6,1.6,0,0,1-1.763-1.228l-1.109.277c.272,1.293,1.337,1.981,2.893,1.981,1.768,0,2.972-.966,2.972-2.278,0-1.06-.664-1.729-2.021-2.06L117.761,6c-.9-.223-1.308-.525-1.308-1.109,0-.654.693-1.129,1.625-1.129a1.6,1.6,0,0,1,1.644,1.09Zm4.141,6.082a2.39,2.39,0,0,0,2.259-1.209h.059v1.03H128.4V5.448a2.5,2.5,0,0,0-2.813-2.694,3.09,3.09,0,0,0-3.051,1.783l1.109.4a2.056,2.056,0,0,1,1.981-1.149,1.413,1.413,0,0,1,1.6,1.545v.04c0,.565-.575.515-1.961.693-1.412.183-2.952.5-2.952,2.239A2.351,2.351,0,0,0,124.913,10.639Zm.178-1.05c-.931,0-1.6-.416-1.6-1.228,0-.892.812-1.169,1.724-1.288a6.006,6.006,0,0,0,2.021-.436v1.07A1.953,1.953,0,0,1,125.091,9.589ZM131.709.317H130.54V10.461h1.169Zm4.378,10.322a2.39,2.39,0,0,0,2.259-1.209h.059v1.03h1.169V5.448a2.5,2.5,0,0,0-2.813-2.694,3.09,3.09,0,0,0-3.051,1.783l1.109.4A2.056,2.056,0,0,1,136.8,3.784a1.413,1.413,0,0,1,1.6,1.545v.04c0,.565-.575.515-1.961.693-1.412.183-2.952.5-2.952,2.239A2.351,2.351,0,0,0,136.087,10.639Zm.178-1.05c-.931,0-1.6-.416-1.6-1.228,0-.892.812-1.169,1.724-1.288a6.006,6.006,0,0,0,2.021-.436v1.07A1.953,1.953,0,0,1,136.265,9.589Zm5.448.872h1.169V5.646A1.8,1.8,0,0,1,144.8,3.863a3.573,3.573,0,0,1,.713.079V2.754c-.134-.01-.441-.02-.614-.02A2.07,2.07,0,0,0,142.922,4h-.079V2.853h-1.129Zm6.181,2.853a2.286,2.286,0,0,0,2.239-1.743l3.239-8.7-1.278-.02-2.1,6.062h-.079l-2.1-6.062h-1.268l2.813,7.647-.218.594c-.426,1.159-.951,1.268-1.8,1.05l-.3,1.03A2.3,2.3,0,0,0,147.895,13.314Z" transform="translate(0 0.63)" fill="#fff"/>
          <g id="question-mark-4" data-name="question-mark" transform="translate(163.05 0)">
            <g id="Group_4902-4" data-name="Group 4902" transform="translate(0.222 0.222)">
              <path id="Path_4391-4" data-name="Path 4391" d="M10.236,0H3.1A2.948,2.948,0,0,0,0,2.769V9.54a2.948,2.948,0,0,0,3.1,2.769H4.933a.427.427,0,0,1,.385.224l.965,1.94a.444.444,0,0,0,.771,0l.965-1.94a.427.427,0,0,1,.385-.224h1.833a2.948,2.948,0,0,0,3.1-2.769V2.769A2.948,2.948,0,0,0,10.236,0Z" transform="translate(0 0)" fill="#f5f5f5"/>
            </g>
            <g id="Group_4903-4" data-name="Group 4903" transform="translate(4.583 2.226)">
              <path id="Path_4392-4" data-name="Path 4392" d="M2.716,5.875H1.889a.155.155,0,0,1-.155-.155V3.774a.289.289,0,0,1,.289-.289H2.3A1.175,1.175,0,0,0,3.475,2.248a1.174,1.174,0,0,0-2.335-.1v0a.189.189,0,0,1-.187.163H.185A.186.186,0,0,1,0,2.108q.005-.06.013-.118a2.311,2.311,0,1,1,3.053,2.5.291.291,0,0,0-.2.274V5.72A.155.155,0,0,1,2.716,5.875Z" transform="translate(0 0)" fill="#2a9eda"/>
            </g>
            <g id="Group_4904-4" data-name="Group 4904" transform="translate(9.902 0.222)">
              <path id="Path_4393-4" data-name="Path 4393" d="M.887,0H0A2.769,2.769,0,0,1,2.769,2.769V9.54A2.769,2.769,0,0,1,0,12.309H.887A2.769,2.769,0,0,0,3.656,9.54V2.769A2.769,2.769,0,0,0,.887,0Z" fill="#ebe5ed"/>
            </g>
            <g id="Group_4905-4" data-name="Group 4905" transform="translate(6.579 2.226)">
              <path id="Path_4394-4" data-name="Path 4394" d="M.125,4.764V5.72A.155.155,0,0,1,0,5.872a.155.155,0,0,0,.03,0H.857a.155.155,0,0,0,.155-.155V4.764a.291.291,0,0,1,.2-.274A2.319,2.319,0,0,0,2.12,3.9a2.292,2.292,0,0,0,.632-1.713A2.318,2.318,0,0,0,.491,0,2.317,2.317,0,0,0,0,.043,2.319,2.319,0,0,1,1.865,2.189,2.292,2.292,0,0,1,1.233,3.9a2.318,2.318,0,0,1-.911.589.291.291,0,0,0-.2.274" transform="translate(0)" fill="#2a9eda"/>
            </g>
            <g id="Group_4906-4" data-name="Group 4906" transform="translate(6.243 9.145)">
              <circle id="Ellipse_355-4" data-name="Ellipse 355" cx="0.649" cy="0.649" r="0.649" fill="#2a9eda"/>
            </g>
            <g id="Group_4907-4" data-name="Group 4907" transform="translate(0 0)">
              <path id="Path_4395-4" data-name="Path 4395" d="M10.445,0H3.335A3.181,3.181,0,0,0,0,2.991V8.253a.236.236,0,0,0,.247.222.236.236,0,0,0,.247-.222V2.991A2.709,2.709,0,0,1,3.335.444h7.11a2.709,2.709,0,0,1,2.84,2.547V5.036a.249.249,0,0,0,.495,0V2.991A3.181,3.181,0,0,0,10.445,0Z" transform="translate(0)" fill="#2a9eda"/>
              <path id="Path_4396-4" data-name="Path 4396" d="M13.532,0a.236.236,0,0,0-.247.222V4.06a2.709,2.709,0,0,1-2.84,2.547H8.618a.675.675,0,0,0-.61.356L7.048,8.9a.181.181,0,0,1-.316,0l-.961-1.94a.675.675,0,0,0-.61-.356H3.335A2.709,2.709,0,0,1,.495,4.06V3.439a.236.236,0,0,0-.247-.222A.236.236,0,0,0,0,3.439V4.06A3.181,3.181,0,0,0,3.335,7.051H5.161a.175.175,0,0,1,.158.092l.961,1.94a.7.7,0,0,0,1.22,0l.961-1.94a.175.175,0,0,1,.158-.092h1.826A3.181,3.181,0,0,0,13.779,4.06V.222A.236.236,0,0,0,13.532,0Z" transform="translate(0 5.702)" fill="#2a9eda"/>
            </g>
          </g>
        </g>
      </g>
    </g>
  </g>
</svg>
