<svg xmlns="http://www.w3.org/2000/svg" xmlns:xlink="http://www.w3.org/1999/xlink" width="460.712" height="450.285" viewBox="0 0 460.712 450.285">
  <defs>
    <filter id="Path_13318" x="0" y="0" width="460.712" height="450.285" filterUnits="userSpaceOnUse">
      <feOffset dy="5" input="SourceAlpha"/>
      <feGaussianBlur stdDeviation="5" result="blur"/>
      <feFlood flood-color="#838383" flood-opacity="0.161"/>
      <feComposite operator="in" in2="blur"/>
      <feComposite in="SourceGraphic"/>
    </filter>
  </defs>
  <g id="Group_6818" data-name="Group 6818" transform="translate(-1096.354 -3454.232)">
    <g transform="matrix(1, 0, 0, 1, 1096.35, 3454.23)" filter="url(#Path_13318)">
      <path id="Path_13318-2" data-name="Path 13318" d="M10,0H420.712a10,10,0,0,1,10,10V410.285a10,10,0,0,1-10,10H10a10,10,0,0,1-10-10V10A10,10,0,0,1,10,0Z" transform="translate(15 10)" fill="#fff"/>
    </g>
    <g id="Group_6816" data-name="Group 6816" transform="translate(1228.229 3503.253)">
      <g id="Group_6815" data-name="Group 6815" transform="translate(0 0)">
        <g id="Character" transform="translate(84.891)">
          <g id="Group_6811" data-name="Group 6811" transform="translate(0)">
            <g id="Group_6808" data-name="Group 6808" transform="translate(0)">
              <path id="Path_13239" data-name="Path 13239" d="M283.555,111.981c-4.424-5.961-3.381-11.16-.018-14.9,4.221-4.7,11.11-4.657,15.7-2.262,7.186,3.748,8.737,20.174-3.27,22.5A97.114,97.114,0,0,1,283.555,111.981Z" transform="translate(-231.583 -83.77)" fill="#263238"/>
              <path id="Path_13240" data-name="Path 13240" d="M304.115,92.422c4.387-2.59,3.172-7.613,7.152-10.253,5.53-3.668,17.452-2.078,13.723,7.092s9.568,9.7,5.686,18.81-15.039,14.692-17.913,1.487c-2.153-9.9,6.986-22.646-.389-21.275-4.606.855-6.134,5.584-6.134,5.584Z" transform="translate(-237.844 -80.338)" fill="#263238"/>
              <path id="Path_13241" data-name="Path 13241" d="M277.59,148.193c-.6,1.671-1.257,3.182-1.954,4.742s-1.464,3.064-2.276,4.57a39.443,39.443,0,0,1-6.066,8.7,16.316,16.316,0,0,1-2.25,1.948,15.711,15.711,0,0,1-2.551,1.444,27.033,27.033,0,0,1-5.11,1.7,43.255,43.255,0,0,1-10.2,1.106,1.589,1.589,0,0,1-.369-3.132l.071-.017a77.235,77.235,0,0,0,9.044-2.728,27.331,27.331,0,0,0,4.022-1.88,12.9,12.9,0,0,0,1.629-1.124,10.693,10.693,0,0,0,1.365-1.365,27.065,27.065,0,0,0,2.545-3.565c.789-1.3,1.554-2.646,2.257-4.042,1.394-2.777,2.715-5.736,3.855-8.582l.018-.047a3.193,3.193,0,0,1,5.967,2.271Z" transform="translate(-222.258 -97.273)" fill="#b55b52"/>
              <path id="Path_13242" data-name="Path 13242" d="M284.486,142.325c-6.058.7-9.4,9.784-9.4,9.784l6.2,8.743s7.366-8.313,7.978-12.023C289.91,144.968,288.974,141.81,284.486,142.325Z" transform="translate(-230.112 -96.835)" fill="#204866"/>
              <path id="Path_13243" data-name="Path 13243" d="M282.385,149.7c2.032-1.274,4.248-.575,6.135,1.8a6.479,6.479,0,0,1,.767,2.206c-1.83,3.325-6.781,8.956-6.781,8.956l-2.84-4C279.447,156.3,281.074,150.517,282.385,149.7Z" transform="translate(-231.326 -98.647)" opacity="0.2"/>
              <path id="Path_13244" data-name="Path 13244" d="M247.536,178.105,243,175.639l-.121,5.96s3.046.659,5.069-.968Z" transform="translate(-221.531 -105.723)" fill="#b55b52"/>
              <path id="Path_13245" data-name="Path 13245" d="M236.751,175.844l.8,4.863,3.69.892.121-5.96Z" transform="translate(-219.9 -105.723)" fill="#b55b52"/>
              <g id="Group_6806" data-name="Group 6806" transform="translate(0 50.057)">
                <g id="Group_6805" data-name="Group 6805" transform="translate(0 0)">
                  <g id="Group_6803" data-name="Group 6803" transform="translate(8.587 6.061)">
                    <path id="Path_13246" data-name="Path 13246" d="M256.786,160.117l-4.009-3.285-27.291,41,4.009,3.285c4.6,3.772,14.444-2.349,21.981-13.671S261.39,163.889,256.786,160.117Z" transform="translate(-225.486 -156.832)" fill="#127db5"/>
                    <path id="Path_13247" data-name="Path 13247" d="M256.786,160.117l-4.009-3.285-27.291,41,4.009,3.285c4.6,3.772,14.444-2.349,21.981-13.671S261.39,163.889,256.786,160.117Z" transform="translate(-225.486 -156.832)" fill="#127db5"/>
                  </g>
                  <path id="Path_13327" data-name="Path 13327" d="M24.655,0C38.271,0,49.31,4.8,49.31,10.71s-11.038,10.71-24.655,10.71S0,16.625,0,10.71,11.038,0,24.655,0Z" transform="translate(0 41.671) rotate(-57.681)" fill="#2a9eda"/>
                  <path id="Path_13249" data-name="Path 13249" d="M251.879,171.489c.541-3.6.023-6.476-1.706-7.892-3.75-3.072-11.766,1.914-17.9,11.136a39.781,39.781,0,0,0-5.661,12.465,37.418,37.418,0,0,1,6.033-14.378c6.138-9.222,14.155-14.209,17.9-11.137C252.57,163.343,252.937,167.012,251.879,171.489Z" transform="translate(-217.198 -151.822)" fill="#2a9eda" opacity="0.1"/>
                </g>
              </g>
              <path id="Path_13250" data-name="Path 13250" d="M330.175,356.6l-6.162.59-3.14-14.359,6.162-.59Z" transform="translate(-242.308 -150.101)" fill="#b55b52"/>
              <path id="Path_13251" data-name="Path 13251" d="M376.252,344.766l-5.724,2.244L365,333.4l5.724-2.243Z" transform="translate(-254.063 -147.148)" fill="#b55b52"/>
              <path id="Path_13252" data-name="Path 13252" d="M367.683,347.775l6.282-3.125a.494.494,0,0,1,.636.16l3.188,4.614a1,1,0,0,1-.4,1.441c-2.209,1.051-3.169,1.579-5.931,2.953-1.7.845-5.495,2.834-7.842,4-2.3,1.142-3.626-1.091-2.754-1.788,3.914-3.122,5.2-5.474,6.059-7.448A1.628,1.628,0,0,1,367.683,347.775Z" transform="translate(-252.887 -150.729)" fill="#204866"/>
              <path id="Path_13253" data-name="Path 13253" d="M319.5,358.246H326.9a.614.614,0,0,1,.585.451l1.611,5.862a.916.916,0,0,1-.9,1.173c-2.589-.045-3.83.012-7.089.012h-9.944c-2.707,0-3.3-2.736-2.185-2.984,5.022-1.112,7.918-2.645,9.467-4.107A1.524,1.524,0,0,1,319.5,358.246Z" transform="translate(-238.997 -154.365)" fill="#204866"/>
              <path id="Path_13254" data-name="Path 13254" d="M320.876,342.832l1.617,7.4h6.293l-1.746-7.991Z" transform="translate(-242.308 -150.102)" opacity="0.2"/>
              <path id="Path_13255" data-name="Path 13255" d="M370.731,331.156,365,333.4l2.85,7.016,5.727-2.244Z" transform="translate(-254.063 -147.149)" opacity="0.2"/>
              <path id="Path_13256" data-name="Path 13256" d="M305,133.872c4.9-.57,8.108,1.764,8.292,6.659.647,17.247,2.55,21.218,5.433,30.134l-24.435,6.8c-8.687-18.807-11.723-27.682-12.708-31.854a4.533,4.533,0,0,1,2.359-4.95A56.706,56.706,0,0,1,305,133.872Z" transform="translate(-231.81 -94.575)" fill="#204866"/>
              <path id="Path_13257" data-name="Path 13257" d="M300.785,118.14c.294,3.765,1.271,10.31,4.432,12,0,0-.461,2.32-8.557,10.078-4.995-4.213-2.443-7.037-2.443-7.037,3.716-2.059,2.841-4.745,1.376-7.326Z" transform="translate(-235.033 -90.407)" fill="#b55b52"/>
              <path id="Path_13258" data-name="Path 13258" d="M300.958,119.286a15.542,15.542,0,0,1,.222,6.54c-.28,1.492-1.879,2.582-3.665,3.221a10.118,10.118,0,0,0-1.183-2.891Z" transform="translate(-235.77 -90.712)" opacity="0.2"/>
              <path id="Path_13259" data-name="Path 13259" d="M299.23,105.934c1.2,6.081,1.837,8.629-.382,12.492-3.337,5.811-11.068,5.954-14.06.354-2.693-5.041-4.2-14.138,1.033-18.053A8.453,8.453,0,0,1,299.23,105.934Z" transform="translate(-232.04 -85.309)" fill="#b55b52"/>
              <path id="Path_13260" data-name="Path 13260" d="M308.213,112.811a4.53,4.53,0,0,1-.836,3.357c-.954,1.27-2.393.65-2.935-.754-.487-1.264-.578-3.448.767-4.217A2.035,2.035,0,0,1,308.213,112.811Z" transform="translate(-237.844 -88.486)" fill="#b55b52"/>
              <path id="Path_13261" data-name="Path 13261" d="M298.088,103.048c-.224,2.331,1.641,6.3,5.136,7.226,3.627-4.165,1.236-9.876-2.092-10S298.088,103.048,298.088,103.048Z" transform="translate(-236.234 -85.648)" fill="#263238"/>
              <path id="Path_13262" data-name="Path 13262" d="M287.994,95.412c-5.352.245-11.088,2.629-9.1,11,4.667-.975,17.648-2.426,18.65-5.758C296.231,96.38,291.494,95.251,287.994,95.412Z" transform="translate(-231.018 -84.349)" fill="#263238"/>
              <g id="Group_6807" data-name="Group 6807" transform="translate(62.232 77.912)">
                <path id="Path_13263" data-name="Path 13263" d="M298.853,191.52s-1.41,49.363,2.545,68c4.113,19.382,13.408,47.087,13.408,47.087l8.729-.566s-5.635-36.216-7.371-51.159c-2.393-20.6.582-68.341.582-68.341Z" transform="translate(-298.609 -186.539)" fill="#2a9eda"/>
                <path id="Path_13264" data-name="Path 13264" d="M315.607,213.345c.393-4.477,3.767-3.622,4.524,2.439-.332,9.531-.563,20.608-.373,30.3C316.115,238.977,314.7,223.527,315.607,213.345Z" transform="translate(-303.066 -192.926)" fill="#227faf" opacity="0.75"/>
              </g>
              <path id="Path_13265" data-name="Path 13265" d="M329.754,348.212l-10.511.711-1.461-4.929,11.373-1.2Z" transform="translate(-241.484 -150.248)" fill="#204866"/>
              <path id="Path_13266" data-name="Path 13266" d="M310.69,188.459s7.44,41.378,17.542,63.642c8.159,17.982,22.941,46.951,22.941,46.951l8.019-3s-12.541-32.888-17.07-45.543c-11.293-31.548-5.149-50.691-15.615-66.458Z" transform="translate(-239.595 -107.965)" fill="#2a9eda"/>
              <path id="Path_13267" data-name="Path 13267" d="M373.775,336.22l-9.256,3.217-2.633-4.735,11.011-2.733Z" transform="translate(-253.232 -147.365)" fill="#204866"/>
              <path id="Path_13268" data-name="Path 13268" d="M322.929,181.928l1.71,1.88c.133.146-.02.375-.3.453L298.711,191.4c-.22.062-.433,0-.485-.13l-.83-2.126c-.057-.147.1-.329.339-.4l24.745-6.888A.461.461,0,0,1,322.929,181.928Z" transform="translate(-236.051 -107.373)" fill="#263238"/>
              <path id="Path_13269" data-name="Path 13269" d="M328.213,185.816l.662-.184c.132-.037.213-.133.181-.213l-1.1-2.755c-.032-.081-.167-.117-.3-.08l-.662.184c-.132.037-.213.133-.181.214l1.1,2.755C327.947,185.818,328.081,185.854,328.213,185.816Z" transform="translate(-243.888 -107.569)" fill="#2a9eda"/>
              <path id="Path_13270" data-name="Path 13270" d="M301.311,193.306l.662-.185c.132-.037.214-.133.181-.213l-1.1-2.755c-.032-.081-.167-.117-.3-.08l-.662.184c-.132.037-.214.133-.181.213l1.1,2.756C301.045,193.307,301.179,193.343,301.311,193.306Z" transform="translate(-236.722 -109.564)" fill="#2a9eda"/>
              <path id="Path_13271" data-name="Path 13271" d="M314.762,189.561l.662-.185c.132-.037.214-.133.181-.213l-1.1-2.756c-.032-.081-.167-.117-.3-.08l-.663.185c-.132.037-.213.133-.181.213l1.1,2.755C314.5,189.562,314.63,189.6,314.762,189.561Z" transform="translate(-240.305 -108.567)" fill="#2a9eda"/>
              <path id="Path_13279" data-name="Path 13279" d="M306.593,148.611c-1.9,3.937-3.888,7.794-5.975,11.632-1.039,1.918-2.081,3.839-3.195,5.735s-2.224,3.792-3.51,5.693c-.3.469-.676.966-1.026,1.45l-.133.182-.07.095-.112.139a6.6,6.6,0,0,1-.456.51,8.62,8.62,0,0,1-.9.788,15.652,15.652,0,0,1-3.423,1.9,42.927,42.927,0,0,1-6.57,2.07,90.706,90.706,0,0,1-13.106,2.044l-.5-3.123c2.049-.541,4.134-1.111,6.178-1.707s4.08-1.224,6.06-1.918a45.952,45.952,0,0,0,5.646-2.317,11.369,11.369,0,0,0,2.164-1.386,2.744,2.744,0,0,0,.3-.3.788.788,0,0,0,.074-.1l.158-.244c.26-.409.524-.789.785-1.246,1.044-1.749,2.071-3.625,3.067-5.508l2.975-5.7,5.844-11.506Z" transform="translate(-228.121 -97.772)" fill="#b55b52"/>
              <path id="Path_13280" data-name="Path 13280" d="M268.754,188.775l-4.326-1.66.367,6.1s3.4-.016,4.965-2.085Z" transform="translate(-227.272 -108.78)" fill="#b55b52"/>
              <path id="Path_13281" data-name="Path 13281" d="M259.462,187.293l-.922,4.485,4.687,1.433-.366-6.1Z" transform="translate(-225.704 -108.78)" fill="#b55b52"/>
              <path id="Path_13282" data-name="Path 13282" d="M311.6,138.071c-2.414,1.108-5.212,11.136-5.212,11.136l10.455,1.212s2.021-4.873,1.613-7.372C317.8,139.024,314.358,136.807,311.6,138.071Z" transform="translate(-238.45 -95.622)" fill="#204866"/>
              <path id="Path_13283" data-name="Path 13283" d="M365.97,350.961a1.189,1.189,0,0,1-.1-.22.5.5,0,0,1,.079-.5c.5-.618,2.747-.367,3-.337a.146.146,0,0,1,.124.1.148.148,0,0,1-.047.156c-.639.531-1.825,1.39-2.587,1.173A.779.779,0,0,1,365.97,350.961Zm2.59-.8c-.9-.074-2.114-.06-2.38.265a.21.21,0,0,0-.026.223.557.557,0,0,0,.37.4C366.934,351.169,367.683,350.838,368.56,350.16Z" transform="translate(-254.285 -152.122)" fill="#2a9eda"/>
              <path id="Path_13284" data-name="Path 13284" d="M366.721,348.283a.662.662,0,0,1-.071-.166.514.514,0,0,1,.262-.591.77.77,0,0,1,.648-.1c.875.236,1.684,1.843,1.718,1.911a.149.149,0,0,1-.141.214A3.918,3.918,0,0,1,366.721,348.283Zm2.131.888c-.3-.523-.861-1.324-1.369-1.461a.475.475,0,0,0-.409.064c-.159.1-.159.2-.139.266.114.42,1.2,1.012,1.942,1.173Z" transform="translate(-254.496 -151.474)" fill="#2a9eda"/>
              <path id="Path_13285" data-name="Path 13285" d="M318.367,359.344a2.461,2.461,0,0,1-1.446-.346.923.923,0,0,1-.376-.712.427.427,0,0,1,.186-.4c.671-.456,3.195.69,3.694.925a.148.148,0,0,1-.031.278A9.868,9.868,0,0,1,318.367,359.344Zm-1.18-1.278a.531.531,0,0,0-.29.063.136.136,0,0,0-.056.141.628.628,0,0,0,.259.492,4.121,4.121,0,0,0,2.785.127A9.194,9.194,0,0,0,317.187,358.066Z" transform="translate(-241.154 -154.24)" fill="#2a9eda"/>
              <path id="Path_13286" data-name="Path 13286" d="M320.845,358.55a.151.151,0,0,1-.056-.011c-.836-.343-2.522-1.694-2.428-2.393.02-.153.125-.345.506-.391,1.465-.176,2.1,2.5,2.122,2.614a.148.148,0,0,1-.145.181ZM319,356.043a.938.938,0,0,0-.1.006c-.155.019-.239.065-.249.137-.054.406,1.111,1.474,1.962,1.942C320.422,357.481,319.889,356.043,319,356.043Z" transform="translate(-241.638 -153.699)" fill="#2a9eda"/>
            </g>
            <g id="Group_6810" data-name="Group 6810" transform="translate(55.024 211.378)">
              <path id="Rectangle_1870" data-name="Rectangle 1870" d="M1.418,0H40.8a1.418,1.418,0,0,1,1.418,1.418V4.427a0,0,0,0,1,0,0H0a0,0,0,0,1,0,0V1.418A1.418,1.418,0,0,1,1.418,0Z" transform="translate(4.712)" fill="#6b6b6b"/>
              <rect id="Rectangle_1871" data-name="Rectangle 1871" width="42.221" height="4.427" transform="translate(5.073 15.651)" fill="#6b6b6b"/>
              <rect id="Rectangle_1872" data-name="Rectangle 1872" width="27.914" height="4.427" transform="translate(19.38 15.651)" fill="#6b6b6b" opacity="0.5"/>
              <path id="Path_13288" data-name="Path 13288" d="M317.425,374.5l-4.751,29.744a1.04,1.04,0,0,1-1.027.876h-2.32a1.04,1.04,0,0,1-1.027-1.2L313,374.5Z" transform="translate(-293.979 -370.073)" fill="#6b6b6b"/>
              <path id="Path_13289" data-name="Path 13289" d="M319,374.5l-.361,2.262h-4.427l.361-2.262Z" transform="translate(-295.558 -370.073)" fill="#6b6b6b" opacity="0.5"/>
              <path id="Path_13290" data-name="Path 13290" d="M297.923,374.5l-4.751,29.744a1.04,1.04,0,0,1-1.027.876h-2.32a1.04,1.04,0,0,1-1.027-1.2l4.7-29.415Z" transform="translate(-288.784 -370.073)" fill="#6b6b6b"/>
              <path id="Path_13291" data-name="Path 13291" d="M355.849,403.915l-4.7-29.415h-4.427l4.75,29.744a1.04,1.04,0,0,0,1.027.876h2.32A1.041,1.041,0,0,0,355.849,403.915Z" transform="translate(-304.217 -370.073)" fill="#6b6b6b"/>
              <path id="Path_13292" data-name="Path 13292" d="M351.511,376.762l-.361-2.262h-4.427l.361,2.262Z" transform="translate(-304.217 -370.073)" fill="#6b6b6b" opacity="0.5"/>
              <g id="Group_6809" data-name="Group 6809" transform="translate(28.199 4.427)">
                <path id="Path_13293" data-name="Path 13293" d="M336.346,403.915l-4.7-29.415h-4.427l4.751,29.744a1.04,1.04,0,0,0,1.027.876h2.32A1.041,1.041,0,0,0,336.346,403.915Z" transform="translate(-327.221 -374.5)" fill="#6b6b6b"/>
                <path id="Path_13294" data-name="Path 13294" d="M336.346,403.915l-4.7-29.415h-4.427l4.751,29.744a1.04,1.04,0,0,0,1.027.876h2.32A1.041,1.041,0,0,0,336.346,403.915Z" transform="translate(-327.221 -374.5)" fill="#6b6b6b" opacity="0.5"/>
              </g>
              <path id="Rectangle_1873" data-name="Rectangle 1873" d="M0,0H26.5a1.418,1.418,0,0,1,1.418,1.418V4.427a0,0,0,0,1,0,0H0a0,0,0,0,1,0,0V0A0,0,0,0,1,0,0Z" transform="translate(19.019)" fill="#6b6b6b" opacity="0.5"/>
            </g>
          </g>
        </g>
        <g id="Piggy_Bank" data-name="Piggy Bank" transform="translate(0 107.49)">
          <g id="Group_6814" data-name="Group 6814">
            <g id="Group_6812" data-name="Group 6812" transform="translate(18.216 105.69)">
              <path id="Path_13295" data-name="Path 13295" d="M139.682,400.125l5.882-10.783-21.019-18.42-1.648,29.2Z" transform="translate(-122.897 -370.922)" fill="#fe7062"/>
              <path id="Path_13296" data-name="Path 13296" d="M139.682,400.125l5.882-10.783-21.019-18.42-1.648,29.2Z" transform="translate(-122.897 -370.922)" fill="#fe7062" opacity="0.1"/>
            </g>
            <path id="Path_13297" data-name="Path 13297" d="M244.522,240.861c11.789-8.07,21.662-7.242,24.946-4.891s-7.142,20.24-7.142,20.24A28.235,28.235,0,0,1,244.522,240.861Z" transform="translate(-137.079 -228.853)" fill="#fe7062"/>
            <path id="Path_13298" data-name="Path 13298" d="M252.174,251.443c6.635-6.521,13.406-8.615,15.243-7.523s-4.058,13.665-4.058,13.665S255.4,258.731,252.174,251.443Z" transform="translate(-139.117 -231.329)" opacity="0.2"/>
            <path id="Path_13299" data-name="Path 13299" d="M104.65,273.835l-.67-.34a67.727,67.727,0,0,1,6.476-10.317l.6.454A67.062,67.062,0,0,0,104.65,273.835Z" transform="translate(-99.642 -236.532)" fill="#fe7062"/>
            <path id="Path_13300" data-name="Path 13300" d="M99.867,287.131l-.711-.244c.56-1.635,1.194-3.27,1.884-4.856l.69.3C101.047,283.9,100.421,285.515,99.867,287.131Z" transform="translate(-98.357 -241.554)" fill="#fe7062"/>
            <path id="Path_13301" data-name="Path 13301" d="M236.752,292.806c0,36.422-27.42,65.948-67.007,65.948s-71.678-29.526-71.678-65.948,32.091-65.949,71.678-65.949S236.752,256.383,236.752,292.806Z" transform="translate(-98.067 -226.857)" fill="#fe7062"/>
            <path id="Path_13302" data-name="Path 13302" d="M181.709,397.119l-2.868,6q3.115.506,6.313.75Z" transform="translate(-119.583 -272.21)" opacity="0.1"/>
            <path id="Path_13303" data-name="Path 13303" d="M169.024,407.355l8.242-14.826-26.374-9.638-3.372,24.464Z" transform="translate(-111.24 -268.42)" fill="#fe7062"/>
            <path id="Path_13304" data-name="Path 13304" d="M226.6,407.355l-7.145-14.826,25.108-9.638,1.668,24.464Z" transform="translate(-130.401 -268.42)" fill="#fe7062"/>
            <g id="Group_6813" data-name="Group 6813" transform="translate(57.103 38.451)">
              <path id="Path_13305" data-name="Path 13305" d="M239.68,323.26c0,9.857-8.718,17.848-19.431,17.848s-19.4-7.991-19.4-17.848,8.685-17.847,19.4-17.847S239.68,313.4,239.68,323.26Z" transform="translate(-182.548 -286.233)" opacity="0.2"/>
              <ellipse id="Ellipse_525" data-name="Ellipse 525" cx="3.297" cy="6.136" rx="3.297" ry="6.136" transform="translate(27.964 30.598)" opacity="0.2"/>
              <path id="Path_13306" data-name="Path 13306" d="M183.6,283c.947,2.887.076,6.03-1.944,7.022s-4.426-.546-5.373-3.432-.077-6.03,1.944-7.021S182.656,280.115,183.6,283Z" transform="translate(-175.903 -279.269)" opacity="0.4"/>
              <path id="Path_13307" data-name="Path 13307" d="M255.949,283.161c-.72,2.886.17,5.994,1.987,6.941s3.873-.624,4.592-3.51-.169-5.994-1.986-6.942S256.669,280.275,255.949,283.161Z" transform="translate(-197.159 -279.297)" opacity="0.4"/>
              <ellipse id="Ellipse_526" data-name="Ellipse 526" cx="3.297" cy="6.136" rx="3.297" ry="6.136" transform="translate(45.486 30.598)" opacity="0.2"/>
            </g>
            <path id="Path_13308" data-name="Path 13308" d="M156.653,238.659c-12.775-10.577-24.176-11.4-28.16-9.478s6.319,22.665,6.319,22.665S148.824,251.022,156.653,238.659Z" transform="translate(-105.928 -227.258)" fill="#fe7062"/>
            <path id="Path_13309" data-name="Path 13309" d="M151.129,248.89c-7.008-8.05-14.579-11.434-16.787-10.593s3.39,15.171,3.39,15.171S146.753,256.052,151.129,248.89Z" transform="translate(-107.592 -229.871)" opacity="0.2"/>
            <path id="Path_13310" data-name="Path 13310" d="M197.64,233.388h10.794s-2.35-2.58-10.313-3.365a49.96,49.96,0,0,0-13.5.734S193.513,230.56,197.64,233.388Z" transform="translate(-121.123 -227.651)" opacity="0.4"/>
          </g>
        </g>
      </g>
    </g>
    <g id="Group_6817" data-name="Group 6817" transform="translate(1163.157 3772.125)">
      <g id="Group_6800" data-name="Group 6800" transform="translate(0)">
        <g id="Group_6144" data-name="Group 6144" transform="translate(0)">
          <rect id="Rectangle_1736" data-name="Rectangle 1736" width="340.593" height="72.415" rx="8" fill="#2a9eda"/>
          <g id="Group_6142" data-name="Group 6142" transform="translate(39.354 14.496)">
            <path id="Path_13238" data-name="Path 13238" d="M-78.446-10.093h4.42V2.453h1.7V-10.093h4.42V-11.6H-78.446Zm15.7,12.766c2.855,0,4.777-2.169,4.777-5.436,0-3.294-1.922-5.463-4.777-5.463s-4.777,2.169-4.777,5.463C-67.519.5-65.6,2.673-62.743,2.673Zm0-1.455c-2.169,0-3.157-1.867-3.157-3.981s.988-4.008,3.157-4.008,3.157,1.894,3.157,4.008S-60.574,1.218-62.743,1.218ZM-50.91-8.089h-2.251v-2.526h-1.62v2.526h-1.592v1.373h1.592V-.128A2.7,2.7,0,0,0-51.926,2.59,3.37,3.37,0,0,0-50.718,2.4L-51.047.943a3.127,3.127,0,0,1-.714.082c-.714,0-1.4-.22-1.4-1.592v-6.15h2.251ZM-45.364,2.7a3.312,3.312,0,0,0,3.13-1.675h.082V2.453h1.62V-4.493c0-3.349-2.553-3.734-3.9-3.734a4.282,4.282,0,0,0-4.228,2.471l1.537.549A2.849,2.849,0,0,1-44.376-6.8a1.958,1.958,0,0,1,2.224,2.141V-4.6c0,.782-.8.714-2.718.961-1.956.254-4.091.686-4.091,3.1C-48.961,1.52-47.368,2.7-45.364,2.7Zm.247-1.455c-1.29,0-2.224-.577-2.224-1.7,0-1.235,1.126-1.62,2.388-1.784.686-.082,2.526-.275,2.8-.6v1.483A2.706,2.706,0,0,1-45.117,1.245Zm9.17-12.848h-1.62V2.453h1.62Zm15.868,5.875a3.553,3.553,0,0,0-3.734-2.5c-2.224,0-3.871,1.263-3.871,3.047,0,1.455.865,2.43,2.8,2.883l1.757.412c1.064.247,1.565.755,1.565,1.483,0,.906-.961,1.647-2.471,1.647a2.224,2.224,0,0,1-2.443-1.7l-1.537.384c.377,1.791,1.853,2.745,4.008,2.745,2.45,0,4.118-1.338,4.118-3.157,0-1.469-.92-2.4-2.8-2.855l-1.565-.384c-1.249-.309-1.812-.728-1.812-1.537,0-.906.961-1.565,2.251-1.565a2.217,2.217,0,0,1,2.279,1.51ZM-14.342,2.7a3.312,3.312,0,0,0,3.13-1.675h.082V2.453h1.62V-4.493c0-3.349-2.553-3.734-3.9-3.734a4.282,4.282,0,0,0-4.228,2.471l1.537.549A2.849,2.849,0,0,1-13.353-6.8,1.958,1.958,0,0,1-11.13-4.657V-4.6c0,.782-.8.714-2.718.961-1.956.254-4.091.686-4.091,3.1C-17.938,1.52-16.346,2.7-14.342,2.7Zm.247-1.455c-1.29,0-2.224-.577-2.224-1.7,0-1.235,1.126-1.62,2.388-1.784.686-.082,2.526-.275,2.8-.6v1.483A2.706,2.706,0,0,1-14.095,1.245ZM1.691-8.089H-.066l-2.91,8.4h-.11L-6-8.089H-7.753l3.9,10.542h1.647ZM7.868,2.673A4.1,4.1,0,0,0,12.069.01L10.5-.43A2.581,2.581,0,0,1,7.868,1.218c-1.9,0-3.212-1.229-3.288-3.487h7.653v-.686c0-3.926-2.334-5.271-4.53-5.271-2.855,0-4.749,2.251-4.749,5.491S4.821,2.673,7.868,2.673ZM4.581-3.669A3.148,3.148,0,0,1,7.7-6.771a2.858,2.858,0,0,1,2.883,3.1Zm14.1,6.342A3.261,3.261,0,0,0,21.76.833h.192v1.62h1.565V-11.6H21.9v5.189H21.76a3.209,3.209,0,0,0-3.047-1.812c-2.663,0-4.5,2.114-4.5,5.436C14.21.559,16.05,2.673,18.685,2.673Zm.22-1.455c-2.032,0-3.075-1.784-3.075-4.036,0-2.224,1.016-3.953,3.075-3.953,1.977,0,3.02,1.592,3.02,3.953C21.925-.43,20.854,1.218,18.9,1.218ZM31.877,2.453h2.972V-2.53h2.169L39.68,2.453h3.281L39.976-3.01a4.052,4.052,0,0,0,2.485-4c0-2.793-1.846-4.592-5.038-4.592H31.877Zm2.972-7.371V-9.174h2c1.716,0,2.546.762,2.546,2.162s-.83,2.093-2.533,2.093Zm18.428-.165c-.261-1.942-1.826-3.143-4.489-3.143-2.7,0-4.475,1.249-4.468,3.281-.007,1.579.988,2.6,3.047,3.013l1.826.364c.92.185,1.338.522,1.352,1.05C50.532.106,49.852.552,48.829.552a1.714,1.714,0,0,1-1.915-1.3L44.039-.6c.275,2.018,1.99,3.26,4.784,3.26,2.732,0,4.688-1.393,4.695-3.473-.007-1.524-1-2.437-3.047-2.855l-1.908-.384c-.981-.213-1.345-.549-1.338-1.057-.007-.631.707-1.043,1.613-1.043A1.647,1.647,0,0,1,50.6-4.918Zm3.8,7.714A1.67,1.67,0,0,0,58.72.984,1.667,1.667,0,0,0,57.072-.649a1.64,1.64,0,1,0,0,3.281ZM71.026-11.6H68.232l-3.48,2.2v2.636l3.219-2.018h.082V2.453h2.972ZM74.368,2.453H84.389V.023h-5.9v-.1l2.052-2.011C83.428-4.719,84.2-6.037,84.2-7.636c0-2.437-1.99-4.159-5-4.159-2.951,0-4.976,1.764-4.969,4.523h2.821a2,2,0,0,1,2.128-2.169,1.981,1.981,0,0,1,2.155,2c0,1.119-.686,1.887-1.963,3.116l-5,4.633Zm17.687.309c3.535,0,5.669-2.69,5.676-7.323.007-4.6-2.155-7.234-5.676-7.234s-5.669,2.629-5.676,7.234S88.514,2.755,92.055,2.762Zm0-2.464c-1.613,0-2.656-1.62-2.649-4.859.007-3.191,1.043-4.8,2.649-4.8S94.7-7.753,94.7-4.561C94.7-1.322,93.661.3,92.055.3Zm13.3,2.464c3.535,0,5.669-2.69,5.676-7.323.007-4.6-2.155-7.234-5.676-7.234s-5.669,2.629-5.676,7.234S101.815,2.755,105.357,2.762Zm0-2.464c-1.613,0-2.656-1.62-2.649-4.859.007-3.191,1.043-4.8,2.649-4.8S108-7.753,108-4.561C108.006-1.322,106.963.3,105.357.3Z" transform="translate(144.686 27.746)" fill="#fff"/>
            <g id="smile" transform="translate(0)">
              <path id="Path_13328" data-name="Path 13328" d="M21.81,0A21.81,21.81,0,0,1,43.62,21.81c0,.867-.186,2.86-.186,2.86S32.988,43.62,21.81,43.62A21.81,21.81,0,1,1,21.81,0Z" transform="translate(0.617 0.661)" fill="#47b5ef"/>
              <path id="Path_12766" data-name="Path 12766" d="M13.777,29.31A21.817,21.817,0,0,1,32.2,7.762,21.811,21.811,0,1,0,28.81,51.12a22,22,0,0,0,3.39-.262A21.817,21.817,0,0,1,13.777,29.31Z" transform="translate(-6.383 -6.839)" fill="#2a9eda"/>
              <g id="Group_6134" data-name="Group 6134">
                <path id="Path_12767" data-name="Path 12767" d="M68.467,366.4a.661.661,0,0,0-.91.214,21.155,21.155,0,0,1-36.608-1.058.661.661,0,1,0-1.162.629,22.472,22.472,0,0,0,38.894,1.124A.661.661,0,0,0,68.467,366.4Z" transform="translate(-27.09 -333.028)" fill="#1e4866"/>
                <path id="Path_12768" data-name="Path 12768" d="M2.718,114.18A21.169,21.169,0,0,1,6,93.344a.661.661,0,0,0-1.029-.83,22.491,22.491,0,0,0-3.487,22.138.661.661,0,0,0,1.234-.473Z" transform="translate(0 -84.139)" fill="#1e4866"/>
                <path id="Path_12769" data-name="Path 12769" d="M108.023,6.582A22.47,22.47,0,0,0,76.6,6.237a.661.661,0,0,0,.914.955,21.154,21.154,0,0,1,33.9,23.98.661.661,0,1,0,1.2.544,22.491,22.491,0,0,0-4.6-25.134Z" transform="translate(-69.663 0)" fill="#1e4866"/>
                <path id="Path_12770" data-name="Path 12770" d="M157.84,297.432a.661.661,0,1,0-1.237.464,9.175,9.175,0,0,0,17.18,0,.661.661,0,1,0-1.237-.464,7.854,7.854,0,0,1-14.705,0Z" transform="translate(-142.766 -270.834)" fill="#1e4866"/>
                <path id="Path_12771" data-name="Path 12771" d="M123.4,174.381a4,4,0,0,0-3.991,3.991.661.661,0,1,0,1.322,0,2.67,2.67,0,0,1,5.339,0,.661.661,0,1,0,1.322,0A4,4,0,0,0,123.4,174.381Z" transform="translate(-108.89 -159.017)" fill="#1e4866"/>
                <path id="Path_12772" data-name="Path 12772" d="M301.381,178.372a2.67,2.67,0,0,1,5.339,0,.661.661,0,1,0,1.322,0,3.991,3.991,0,0,0-7.982,0,.661.661,0,1,0,1.322,0Z" transform="translate(-273.621 -159.017)" fill="#1e4866"/>
                <path id="Path_12773" data-name="Path 12773" d="M44.039,248.569a.661.661,0,0,0-.841.408l-.974,2.817a.661.661,0,1,0,1.249.432l.974-2.817A.661.661,0,0,0,44.039,248.569Z" transform="translate(-38.471 -226.635)" fill="#1e4866"/>
                <path id="Path_12774" data-name="Path 12774" d="M77.57,252.672a.661.661,0,0,0,.624-.445l.974-2.817a.661.661,0,1,0-1.249-.432l-.974,2.817a.661.661,0,0,0,.625.877Z" transform="translate(-70.133 -226.635)" fill="#1e4866"/>
                <path id="Path_12775" data-name="Path 12775" d="M407.758,252.672a.661.661,0,0,0,.624-.445l.974-2.817a.661.661,0,1,0-1.249-.432l-.974,2.817a.661.661,0,0,0,.625.877Z" transform="translate(-371.228 -226.635)" fill="#1e4866"/>
                <path id="Path_12776" data-name="Path 12776" d="M442.479,252.672a.661.661,0,0,0,.625-.445l.974-2.817a.661.661,0,0,0-1.249-.432l-.974,2.817a.661.661,0,0,0,.625.877Z" transform="translate(-402.89 -226.635)" fill="#1e4866"/>
              </g>
            </g>
          </g>
        </g>
      </g>
    </g>
  </g>
</svg>
