<svg xmlns="http://www.w3.org/2000/svg" xmlns:xlink="http://www.w3.org/1999/xlink" width="140" height="243" viewBox="0 0 140 243">
  <defs>
    <clipPath id="clip-path">
      <rect id="Rectangle_1883" data-name="Rectangle 1883" width="140" height="243" transform="translate(-1 2776)" fill="none" stroke="#707070" stroke-width="1"/>
    </clipPath>
  </defs>
  <g id="Mask_Group_4" data-name="Mask Group 4" transform="translate(1 -2776)" clip-path="url(#clip-path)">
    <path id="Path_13321" data-name="Path 13321" d="M691.709,717.036c32.377,22.643,43.813,22.342,52.3,38.838,13.778,26.774,2.988,65.148-16.587,88.032-46.185,53.992-154.438,37.145-169.347,1.811-8.433-19.985,15.808-39.221,4.173-64.313-11.158-24.067-39.562-19.54-45.586-37.44-10.134-30.111,52.148-96.664,99.959-88.032C641.226,660.373,639.77,680.712,691.709,717.036Z" transform="translate(-634.204 2131.665)" fill="#2a9eda"/>
    <path id="Path_13322" data-name="Path 13322" d="M686.336,715.149c31.39,21.953,42.477,21.66,50.706,37.653a56.681,56.681,0,0,1,5.9,22.669c1.346,21.886-8.008,46.349-21.977,62.678C676.185,890.493,571.234,874.16,556.78,839.9c-8.175-19.375,15.326-38.024,4.046-62.352-10.818-23.332-38.355-18.944-44.2-36.3-9.824-29.192,50.558-93.715,96.91-85.347C637.393,660.214,635.982,679.932,686.336,715.149Z" transform="translate(-642.545 2147.272)" fill="none" stroke="#fff" stroke-width="1"/>
  </g>
</svg>
