<svg xmlns="http://www.w3.org/2000/svg" xmlns:xlink="http://www.w3.org/1999/xlink" width="613.833" height="549.215" viewBox="0 0 613.833 549.215">
  <defs>
    <filter id="Path_13238" x="0" y="0" width="476.283" height="485.992" filterUnits="userSpaceOnUse">
      <feOffset dy="5" input="SourceAlpha"/>
      <feGaussianBlur stdDeviation="5" result="blur"/>
      <feFlood flood-color="#838383" flood-opacity="0.161"/>
      <feComposite operator="in" in2="blur"/>
      <feComposite in="SourceGraphic"/>
    </filter>
    <filter id="Ellipse_340" x="212.101" y="134.004" width="71.045" height="71.045" filterUnits="userSpaceOnUse">
      <feOffset dy="3" input="SourceAlpha"/>
      <feGaussianBlur stdDeviation="8" result="blur-2"/>
      <feFlood flood-opacity="0.161"/>
      <feComposite operator="in" in2="blur-2"/>
      <feComposite in="SourceGraphic"/>
    </filter>
    <filter id="Rectangle_1833" x="283.689" y="212.542" width="330.144" height="336.674" filterUnits="userSpaceOnUse">
      <feOffset dy="5" input="SourceAlpha"/>
      <feGaussianBlur stdDeviation="5" result="blur-3"/>
      <feFlood flood-color="#838383" flood-opacity="0.161"/>
      <feComposite operator="in" in2="blur-3"/>
      <feComposite in="SourceGraphic"/>
    </filter>
  </defs>
  <g id="Group_6831" data-name="Group 6831" transform="translate(-189 -2642)">
    <g id="Group_6802" data-name="Group 6802" transform="translate(204 2652)">
      <g id="Group_6801" data-name="Group 6801" transform="translate(0)">
        <g transform="matrix(1, 0, 0, 1, -15, -10)" filter="url(#Path_13238)">
          <path id="Path_13238-2" data-name="Path 13238" d="M9.006,0H437.277a9.006,9.006,0,0,1,9.006,9.006v437.98a9.006,9.006,0,0,1-9.006,9.006H9.006A9.006,9.006,0,0,1,0,446.986V9.006A9.006,9.006,0,0,1,9.006,0Z" transform="translate(15 10)" fill="#fff"/>
        </g>
        <g id="Group_6800" data-name="Group 6800" transform="translate(45.931 48.632)">
          <g id="Group_6799" data-name="Group 6799" transform="translate(0 0)">
            <path id="Path_1860" data-name="Path 1860" d="M1.413.486,2.554-2.728H7.033L8.173.486H9.194L5.314-10.18H4.273L.393.486ZM2.866-3.6l1.89-5.312H4.83L6.72-3.6ZM10.829.486h.927V-4.639a1.975,1.975,0,0,1,1.937-2.13,1.647,1.647,0,0,1,1.729,1.812V.486h.948V-4.779a1.824,1.824,0,0,1,1.906-1.989,1.67,1.67,0,0,1,1.76,1.9V.486h.927V-4.873c0-1.791-.922-2.745-2.406-2.745a2.4,2.4,0,0,0-2.37,1.453H16.12a2.149,2.149,0,0,0-2.161-1.453,2.154,2.154,0,0,0-2.146,1.333H11.73V-7.514h-.9ZM26.52.652c2.073,0,3.52-1.693,3.52-4.13,0-2.453-1.448-4.145-3.52-4.145S23-5.93,23-3.477C23-1.04,24.448.652,26.52.652Zm0-.849c-1.661,0-2.588-1.489-2.588-3.281s.927-3.3,2.588-3.3,2.588,1.51,2.588,3.3S28.182-.2,26.52-.2ZM37.16-2.571a2.163,2.163,0,0,1-2.187,2.26A1.925,1.925,0,0,1,33-2.389V-7.514h-.927v5.182c0,1.9,1.094,2.922,2.63,2.922a2.5,2.5,0,0,0,2.38-1.432h.073V.486h.927v-8H37.16Zm4.3-1.943a2.1,2.1,0,0,1,2.177-2.255,1.939,1.939,0,0,1,2.021,2.13V.486h.927V-4.7a2.6,2.6,0,0,0-2.713-2.922,2.422,2.422,0,0,0-2.354,1.359h-.083V-7.514h-.9v8h.927Zm10.723-3H50.492V-9.43H49.56v1.916H48.367v.807H49.56v5.322A1.959,1.959,0,0,0,51.617.605,2.232,2.232,0,0,0,52.44.465l-.2-.838A1.9,1.9,0,0,1,51.7-.3c-.63,0-1.208-.3-1.208-1.3v-5.1h1.693Zm9.379,0H59.871V-9.43h-.932v1.916H57.747v.807h1.193v5.322A1.959,1.959,0,0,0,61,.605a2.232,2.232,0,0,0,.823-.141l-.2-.838A1.9,1.9,0,0,1,61.08-.3c-.63,0-1.208-.3-1.208-1.3v-5.1h1.693ZM66.694.652c2.073,0,3.52-1.693,3.52-4.13,0-2.453-1.448-4.145-3.52-4.145s-3.52,1.693-3.52,4.145C63.173-1.04,64.621.652,66.694.652Zm0-.849c-1.661,0-2.588-1.489-2.588-3.281s.927-3.3,2.588-3.3,2.588,1.51,2.588,3.3S68.355-.2,66.694-.2ZM78.151.486h.958L81-6.071h.1L83,.486h.958l2.416-8h-.979L83.5-.931h-.073L81.552-7.514h-.984l-1.89,6.6h-.068l-1.9-6.6h-.979Zm10.041,0h.932v-8h-.932Zm.474-9.374a.689.689,0,0,0,.7-.667.689.689,0,0,0-.7-.667.684.684,0,0,0-.693.667A.684.684,0,0,0,88.665-8.888Zm6.067,1.375H93.04V-9.43h-.932v1.916H90.915v.807h1.193v5.322A1.959,1.959,0,0,0,94.165.605a2.232,2.232,0,0,0,.823-.141l-.2-.838a1.9,1.9,0,0,1-.542.073c-.63,0-1.208-.3-1.208-1.3v-5.1h1.693Zm3.2,3a2.117,2.117,0,0,1,2.219-2.255,1.937,1.937,0,0,1,2.031,2.13V.486h.932V-4.7a2.6,2.6,0,0,0-2.729-2.922,2.4,2.4,0,0,0-2.37,1.359H97.93V-10.18H97V.486h.927ZM108.44.652A2.568,2.568,0,0,0,110.9-1h.109V.486h.906V-10.18h-.932v4.192H110.9a2.526,2.526,0,0,0-2.442-1.635c-1.974,0-3.307,1.667-3.307,4.13C105.148-1.009,106.476.652,108.44.652Zm.109-.849c-1.594,0-2.469-1.448-2.469-3.312,0-1.844.865-3.271,2.469-3.271,1.562,0,2.448,1.354,2.448,3.271C111-1.577,110.1-.2,108.549-.2Zm6,.682h.927V-4.68a2.038,2.038,0,0,1,2.161-2.047,3.928,3.928,0,0,1,.557.052v-.943c-.125-.005-.339-.016-.49-.016a2.3,2.3,0,0,0-2.187,1.349h-.068V-7.514h-.9Zm7.463.182A2.635,2.635,0,0,0,124.5-.78h.057V.486h.927V-4.946a2.547,2.547,0,0,0-2.838-2.677,3.075,3.075,0,0,0-3.026,1.791l.88.318a2.221,2.221,0,0,1,2.172-1.276,1.666,1.666,0,0,1,1.885,1.76v.187c0,.6-.75.615-2.094.781-1.807.224-3.073.729-3.073,2.312A2.4,2.4,0,0,0,122.016.668Zm.125-.849c-1.047,0-1.828-.557-1.828-1.526s.792-1.375,2.146-1.542a5.676,5.676,0,0,0,2.094-.49v1.156A2.325,2.325,0,0,1,122.141-.181Zm7.577.667h.958l1.9-6.557h.1l1.9,6.557h.958l2.416-8h-.979l-1.9,6.583h-.073l-1.875-6.583h-.984l-1.89,6.6h-.068l-1.9-6.6H127.3Z" transform="translate(107.913 10.222)" fill="#1e4866" stroke="#1e4866" stroke-width="1"/>
            <path id="Path_2176" data-name="Path 2176" d="M32.318-19.255h-3.8A7.986,7.986,0,0,0,27.5-22.147l3.83-.013,1.031-4H14.32l-1.165,5.276h4.928c1.848,0,2.973.629,3.576,1.634H14.146l-.991,3.924h8.718a3.77,3.77,0,0,1-3.79,2.344H13.677L13.65-9.278,22.6,1.261h7V1.007L21.7-8.675l.254-.107c3.817-1.232,5.852-3.241,6.482-6.548h2.893Zm24.265-6.91H50.437l-6.763,4.2v5.732l6.133-3.75h.161V1.261h6.615Zm16.579,27.8c6.388,0,10.646-4.017,10.646-9.669,0-5.223-3.643-8.946-8.571-8.946-2.6,0-4.754,1.111-5.665,2.625h-.161l.629-6.468H82.188v-5.343h-17.6L63.4-11.381l5.852,1.1a4.464,4.464,0,0,1,3.87-1.982,4.152,4.152,0,0,1,4.3,4.419,4.113,4.113,0,0,1-4.259,4.392A3.685,3.685,0,0,1,69.185-6.8H62.757C62.838-1.873,67.163,1.636,73.162,1.636ZM93.37-2.489H88.228L88.2-.989a37.912,37.912,0,0,1-1.634,8.946h4.125A31.474,31.474,0,0,0,93.25-1ZM108.5,1.931c7.178.013,11.584-5.29,11.6-14.342.013-9-4.419-14.128-11.6-14.128s-11.57,5.116-11.584,14.128S101.325,1.931,108.5,1.931Zm0-5.424c-2.852,0-4.794-2.866-4.767-8.919.013-5.932,1.928-8.745,4.767-8.745s4.767,2.812,4.781,8.745C113.3-6.359,111.368-3.493,108.5-3.493Zm26.743,5.424c7.178.013,11.584-5.29,11.6-14.342.013-9-4.419-14.128-11.6-14.128s-11.57,5.116-11.584,14.128S128.068,1.931,135.246,1.931Zm0-5.424c-2.852,0-4.794-2.866-4.767-8.919.013-5.932,1.928-8.745,4.767-8.745s4.767,2.812,4.781,8.745C140.04-6.359,138.111-3.493,135.246-3.493Zm26.743,5.424c7.178.013,11.584-5.29,11.6-14.342.013-9-4.419-14.128-11.6-14.128s-11.57,5.116-11.584,14.128S154.811,1.931,161.989,1.931Zm0-5.424c-2.852,0-4.794-2.866-4.767-8.919.013-5.932,1.928-8.745,4.767-8.745s4.767,2.812,4.781,8.745C166.783-6.359,164.854-3.493,161.989-3.493Z" transform="translate(83.217 56.584)" fill="#1e4866"/>
            <path id="Path_13212" data-name="Path 13212" d="M10.547-4.826c0-3.448-2.1-5.479-4.9-5.479S.746-8.273.746-4.826,2.844.653,5.646.653A5.106,5.106,0,0,0,7.537.3l.88,1.12h1.875L8.813-.472A5.585,5.585,0,0,0,10.547-4.826ZM4.99-3.076l1.443,1.9a2.986,2.986,0,0,1-.786.1c-1.734,0-2.958-1.318-2.958-3.744S3.912-8.57,5.646-8.57,8.6-7.252,8.6-4.826A4.121,4.121,0,0,1,7.646-1.9L6.74-3.076Zm12.415.219a1.7,1.7,0,0,1-1.7,1.823,1.489,1.489,0,0,1-1.51-1.656v-4.8H12.307V-2.4c0,1.922,1.094,3.01,2.666,3.01A2.469,2.469,0,0,0,17.38-.915h.083V.507h1.828v-8H17.406ZM21.228.507h1.885v-8H21.228Zm.948-9.135a1.058,1.058,0,0,0,1.088-1.021,1.059,1.059,0,0,0-1.088-1.026,1.061,1.061,0,0,0-1.094,1.026A1.06,1.06,0,0,0,22.176-8.627ZM28.54.663a3.137,3.137,0,0,0,3.427-2.89h-1.8A1.56,1.56,0,0,1,28.556-.873c-1.177,0-1.937-.984-1.937-2.62,0-1.614.776-2.583,1.937-2.583a1.567,1.567,0,0,1,1.609,1.354h1.8A3.142,3.142,0,0,0,28.529-7.6c-2.344,0-3.823,1.693-3.823,4.135C24.707-1.04,26.15.663,28.54.663ZM33.519.507H35.4V-2.18l.687-.734L38.539.507h2.255L37.513-4.039l3.1-3.453h-2.2L35.534-4.279H35.4v-5.88H33.519ZM48.991.663a3.137,3.137,0,0,0,3.427-2.89h-1.8A1.56,1.56,0,0,1,49.007-.873c-1.177,0-1.937-.984-1.937-2.62,0-1.614.776-2.583,1.937-2.583a1.567,1.567,0,0,1,1.609,1.354h1.8A3.142,3.142,0,0,0,48.981-7.6c-2.344,0-3.823,1.693-3.823,4.135C45.158-1.04,46.6.663,48.991.663Zm7.281.005A2.471,2.471,0,0,0,58.62-.592h.063v1.1H60.5V-4.846c0-2.114-1.724-2.75-3.25-2.75a3.206,3.206,0,0,0-3.39,2.208l1.76.25a1.6,1.6,0,0,1,1.64-1.016c.875,0,1.354.448,1.354,1.234v.031c0,.542-.568.568-1.979.719-1.552.167-3.036.63-3.036,2.432A2.382,2.382,0,0,0,56.272.669Zm.49-1.385c-.786,0-1.349-.359-1.349-1.052,0-.724.63-1.026,1.474-1.146A5.739,5.739,0,0,0,58.615-3.3v.943A1.7,1.7,0,0,1,56.761-.717ZM68.718-5.378C68.458-6.732,67.375-7.6,65.5-7.6c-1.927,0-3.239.948-3.234,2.427-.005,1.167.713,1.937,2.25,2.255l1.364.286c.734.161,1.078.458,1.078.911,0,.547-.594.958-1.489.958A1.433,1.433,0,0,1,63.88-1.852l-1.838.177C62.276-.206,63.51.663,65.474.663c2,0,3.411-1.036,3.416-2.552-.005-1.141-.74-1.838-2.25-2.166l-1.364-.292c-.812-.182-1.135-.463-1.13-.927-.005-.542.594-.917,1.38-.917A1.4,1.4,0,0,1,67-5.19Zm3.614,1.2A1.661,1.661,0,0,1,74.062-6a1.5,1.5,0,0,1,1.573,1.708v4.8H77.52V-4.586c0-1.932-1.094-3.01-2.755-3.01a2.35,2.35,0,0,0-2.38,1.463h-.094v-4.026H70.447V.507h1.885Z" transform="translate(138.308 217.377)" fill="#1e4866"/>
            <g id="Rectangle_1717" data-name="Rectangle 1717" transform="translate(0.069 246.367)" fill="#2a9dd9" stroke="#2a9dd9" stroke-width="1">
              <rect width="110" height="46" rx="4" stroke="none"/>
              <rect x="0.5" y="0.5" width="109" height="45" rx="3.5" fill="none"/>
            </g>
            <g id="Rectangle_1718" data-name="Rectangle 1718" transform="translate(122.069 246.367)" fill="none" stroke="#2a9dd9" stroke-width="1">
              <rect width="110" height="46" rx="4" stroke="none"/>
              <rect x="0.5" y="0.5" width="109" height="45" rx="3.5" fill="none"/>
            </g>
            <g id="Rectangle_1719" data-name="Rectangle 1719" transform="translate(245.069 246.367)" fill="none" stroke="#2a9dd9" stroke-width="1">
              <rect width="110" height="46" rx="4" stroke="none"/>
              <rect x="0.5" y="0.5" width="109" height="45" rx="3.5" fill="none"/>
            </g>
            <g id="Rectangle_1720" data-name="Rectangle 1720" transform="translate(0.069 313.367)" fill="none" stroke="#2a9dd9" stroke-width="1">
              <rect width="110" height="45" rx="4" stroke="none"/>
              <rect x="0.5" y="0.5" width="109" height="44" rx="3.5" fill="none"/>
            </g>
            <g id="Rectangle_1721" data-name="Rectangle 1721" transform="translate(122.069 313.367)" fill="none" stroke="#2a9dd9" stroke-width="1">
              <rect width="110" height="45" rx="4" stroke="none"/>
              <rect x="0.5" y="0.5" width="109" height="44" rx="3.5" fill="none"/>
            </g>
            <g id="Rectangle_1722" data-name="Rectangle 1722" transform="translate(245.069 313.367)" fill="none" stroke="#2a9dd9" stroke-width="1">
              <rect width="110" height="45" rx="4" stroke="none"/>
              <rect x="0.5" y="0.5" width="109" height="44" rx="3.5" fill="none"/>
            </g>
            <path id="Path_13215" data-name="Path 13215" d="M-22.432.49h1.609V-3.546h2.291L-16.365.49h1.833L-16.9-3.827a2.961,2.961,0,0,0,1.958-3c0-1.963-1.219-3.343-3.692-3.343h-3.8Zm1.609-5.421V-8.8H-18.8c1.588,0,2.245.755,2.245,1.963s-.656,1.9-2.224,1.9Zm13.717-.625a2.777,2.777,0,0,0-3.026-2.057c-1.807,0-3.088.953-3.088,2.37,0,1.135.687,1.89,2.187,2.224l1.354.3c.771.172,1.13.516,1.13,1.016,0,.62-.661,1.1-1.682,1.1a1.556,1.556,0,0,1-1.719-1.187l-1.505.229c.26,1.417,1.437,2.213,3.234,2.213,1.932,0,3.271-1.026,3.271-2.474,0-1.13-.719-1.828-2.187-2.166l-1.271-.292c-.88-.208-1.26-.505-1.255-1.047-.005-.615.661-1.052,1.547-1.052a1.543,1.543,0,0,1,1.6,1.073ZM-4.215.589A1.045,1.045,0,0,0-3.173-.452,1.047,1.047,0,0,0-4.215-1.489,1.044,1.044,0,0,0-5.256-.452,1.041,1.041,0,0,0-4.215.589ZM2.243.636A3.5,3.5,0,0,0,5.914-2.957,3.364,3.364,0,0,0,2.54-6.519,2.874,2.874,0,0,0,.6-5.811H.535L.873-8.8H5.4v-1.38H-.465l-.6,5.374L.41-4.582a2.841,2.841,0,0,1,1.765-.6,2.159,2.159,0,0,1,2.182,2.26A2.092,2.092,0,0,1,2.243-.718,1.823,1.823,0,0,1,.311-2.291H-1.252A3.215,3.215,0,0,0,2.243.636Zm9.286.031c2.463,0,3.906-2.01,3.906-5.5,0-3.468-1.463-5.484-3.906-5.484S7.623-8.311,7.617-4.837C7.617-1.348,9.06.662,11.528.667Zm0-1.39c-1.443,0-2.312-1.448-2.312-4.114s.875-4.119,2.312-4.119,2.307,1.463,2.307,4.119S12.966-.723,11.528-.723ZM21,.667c2.463,0,3.906-2.01,3.906-5.5,0-3.468-1.463-5.484-3.906-5.484S17.1-8.311,17.09-4.837C17.09-1.348,18.533.662,21,.667Zm0-1.39c-1.443,0-2.312-1.448-2.312-4.114S19.564-8.957,21-8.957s2.307,1.463,2.307,4.119S22.439-.723,21-.723Z" transform="translate(54.453 275.007)" fill="#fff"/>
            <path id="Path_13216" data-name="Path 13216" d="M-29.312.49H-27.7V-3.546h2.291L-23.245.49h1.833l-2.364-4.317a2.961,2.961,0,0,0,1.958-3c0-1.963-1.219-3.343-3.692-3.343h-3.8ZM-27.7-4.931V-8.8h2.021c1.588,0,2.245.755,2.245,1.963s-.656,1.9-2.224,1.9Zm13.717-.625a2.777,2.777,0,0,0-3.026-2.057c-1.807,0-3.088.953-3.088,2.37,0,1.135.687,1.89,2.187,2.224l1.354.3c.771.172,1.13.516,1.13,1.016,0,.62-.661,1.1-1.682,1.1a1.556,1.556,0,0,1-1.719-1.187l-1.505.229C-20.074-.145-18.9.652-17.1.652c1.932,0,3.271-1.026,3.271-2.474,0-1.13-.719-1.828-2.187-2.166l-1.271-.292c-.88-.208-1.26-.505-1.255-1.047-.005-.615.661-1.052,1.547-1.052a1.543,1.543,0,0,1,1.6,1.073ZM-11.1.589A1.045,1.045,0,0,0-10.054-.452,1.047,1.047,0,0,0-11.1-1.489,1.044,1.044,0,0,0-12.137-.452,1.041,1.041,0,0,0-11.1.589ZM-.227-10.175H-1.794L-4.456-8.436v1.542L-1.9-8.561h.062V.49H-.227ZM4.1-.968H2.6l-.052.583a27.124,27.124,0,0,1-.594,3.479h1.1A18.368,18.368,0,0,0,4.023-.4ZM9.59.667c2.463,0,3.906-2.01,3.906-5.5,0-3.468-1.463-5.484-3.906-5.484S5.684-8.311,5.679-4.837C5.679-1.348,7.121.662,9.59.667Zm0-1.39c-1.443,0-2.312-1.448-2.312-4.114S8.153-8.957,9.59-8.957,11.9-7.493,11.9-4.837,11.027-.723,9.59-.723ZM19.063.667c2.463,0,3.906-2.01,3.906-5.5,0-3.468-1.463-5.484-3.906-5.484s-3.906,2.01-3.911,5.484C15.152-1.348,16.594.662,19.063.667Zm0-1.39c-1.443,0-2.312-1.448-2.312-4.114s.875-4.119,2.312-4.119S21.37-7.493,21.37-4.837,20.5-.723,19.063-.723ZM28.536.667c2.463,0,3.906-2.01,3.906-5.5,0-3.468-1.463-5.484-3.906-5.484s-3.906,2.01-3.911,5.484C24.625-1.348,26.068.662,28.536.667Zm0-1.39c-1.443,0-2.312-1.448-2.312-4.114s.875-4.119,2.312-4.119,2.307,1.463,2.307,4.119S29.973-.723,28.536-.723Z" transform="translate(176.685 275.007)" fill="#1e4866"/>
            <path id="Path_13217" data-name="Path 13217" d="M-30.453.49h1.609V-3.546h2.291L-24.386.49h1.833l-2.364-4.317a2.961,2.961,0,0,0,1.958-3c0-1.963-1.219-3.343-3.692-3.343h-3.8Zm1.609-5.421V-8.8h2.021c1.588,0,2.245.755,2.245,1.963s-.656,1.9-2.224,1.9Zm13.717-.625a2.777,2.777,0,0,0-3.026-2.057c-1.807,0-3.088.953-3.088,2.37,0,1.135.687,1.89,2.187,2.224l1.354.3c.771.172,1.13.516,1.13,1.016,0,.62-.661,1.1-1.682,1.1A1.556,1.556,0,0,1-19.97-1.791l-1.505.229c.26,1.417,1.437,2.213,3.234,2.213,1.932,0,3.271-1.026,3.271-2.474,0-1.13-.719-1.828-2.187-2.166l-1.271-.292c-.88-.208-1.26-.505-1.255-1.047-.005-.615.661-1.052,1.547-1.052a1.543,1.543,0,0,1,1.6,1.073Zm2.89,6.145A1.045,1.045,0,0,0-11.195-.452a1.047,1.047,0,0,0-1.042-1.036A1.044,1.044,0,0,0-13.278-.452,1.041,1.041,0,0,0-12.237.589ZM-1.894.636A3.5,3.5,0,0,0,1.778-2.957,3.364,3.364,0,0,0-1.6-6.519a2.874,2.874,0,0,0-1.943.708H-3.6L-3.263-8.8H1.262v-1.38H-4.6L-5.2-4.8l1.474.219a2.841,2.841,0,0,1,1.765-.6A2.159,2.159,0,0,1,.221-2.926,2.092,2.092,0,0,1-1.894-.718,1.823,1.823,0,0,1-3.826-2.291H-5.388A3.215,3.215,0,0,0-1.894.636ZM5.35-.968H3.85L3.8-.384A27.124,27.124,0,0,1,3.2,3.094h1.1A18.368,18.368,0,0,0,5.272-.4ZM10.839.667c2.463,0,3.906-2.01,3.906-5.5,0-3.468-1.463-5.484-3.906-5.484S6.934-8.311,6.928-4.837C6.928-1.348,8.371.662,10.839.667Zm0-1.39C9.4-.723,8.527-2.171,8.527-4.837S9.4-8.957,10.839-8.957s2.307,1.463,2.307,4.119S12.277-.723,10.839-.723ZM20.312.667c2.463,0,3.906-2.01,3.906-5.5,0-3.468-1.463-5.484-3.906-5.484S16.407-8.311,16.4-4.837C16.4-1.348,17.844.662,20.312.667Zm0-1.39C18.87-.723,18-2.171,18-4.837s.875-4.119,2.312-4.119,2.307,1.463,2.307,4.119S21.75-.723,20.312-.723ZM29.785.667c2.463,0,3.906-2.01,3.906-5.5,0-3.468-1.463-5.484-3.906-5.484s-3.906,2.01-3.911,5.484C25.874-1.348,27.317.662,29.785.667Zm0-1.39c-1.443,0-2.312-1.448-2.312-4.114s.875-4.119,2.312-4.119,2.307,1.463,2.307,4.119S31.223-.723,29.785-.723Z" transform="translate(299.19 275.007)" fill="#1e4866"/>
            <path id="Path_13220" data-name="Path 13220" d="M-33.934.49h1.609V-3.546h2.291L-27.866.49h1.833L-28.4-3.827a2.961,2.961,0,0,0,1.958-3c0-1.963-1.219-3.343-3.692-3.343h-3.8Zm1.609-5.421V-8.8H-30.3c1.588,0,2.245.755,2.245,1.963s-.656,1.9-2.224,1.9Zm13.717-.625a2.777,2.777,0,0,0-3.026-2.057c-1.807,0-3.088.953-3.088,2.37,0,1.135.687,1.89,2.187,2.224l1.354.3c.771.172,1.13.516,1.13,1.016,0,.62-.661,1.1-1.682,1.1A1.556,1.556,0,0,1-23.45-1.791l-1.505.229c.26,1.417,1.437,2.213,3.234,2.213,1.932,0,3.271-1.026,3.271-2.474,0-1.13-.719-1.828-2.187-2.166l-1.271-.292c-.88-.208-1.26-.505-1.255-1.047-.005-.615.661-1.052,1.547-1.052a1.543,1.543,0,0,1,1.6,1.073Zm2.89,6.145A1.045,1.045,0,0,0-14.675-.452a1.047,1.047,0,0,0-1.042-1.036A1.044,1.044,0,0,0-16.758-.452,1.041,1.041,0,0,0-15.717.589ZM-4.848-10.175H-6.415L-9.077-8.436v1.542l2.552-1.667h.062V.49h1.614ZM1.75.667c2.463,0,3.906-2.01,3.906-5.5,0-3.468-1.463-5.484-3.906-5.484s-3.906,2.01-3.911,5.484C-2.161-1.348-.718.662,1.75.667Zm0-1.39C.308-.723-.562-2.171-.562-4.837S.313-8.957,1.75-8.957,4.058-7.493,4.058-4.837,3.188-.723,1.75-.723ZM9.161-.968h-1.5l-.052.583a27.124,27.124,0,0,1-.594,3.479h1.1A18.368,18.368,0,0,0,9.083-.4ZM14.65.667c2.463,0,3.906-2.01,3.906-5.5,0-3.468-1.463-5.484-3.906-5.484s-3.906,2.01-3.911,5.484C10.739-1.348,12.182.662,14.65.667Zm0-1.39c-1.443,0-2.312-1.448-2.312-4.114s.875-4.119,2.312-4.119,2.307,1.463,2.307,4.119S16.088-.723,14.65-.723ZM24.123.667c2.463,0,3.906-2.01,3.906-5.5,0-3.468-1.463-5.484-3.906-5.484s-3.906,2.01-3.911,5.484C20.212-1.348,21.655.662,24.123.667Zm0-1.39c-1.443,0-2.312-1.448-2.312-4.114s.875-4.119,2.312-4.119S26.43-7.493,26.43-4.837,25.561-.723,24.123-.723ZM33.6.667c2.463,0,3.906-2.01,3.906-5.5,0-3.468-1.463-5.484-3.906-5.484s-3.906,2.01-3.911,5.484C29.685-1.348,31.128.662,33.6.667Zm0-1.39c-1.443,0-2.312-1.448-2.312-4.114s.875-4.119,2.312-4.119S35.9-7.493,35.9-4.837,35.034-.723,33.6-.723Z" transform="translate(53.906 341)" fill="#1e4866"/>
            <path id="Path_13219" data-name="Path 13219" d="M-34.918.49h1.609V-3.546h2.291L-28.851.49h1.833l-2.364-4.317a2.961,2.961,0,0,0,1.958-3c0-1.963-1.219-3.343-3.692-3.343h-3.8Zm1.609-5.421V-8.8h2.021c1.588,0,2.245.755,2.245,1.963s-.656,1.9-2.224,1.9Zm13.717-.625a2.777,2.777,0,0,0-3.026-2.057c-1.807,0-3.088.953-3.088,2.37,0,1.135.687,1.89,2.187,2.224l1.354.3c.771.172,1.13.516,1.13,1.016,0,.62-.661,1.1-1.682,1.1a1.556,1.556,0,0,1-1.719-1.187l-1.505.229C-25.679-.145-24.5.652-22.706.652c1.932,0,3.271-1.026,3.271-2.474,0-1.13-.719-1.828-2.187-2.166l-1.271-.292c-.88-.208-1.26-.505-1.255-1.047-.005-.615.661-1.052,1.547-1.052A1.543,1.543,0,0,1-21-5.306ZM-16.7.589A1.045,1.045,0,0,0-15.659-.452,1.047,1.047,0,0,0-16.7-1.489,1.044,1.044,0,0,0-17.743-.452,1.041,1.041,0,0,0-16.7.589Zm6.822-.1h7.02V-.89h-4.8V-.968l2.12-2.219C-3.588-5.16-3.03-6.1-3.03-7.3a3.129,3.129,0,0,0-3.406-3.026A3.2,3.2,0,0,0-9.889-7.082h1.536a1.769,1.769,0,0,1,1.885-1.9A1.741,1.741,0,0,1-4.562-7.248c0,.943-.562,1.62-1.708,2.833L-9.879-.676ZM2.828.667c2.463,0,3.906-2.01,3.906-5.5,0-3.468-1.463-5.484-3.906-5.484s-3.906,2.01-3.911,5.484C-1.083-1.348.36.662,2.828.667Zm0-1.39C1.386-.723.516-2.171.516-4.837s.875-4.119,2.312-4.119S5.135-7.493,5.135-4.837,4.266-.723,2.828-.723Zm7.411-.245h-1.5l-.052.583a27.124,27.124,0,0,1-.594,3.479H9.2A18.368,18.368,0,0,0,10.161-.4ZM15.728.667c2.463,0,3.906-2.01,3.906-5.5,0-3.468-1.463-5.484-3.906-5.484s-3.906,2.01-3.911,5.484C11.817-1.348,13.26.662,15.728.667Zm0-1.39c-1.443,0-2.312-1.448-2.312-4.114s.875-4.119,2.312-4.119,2.307,1.463,2.307,4.119S17.166-.723,15.728-.723ZM25.2.667c2.463,0,3.906-2.01,3.906-5.5,0-3.468-1.463-5.484-3.906-5.484S21.3-8.311,21.29-4.837C21.29-1.348,22.733.662,25.2.667Zm0-1.39c-1.443,0-2.312-1.448-2.312-4.114s.875-4.119,2.312-4.119,2.307,1.463,2.307,4.119S26.639-.723,25.2-.723ZM34.674.667c2.463,0,3.906-2.01,3.906-5.5,0-3.468-1.463-5.484-3.906-5.484s-3.906,2.01-3.911,5.484C30.763-1.348,32.206.662,34.674.667Zm0-1.39c-1.443,0-2.312-1.448-2.312-4.114s.875-4.119,2.312-4.119,2.307,1.463,2.307,4.119S36.112-.723,34.674-.723Z" transform="translate(176.419 341)" fill="#1e4866"/>
            <path id="Path_13218" data-name="Path 13218" d="M-35.134.49h1.609V-3.546h2.291L-29.067.49h1.833L-29.6-3.827a2.961,2.961,0,0,0,1.958-3c0-1.963-1.219-3.343-3.692-3.343h-3.8Zm1.609-5.421V-8.8H-31.5c1.588,0,2.245.755,2.245,1.963s-.656,1.9-2.224,1.9Zm13.717-.625a2.777,2.777,0,0,0-3.026-2.057c-1.807,0-3.088.953-3.088,2.37,0,1.135.687,1.89,2.187,2.224l1.354.3c.771.172,1.13.516,1.13,1.016,0,.62-.661,1.1-1.682,1.1a1.556,1.556,0,0,1-1.719-1.187l-1.505.229C-25.9-.145-24.719.652-22.922.652c1.932,0,3.271-1.026,3.271-2.474,0-1.13-.719-1.828-2.187-2.166l-1.271-.292c-.88-.208-1.26-.505-1.255-1.047-.005-.615.661-1.052,1.547-1.052a1.543,1.543,0,0,1,1.6,1.073Zm2.89,6.145A1.045,1.045,0,0,0-15.876-.452a1.047,1.047,0,0,0-1.042-1.036A1.044,1.044,0,0,0-17.959-.452,1.041,1.041,0,0,0-16.917.589ZM-6.382.636c2.177,0,3.776-1.3,3.77-3.073A2.435,2.435,0,0,0-4.84-4.973v-.083A2.332,2.332,0,0,0-3.007-7.415,3.034,3.034,0,0,0-6.34-10.321c-1.958,0-3.531,1.182-3.583,2.916h1.557A1.811,1.811,0,0,1-6.361-8.977a1.624,1.624,0,0,1,1.8,1.646A1.774,1.774,0,0,1-6.569-5.624h-.9v1.312h.9c1.479,0,2.333.75,2.333,1.823,0,1.036-.9,1.739-2.156,1.739-1.156,0-2.057-.594-2.12-1.542h-1.635C-10.079-.551-8.538.636-6.382.636ZM3.065.667c2.463,0,3.906-2.01,3.906-5.5,0-3.468-1.463-5.484-3.906-5.484S-.841-8.311-.846-4.837C-.846-1.348.6.662,3.065.667Zm0-1.39C1.623-.723.753-2.171.753-4.837s.875-4.119,2.312-4.119S5.372-7.493,5.372-4.837,4.5-.723,3.065-.723Zm7.411-.245h-1.5l-.052.583A27.124,27.124,0,0,1,8.33,3.094h1.1A18.368,18.368,0,0,0,10.4-.4ZM15.965.667c2.463,0,3.906-2.01,3.906-5.5,0-3.468-1.463-5.484-3.906-5.484s-3.906,2.01-3.911,5.484C12.054-1.348,13.5.662,15.965.667Zm0-1.39c-1.443,0-2.312-1.448-2.312-4.114s.875-4.119,2.312-4.119,2.307,1.463,2.307,4.119S17.4-.723,15.965-.723ZM25.438.667c2.463,0,3.906-2.01,3.906-5.5,0-3.468-1.463-5.484-3.906-5.484s-3.906,2.01-3.911,5.484C21.527-1.348,22.969.662,25.438.667Zm0-1.39c-1.443,0-2.312-1.448-2.312-4.114S24-8.957,25.438-8.957s2.307,1.463,2.307,4.119S26.875-.723,25.438-.723ZM34.911.667c2.463,0,3.906-2.01,3.906-5.5,0-3.468-1.463-5.484-3.906-5.484S31.005-8.311,31-4.837C31-1.348,32.443.662,34.911.667Zm0-1.39c-1.443,0-2.312-1.448-2.312-4.114s.875-4.119,2.312-4.119,2.307,1.463,2.307,4.119S36.348-.723,34.911-.723Z" transform="translate(298.968 341)" fill="#1e4866"/>
            <g id="Group_6190" data-name="Group 6190" transform="translate(18.297 96.372)">
              <g id="Group_6189" data-name="Group 6189" transform="translate(2.653 0)">
                <g id="Group_4106" data-name="Group 4106" transform="translate(0 10.999)">
                  <line id="Line_1" data-name="Line 1" x2="317.323" transform="translate(0)" fill="none" stroke="#e3e3e3" stroke-linecap="round" stroke-width="6"/>
                  <line id="Line_2" data-name="Line 2" x2="162.077" fill="none" stroke="#2a9eda" stroke-linecap="round" stroke-width="6"/>
                </g>
                <g transform="matrix(1, 0, 0, 1, -81.88, -155)" filter="url(#Ellipse_340)">
                  <g id="Ellipse_340-2" data-name="Ellipse 340" transform="translate(236.1 155)" fill="#2a9eda" stroke="#fff" stroke-width="3">
                    <circle cx="11.523" cy="11.523" r="11.523" stroke="none"/>
                    <circle cx="11.523" cy="11.523" r="10.023" fill="none"/>
                  </g>
                </g>
              </g>
              <path id="Path_13214" data-name="Path 13214" d="M7.748-7.571H6.269A2.944,2.944,0,0,0,5.79-8.8l1.588.005.38-1.385H.874L.467-8.566H2.425a1.741,1.741,0,0,1,1.833.995H.842L.467-6.207H4.311A1.756,1.756,0,0,1,2.425-5.051H.624L.629-3.895,4.274.49H6.446V.4L3.155-3.639l.062-.021c1.9-.25,2.823-1.182,3.047-2.547H7.378ZM16.757.694C19.33.7,20.866-1.332,20.866-4.832c0-3.479-1.547-5.489-4.109-5.489s-4.1,2.005-4.109,5.489S14.185.694,16.757.694Zm0-1.63c-1.328,0-2.161-1.333-2.156-3.9.005-2.541.833-3.88,2.156-3.88s2.156,1.338,2.161,3.88C18.919-2.27,18.091-.937,16.757-.937Z" transform="translate(-0.467 34.078)" fill="#204866"/>
              <path id="Path_13213" data-name="Path 13213" d="M7.748-7.571H6.269A2.944,2.944,0,0,0,5.79-8.8l1.588.005.38-1.385H.874L.467-8.566H2.425a1.741,1.741,0,0,1,1.833.995H.842L.467-6.207H4.311A1.756,1.756,0,0,1,2.425-5.051H.624L.629-3.895,4.274.49H6.446V.4L3.155-3.639l.062-.021c1.9-.25,2.823-1.182,3.047-2.547H7.378ZM16.643.636c2.281,0,3.942-1.307,3.937-3.109a2.436,2.436,0,0,0-2.323-2.5v-.083a2.29,2.29,0,0,0,1.927-2.307c.005-1.625-1.38-2.953-3.51-2.953C14.6-10.321,13-9.087,12.956-7.3h1.859a1.664,1.664,0,0,1,1.849-1.453,1.49,1.49,0,0,1,1.651,1.5c.005.932-.766,1.552-1.87,1.552H15.5v1.489h.943c1.349,0,2.151.677,2.146,1.64.005.943-.812,1.588-1.953,1.588-1.073,0-1.9-.557-1.948-1.427H12.732C12.784-.608,14.393.636,16.643.636Zm9.671.057c2.573.005,4.109-2.026,4.109-5.526,0-3.479-1.547-5.489-4.109-5.489S22.21-8.316,22.2-4.832,23.741.694,26.314.694Zm0-1.63c-1.328,0-2.161-1.333-2.156-3.9.005-2.541.833-3.88,2.156-3.88s2.156,1.338,2.161,3.88C28.475-2.27,27.647-.937,26.314-.937Zm7.656-.031H32.3l-.036.583a20.667,20.667,0,0,1-.609,3.479h1.271A15.614,15.614,0,0,0,33.9-.395ZM39.589.694C42.161.7,43.7-1.332,43.7-4.832c0-3.479-1.547-5.489-4.109-5.489s-4.1,2.005-4.109,5.489S37.016.694,39.589.694Zm0-1.63c-1.328,0-2.161-1.333-2.156-3.9.005-2.541.833-3.88,2.156-3.88s2.156,1.338,2.161,3.88C41.75-2.27,40.922-.937,39.589-.937Zm9.78,1.63c2.573.005,4.109-2.026,4.109-5.526,0-3.479-1.547-5.489-4.109-5.489s-4.1,2.005-4.109,5.489S46.8.694,49.369.694Zm0-1.63c-1.328,0-2.161-1.333-2.156-3.9.005-2.541.833-3.88,2.156-3.88s2.156,1.338,2.161,3.88C51.53-2.27,50.7-.937,49.369-.937Zm9.78,1.63c2.573.005,4.109-2.026,4.109-5.526,0-3.479-1.547-5.489-4.109-5.489s-4.1,2.005-4.109,5.489S56.576.694,59.149.694Zm0-1.63c-1.328,0-2.161-1.333-2.156-3.9.005-2.541.833-3.88,2.156-3.88s2.156,1.338,2.161,3.88C61.31-2.27,60.482-.937,59.149-.937Z" transform="translate(258.269 34.078)" fill="#204866"/>
            </g>
          </g>
        </g>
        <g transform="matrix(1, 0, 0, 1, -15, -10)" filter="url(#Rectangle_1833)">
          <rect id="Rectangle_1833-2" data-name="Rectangle 1833" width="300.144" height="306.674" rx="10" transform="translate(298.69 222.54)" fill="#fff"/>
        </g>
        <g id="Group_6782" data-name="Group 6782" transform="translate(313.409 227.852)">
          <path id="Path_13237" data-name="Path 13237" d="M-135.023-10.3l2.8,4.561v3.2h.939v-3.2l2.8-4.561h-1.076l-2.151,3.621h-.091l-2.151-3.621Zm9.182,7.879c1.576,0,2.636-1.2,2.636-3,0-1.818-1.061-3.015-2.636-3.015s-2.636,1.2-2.636,3.015C-128.478-3.614-127.418-2.417-125.842-2.417Zm0-.8c-1.2,0-1.742-1.03-1.742-2.2s.545-2.212,1.742-2.212,1.742,1.045,1.742,2.212S-124.645-3.22-125.842-3.22Zm7.666-1.7a1.511,1.511,0,0,1-1.5,1.591,1.268,1.268,0,0,1-1.273-1.394V-8.356h-.894v3.7c0,1.485.788,2.2,1.879,2.2a1.814,1.814,0,0,0,1.727-1.061h.061v.985h.894V-8.356h-.894Zm2.53,2.379h.894V-6.22a1.376,1.376,0,0,1,1.47-1.364,2.733,2.733,0,0,1,.545.061v-.909c-.1-.008-.337-.015-.47-.015a1.583,1.583,0,0,0-1.515.97h-.061v-.879h-.864Zm11.091-4.515a1.961,1.961,0,0,0-2.061-1.379c-1.227,0-2.136.7-2.136,1.682,0,.8.477,1.341,1.545,1.591l.97.227c.587.136.864.417.864.818,0,.5-.53.909-1.364.909a1.227,1.227,0,0,1-1.348-.939l-.848.212a2,2,0,0,0,2.212,1.515c1.352,0,2.273-.739,2.273-1.742,0-.811-.508-1.322-1.545-1.576l-.864-.212c-.689-.17-1-.4-1-.848,0-.5.53-.864,1.242-.864a1.224,1.224,0,0,1,1.258.833Zm3.167,4.651a1.828,1.828,0,0,0,1.727-.924h.045v.788h.894V-6.371a1.911,1.911,0,0,0-2.151-2.061,2.363,2.363,0,0,0-2.333,1.364l.848.3a1.572,1.572,0,0,1,1.515-.879,1.081,1.081,0,0,1,1.227,1.182v.03c0,.432-.439.394-1.5.53-1.08.14-2.258.379-2.258,1.712A1.8,1.8,0,0,0-101.388-2.4Zm.136-.8c-.712,0-1.227-.318-1.227-.939,0-.682.621-.894,1.318-.985a4.593,4.593,0,0,0,1.545-.333v.818A1.493,1.493,0,0,1-101.251-3.2Zm5.06-7.091h-.894v7.757h.894ZM-92.843-2.4a1.828,1.828,0,0,0,1.727-.924h.045v.788h.894V-6.371a1.911,1.911,0,0,0-2.151-2.061,2.363,2.363,0,0,0-2.333,1.364l.848.3A1.572,1.572,0,0,1-92.3-7.644,1.081,1.081,0,0,1-91.07-6.462v.03c0,.432-.439.394-1.5.53-1.08.14-2.258.379-2.258,1.712A1.8,1.8,0,0,0-92.843-2.4Zm.136-.8c-.712,0-1.227-.318-1.227-.939,0-.682.621-.894,1.318-.985a4.593,4.593,0,0,0,1.545-.333v.818A1.493,1.493,0,0,1-92.706-3.2Zm4.167.667h.894V-6.22a1.376,1.376,0,0,1,1.47-1.364,2.733,2.733,0,0,1,.545.061v-.909c-.1-.008-.337-.015-.47-.015a1.583,1.583,0,0,0-1.515.97h-.061v-.879h-.864Zm4.727,2.182A1.748,1.748,0,0,0-82.1-1.69l2.477-6.651-.977-.015L-82.206-3.72h-.061l-1.606-4.636h-.97l2.151,5.848-.167.455c-.326.886-.727.97-1.379.8l-.227.788A1.759,1.759,0,0,0-83.812-.356Zm9.689-2.182h.879l1.273-4.47h.091l1.273,4.47h.879l1.773-5.818H-68.9l-1.258,4.439h-.061l-1.227-4.439H-72.4L-73.638-3.9H-73.7l-1.258-4.454H-75.9Zm7.348,0h.894V-8.356h-.894Zm.455-6.788a.625.625,0,0,0,.636-.606.625.625,0,0,0-.636-.606.625.625,0,0,0-.636.606A.625.625,0,0,0-66.32-9.326Zm4.606.97h-1.242V-9.75h-.894v1.394h-.879V-7.6h.879v3.636a1.488,1.488,0,0,0,1.576,1.5,1.86,1.86,0,0,0,.667-.106l-.182-.8a1.726,1.726,0,0,1-.394.045c-.394,0-.773-.121-.773-.879V-7.6h1.242Zm2.364,2.318a1.462,1.462,0,0,1,1.53-1.591,1.286,1.286,0,0,1,1.348,1.455v3.636h.894v-3.7c0-1.5-.8-2.2-1.985-2.2a1.688,1.688,0,0,0-1.712.985h-.076V-10.3h-.894v7.757h.894Zm7.606,3.621a1.8,1.8,0,0,0,1.7-1.015h.106v.894h.864V-10.3h-.894v2.864h-.076a1.771,1.771,0,0,0-1.682-1c-1.47,0-2.485,1.167-2.485,3C-54.215-3.583-53.2-2.417-51.745-2.417Zm.121-.8c-1.121,0-1.7-.985-1.7-2.227,0-1.227.561-2.182,1.7-2.182,1.091,0,1.667.879,1.667,2.182C-49.957-4.129-50.548-3.22-51.624-3.22Zm4.3.682h.894V-6.22a1.376,1.376,0,0,1,1.47-1.364,2.733,2.733,0,0,1,.545.061v-.909c-.1-.008-.337-.015-.47-.015a1.583,1.583,0,0,0-1.515.97h-.061v-.879h-.864Zm5.682.136a1.828,1.828,0,0,0,1.727-.924h.045v.788h.894V-6.371a1.911,1.911,0,0,0-2.151-2.061,2.363,2.363,0,0,0-2.333,1.364l.848.3a1.572,1.572,0,0,1,1.515-.879,1.081,1.081,0,0,1,1.227,1.182v.03c0,.432-.439.394-1.5.53-1.08.14-2.258.379-2.258,1.712A1.8,1.8,0,0,0-41.639-2.4Zm.136-.8c-.712,0-1.227-.318-1.227-.939,0-.682.621-.894,1.318-.985a4.594,4.594,0,0,0,1.545-.333v.818A1.493,1.493,0,0,1-41.5-3.2Zm5.485.667h.879l1.273-4.47h.091l1.273,4.47h.879l1.773-5.818h-.939l-1.258,4.439h-.061l-1.227-4.439h-.955L-35.533-3.9h-.061l-1.258-4.454h-.939Zm10.348,0h.894V-6.22a1.376,1.376,0,0,1,1.47-1.364,2.733,2.733,0,0,1,.545.061v-.909c-.1-.008-.337-.015-.47-.015a1.583,1.583,0,0,0-1.515.97h-.061v-.879h-.864Zm6.227.121a2.263,2.263,0,0,0,2.318-1.47l-.864-.242a1.424,1.424,0,0,1-1.455.909,1.762,1.762,0,0,1-1.814-1.924h4.223v-.379c0-2.167-1.288-2.909-2.5-2.909-1.576,0-2.621,1.242-2.621,3.03A2.672,2.672,0,0,0-19.443-2.417Zm-1.814-3.5a1.737,1.737,0,0,1,1.723-1.712,1.577,1.577,0,0,1,1.591,1.712Zm10.451,5.56v-8h-.864v.924h-.106a1.771,1.771,0,0,0-1.682-1c-1.47,0-2.485,1.167-2.485,3,0,1.848,1.015,3.015,2.47,3.015a1.8,1.8,0,0,0,1.7-1.015h.076V-.356Zm-.879-5.091c0,1.318-.591,2.227-1.667,2.227-1.121,0-1.7-.985-1.7-2.227,0-1.227.561-2.182,1.7-2.182C-12.261-7.629-11.685-6.75-11.685-5.447Zm6.182.53A1.511,1.511,0,0,1-7-3.326,1.268,1.268,0,0,1-8.276-4.72V-8.356H-9.17v3.7c0,1.485.788,2.2,1.879,2.2A1.814,1.814,0,0,0-5.564-3.523H-5.5v.985h.894V-8.356H-5.5Zm4.97,2.5a2.263,2.263,0,0,0,2.318-1.47L.92-4.129A1.424,1.424,0,0,1-.534-3.22,1.762,1.762,0,0,1-2.348-5.144H1.875v-.379c0-2.167-1.288-2.909-2.5-2.909-1.576,0-2.621,1.242-2.621,3.03A2.672,2.672,0,0,0-.534-2.417Zm-1.814-3.5A1.737,1.737,0,0,1-.625-7.629,1.577,1.577,0,0,1,.966-5.917ZM7.36-7.053A1.961,1.961,0,0,0,5.3-8.432c-1.227,0-2.136.7-2.136,1.682,0,.8.477,1.341,1.545,1.591l.97.227c.587.136.864.417.864.818,0,.5-.53.909-1.364.909a1.227,1.227,0,0,1-1.348-.939l-.848.212A2,2,0,0,0,5.193-2.417c1.352,0,2.273-.739,2.273-1.742,0-.811-.508-1.322-1.545-1.576l-.864-.212c-.689-.17-1-.4-1-.848,0-.5.53-.864,1.242-.864a1.224,1.224,0,0,1,1.258.833Zm3.985-1.3H10.1V-9.75H9.208v1.394H8.329V-7.6h.879v3.636a1.488,1.488,0,0,0,1.576,1.5,1.86,1.86,0,0,0,.667-.106l-.182-.8a1.726,1.726,0,0,1-.394.045c-.394,0-.773-.121-.773-.879V-7.6h1.242Zm6.712,5.939c1.576,0,2.636-1.2,2.636-3,0-1.818-1.061-3.015-2.636-3.015s-2.636,1.2-2.636,3.015C15.42-3.614,16.481-2.417,18.056-2.417Zm0-.8c-1.2,0-1.742-1.03-1.742-2.2s.545-2.212,1.742-2.212S19.8-6.583,19.8-5.417,19.253-3.22,18.056-3.22Zm6.591-5.136h-1.3v-.591c0-.576.242-.879.833-.879a1.377,1.377,0,0,1,.5.091l.258-.773a2.079,2.079,0,0,0-.848-.152,1.507,1.507,0,0,0-1.636,1.5v.8h-.939V-7.6h.939v5.06h.894V-7.6h1.3Zm9.182-.015H32.753a2.115,2.115,0,0,0-.318-.856h1.117l.284-1.068H28.783l-.311,1.33h1.409a1.17,1.17,0,0,1,1.174.595H28.746l-.273,1.053H31.1a1.174,1.174,0,0,1-1.22.75H28.6l0,.947,2.591,3.083h1.784v-.068L30.655-5.443l.061-.023a2.273,2.273,0,0,0,2.026-1.852h.811ZM38.211-10.3H36.67L34.749-9.08v1.455l1.776-1.114h.045v6.2h1.64Zm4.678,7.863a2.676,2.676,0,0,0,2.9-2.693,2.414,2.414,0,0,0-2.432-2.553,1.911,1.911,0,0,0-1.542.667h-.045l.2-1.943h3.39V-10.3H40.616L40.249-6.2l1.458.261a1.474,1.474,0,0,1,1.159-.523,1.31,1.31,0,0,1,1.341,1.383A1.285,1.285,0,0,1,42.889-3.72a1.134,1.134,0,0,1-1.216-1.011H40.082A2.528,2.528,0,0,0,42.889-2.432ZM48.457-3.6H47.124l-.019.424a12.906,12.906,0,0,1-.451,2.53H47.7a10.149,10.149,0,0,0,.716-2.538Zm4.186,1.231c1.951,0,3.129-1.485,3.132-4.042,0-2.538-1.189-3.992-3.132-3.992S49.514-8.951,49.51-6.409,50.688-2.371,52.643-2.368Zm0-1.36c-.89,0-1.466-.894-1.462-2.682,0-1.761.576-2.648,1.462-2.648S54.1-8.171,54.1-6.409C54.1-4.621,53.529-3.727,52.643-3.727Zm7.341,1.36c1.951,0,3.129-1.485,3.132-4.042,0-2.538-1.189-3.992-3.132-3.992s-3.129,1.451-3.133,3.992S58.029-2.371,59.983-2.368Zm0-1.36c-.89,0-1.466-.894-1.462-2.682,0-1.761.576-2.648,1.462-2.648s1.458.886,1.458,2.648C61.446-4.621,60.87-3.727,59.983-3.727Zm7.341,1.36c1.951,0,3.129-1.485,3.132-4.042,0-2.538-1.189-3.992-3.132-3.992S64.2-8.951,64.192-6.409,65.37-2.371,67.324-2.368Zm0-1.36c-.89,0-1.466-.894-1.462-2.682,0-1.761.576-2.648,1.462-2.648s1.458.886,1.458,2.648C68.786-4.621,68.211-3.727,67.324-3.727Zm-199.5,11.4a1.462,1.462,0,0,1,1.53-1.591,1.286,1.286,0,0,1,1.348,1.455v3.636h.894v-3.7c0-1.5-.8-2.2-1.985-2.2a1.688,1.688,0,0,0-1.712.985h-.076V3.419h-.894v7.757h.894Zm7.121,3.636a1.828,1.828,0,0,0,1.727-.924h.045v.788h.894V7.343a1.911,1.911,0,0,0-2.151-2.061,2.363,2.363,0,0,0-2.333,1.364l.848.3A1.572,1.572,0,0,1-124.5,6.07a1.081,1.081,0,0,1,1.227,1.182v.03c0,.432-.439.394-1.5.53-1.08.14-2.258.379-2.258,1.712A1.8,1.8,0,0,0-125.05,11.312Zm.136-.8c-.712,0-1.227-.318-1.227-.939,0-.682.621-.894,1.318-.985a4.594,4.594,0,0,0,1.545-.333V9.07A1.493,1.493,0,0,1-124.914,10.509Zm8.288-3.848a1.961,1.961,0,0,0-2.061-1.379c-1.227,0-2.136.7-2.136,1.682,0,.8.477,1.341,1.545,1.591l.97.227c.587.136.864.417.864.818,0,.5-.53.909-1.364.909a1.227,1.227,0,0,1-1.348-.939l-.848.212a2,2,0,0,0,2.212,1.515c1.352,0,2.273-.739,2.273-1.742,0-.811-.508-1.322-1.545-1.576l-.864-.212c-.689-.17-1-.4-1-.848,0-.5.53-.864,1.242-.864a1.224,1.224,0,0,1,1.258.833Zm4.576,4.515h.864v-.894h.106a1.8,1.8,0,0,0,1.7,1.015c1.455,0,2.47-1.167,2.47-3.015,0-1.833-1.015-3-2.485-3a1.771,1.771,0,0,0-1.682,1h-.076V3.419h-.894Zm.879-2.909c0-1.3.576-2.182,1.667-2.182,1.136,0,1.7.955,1.7,2.182,0,1.242-.576,2.227-1.7,2.227C-110.581,10.494-111.172,9.585-111.172,8.267Zm8.06,3.03a2.263,2.263,0,0,0,2.318-1.47l-.864-.242a1.424,1.424,0,0,1-1.455.909,1.762,1.762,0,0,1-1.814-1.924h4.223V8.191c0-2.167-1.288-2.909-2.5-2.909-1.576,0-2.621,1.242-2.621,3.03A2.672,2.672,0,0,0-103.111,11.3Zm-1.814-3.5A1.737,1.737,0,0,1-103.2,6.085,1.577,1.577,0,0,1-101.611,7.8Zm8.026,3.5a2.263,2.263,0,0,0,2.318-1.47l-.864-.242a1.424,1.424,0,0,1-1.455.909A1.762,1.762,0,0,1-98.714,8.57h4.223V8.191c0-2.167-1.288-2.909-2.5-2.909-1.576,0-2.621,1.242-2.621,3.03A2.672,2.672,0,0,0-96.9,11.3Zm-1.814-3.5A1.737,1.737,0,0,1-96.99,6.085,1.577,1.577,0,0,1-95.4,7.8Zm6.481-.121a1.442,1.442,0,0,1,1.485-1.591A1.286,1.286,0,0,1-89.415,7.54v3.636h.894v-3.7c0-1.485-.792-2.2-1.97-2.2a1.717,1.717,0,0,0-1.7.985h-.076V5.358h-.864v5.818h.894Zm8.348,3.5h.894V7.494a1.376,1.376,0,0,1,1.47-1.364,2.733,2.733,0,0,1,.545.061V5.282c-.1-.008-.337-.015-.47-.015a1.583,1.583,0,0,0-1.515.97h-.061V5.358h-.864Zm6.227.121a2.263,2.263,0,0,0,2.318-1.47l-.864-.242a1.424,1.424,0,0,1-1.454.909A1.762,1.762,0,0,1-79.472,8.57h4.223V8.191c0-2.167-1.288-2.909-2.5-2.909-1.576,0-2.621,1.242-2.621,3.03A2.672,2.672,0,0,0-77.657,11.3Zm-1.814-3.5a1.737,1.737,0,0,1,1.723-1.712A1.577,1.577,0,0,1-76.157,7.8Zm7.951,3.5a2.159,2.159,0,0,0,2.288-1.818h-.894a1.354,1.354,0,0,1-1.394,1.015c-1.061,0-1.742-.879-1.742-2.227,0-1.318.7-2.182,1.742-2.182A1.364,1.364,0,0,1-70.127,7.1h.894a2.167,2.167,0,0,0-2.3-1.818c-1.576,0-2.621,1.242-2.621,3.015C-74.157,10.04-73.157,11.3-71.521,11.3Zm6.03,0a2.263,2.263,0,0,0,2.318-1.47l-.864-.242a1.424,1.424,0,0,1-1.455.909A1.762,1.762,0,0,1-67.305,8.57h4.223V8.191c0-2.167-1.288-2.909-2.5-2.909-1.576,0-2.621,1.242-2.621,3.03A2.672,2.672,0,0,0-65.491,11.3Zm-1.814-3.5a1.737,1.737,0,0,1,1.723-1.712A1.577,1.577,0,0,1-63.991,7.8Zm5.587,3.379h.894V5.358h-.894Zm.455-6.788a.625.625,0,0,0,.636-.606.625.625,0,0,0-.636-.606.625.625,0,0,0-.636.606A.625.625,0,0,0-61.264,4.388Zm6.833.97h-.97l-1.606,4.636h-.061l-1.606-4.636h-.97l2.151,5.818h.909Zm3.409,5.939A2.263,2.263,0,0,0-48.7,9.827l-.864-.242a1.424,1.424,0,0,1-1.455.909A1.762,1.762,0,0,1-52.836,8.57h4.223V8.191c0-2.167-1.288-2.909-2.5-2.909-1.576,0-2.621,1.242-2.621,3.03A2.672,2.672,0,0,0-51.022,11.3Zm-1.814-3.5a1.737,1.737,0,0,1,1.723-1.712A1.577,1.577,0,0,1-49.522,7.8Zm7.784,3.5a1.8,1.8,0,0,0,1.7-1.015h.106v.894h.864V3.419h-.894V6.282h-.076a1.771,1.771,0,0,0-1.682-1c-1.47,0-2.485,1.167-2.485,3C-47.522,10.13-46.507,11.3-45.052,11.3Zm.121-.8c-1.121,0-1.7-.985-1.7-2.227,0-1.227.561-2.182,1.7-2.182,1.091,0,1.667.879,1.667,2.182C-43.264,9.585-43.855,10.494-44.931,10.494Zm4.954.742a.684.684,0,0,0,.682-.682.684.684,0,0,0-.682-.682.684.684,0,0,0-.682.682A.684.684,0,0,0-39.976,11.237Zm6.818-.061h.97l1.712-6.182h.061l1.712,6.182h.97l2.121-7.757h-.955l-1.621,6.318h-.076l-1.651-6.318h-1.061l-1.651,6.318H-32.7l-1.621-6.318h-.955Zm10.485.121a2.263,2.263,0,0,0,2.318-1.47l-.864-.242a1.424,1.424,0,0,1-1.455.909A1.762,1.762,0,0,1-24.488,8.57h4.223V8.191c0-2.167-1.288-2.909-2.5-2.909-1.576,0-2.621,1.242-2.621,3.03A2.672,2.672,0,0,0-22.674,11.3Zm-1.814-3.5a1.737,1.737,0,0,1,1.723-1.712A1.577,1.577,0,0,1-21.174,7.8Zm9.905,3.379h.879l1.273-4.47h.091l1.273,4.47h.879l1.773-5.818h-.939L-10.613,9.8h-.061L-11.9,5.358h-.955L-14.1,9.812h-.061l-1.258-4.454h-.939Zm7.348,0h.894V5.358h-.894Zm.455-6.788a.625.625,0,0,0,.636-.606.625.625,0,0,0-.636-.606.625.625,0,0,0-.636.606A.625.625,0,0,0-6.78,4.388Zm2.97-.97H-4.7v7.757h.894Zm2.53,0h-.894v7.757h.894ZM4.25,7.676A1.442,1.442,0,0,1,5.735,6.085,1.286,1.286,0,0,1,7.068,7.54v3.636h.894v-3.7c0-1.485-.792-2.2-1.97-2.2a1.717,1.717,0,0,0-1.7.985H4.22V5.358H3.356v5.818H4.25ZM11.962,11.3c1.576,0,2.636-1.2,2.636-3,0-1.818-1.061-3.015-2.636-3.015S9.325,6.479,9.325,8.3C9.325,10.1,10.386,11.3,11.962,11.3Zm0-.8c-1.2,0-1.742-1.03-1.742-2.2s.545-2.212,1.742-2.212S13.7,7.131,13.7,8.3,13.159,10.494,11.962,10.494Zm6.53-5.136H17.25V3.964h-.894V5.358h-.879v.758h.879V9.752a1.488,1.488,0,0,0,1.576,1.5,1.86,1.86,0,0,0,.667-.106l-.182-.8a1.726,1.726,0,0,1-.394.045c-.394,0-.773-.121-.773-.879V6.115h1.242Zm1.348,5.818h.894V5.358H19.84Zm.455-6.788a.607.607,0,1,0-.636-.606A.625.625,0,0,0,20.295,4.388Zm4.667.97h-1.3V4.767c0-.576.242-.879.833-.879a1.377,1.377,0,0,1,.5.091l.258-.773a2.079,2.079,0,0,0-.848-.152,1.507,1.507,0,0,0-1.636,1.5v.8h-.939v.758h.939v5.06h.894V6.115h1.3Zm1.833,8a1.748,1.748,0,0,0,1.712-1.333l2.477-6.651-.977-.015L28.4,9.994H28.34L26.734,5.358h-.97l2.151,5.848-.167.455c-.326.886-.727.97-1.379.8l-.227.788A1.759,1.759,0,0,0,26.795,13.358Zm8.947,0a1.748,1.748,0,0,0,1.712-1.333l2.477-6.651-.977-.015L37.348,9.994h-.061L35.681,5.358h-.97l2.151,5.848-.167.455c-.326.886-.727.97-1.379.8l-.227.788A1.759,1.759,0,0,0,35.742,13.358ZM43.264,11.3c1.576,0,2.636-1.2,2.636-3,0-1.818-1.061-3.015-2.636-3.015s-2.636,1.2-2.636,3.015C40.628,10.1,41.688,11.3,43.264,11.3Zm0-.8c-1.2,0-1.742-1.03-1.742-2.2s.545-2.212,1.742-2.212S45.006,7.131,45.006,8.3,44.461,10.494,43.264,10.494Zm7.666-1.7a1.511,1.511,0,0,1-1.5,1.591,1.268,1.268,0,0,1-1.273-1.394V5.358h-.894v3.7c0,1.485.788,2.2,1.879,2.2a1.814,1.814,0,0,0,1.727-1.061h.061v.985h.894V5.358h-.894Zm8.121-3.439h-1.3V4.767c0-.576.242-.879.833-.879a1.377,1.377,0,0,1,.5.091l.258-.773a2.079,2.079,0,0,0-.848-.152,1.507,1.507,0,0,0-1.636,1.5v.8h-.939v.758h.939v5.06h.894V6.115h1.3ZM62.43,11.3c1.576,0,2.636-1.2,2.636-3,0-1.818-1.061-3.015-2.636-3.015s-2.636,1.2-2.636,3.015C59.794,10.1,60.855,11.3,62.43,11.3Zm0-.8c-1.2,0-1.742-1.03-1.742-2.2s.545-2.212,1.742-2.212S64.173,7.131,64.173,8.3,63.627,10.494,62.43,10.494Zm4,.682h.894V7.494a1.376,1.376,0,0,1,1.47-1.364,2.733,2.733,0,0,1,.545.061V5.282c-.1-.008-.337-.015-.47-.015a1.583,1.583,0,0,0-1.515.97h-.061V5.358H66.43Zm-143.754,7.9h-1.242V17.678h-.894v1.394h-.879v.758h.879v3.636a1.488,1.488,0,0,0,1.576,1.5,1.86,1.86,0,0,0,.667-.106l-.182-.8a1.726,1.726,0,0,1-.394.045c-.394,0-.773-.121-.773-.879V19.829h1.242Zm2.364,2.318A1.462,1.462,0,0,1-73.43,19.8a1.286,1.286,0,0,1,1.348,1.455V24.89h.894v-3.7c0-1.5-.8-2.2-1.985-2.2a1.688,1.688,0,0,0-1.712.985h-.076V17.132h-.894V24.89h.894Zm7.848,3.621a2.263,2.263,0,0,0,2.318-1.47l-.864-.242a1.424,1.424,0,0,1-1.455.909,1.762,1.762,0,0,1-1.814-1.924H-64.7v-.379c0-2.167-1.288-2.909-2.5-2.909-1.576,0-2.621,1.242-2.621,3.03A2.672,2.672,0,0,0-67.112,25.011Zm-1.814-3.5A1.737,1.737,0,0,1-67.2,19.8a1.577,1.577,0,0,1,1.591,1.712Zm9.481-.121A1.442,1.442,0,0,1-57.961,19.8a1.286,1.286,0,0,1,1.333,1.455V24.89h.894v-3.7c0-1.485-.792-2.2-1.97-2.2a1.717,1.717,0,0,0-1.7.985h-.076v-.909h-.864V24.89h.894Zm7.788,3.621a2.263,2.263,0,0,0,2.318-1.47L-50.2,23.3a1.424,1.424,0,0,1-1.455.909,1.762,1.762,0,0,1-1.814-1.924h4.223v-.379c0-2.167-1.288-2.909-2.5-2.909-1.576,0-2.621,1.242-2.621,3.03A2.672,2.672,0,0,0-51.658,25.011Zm-1.814-3.5A1.737,1.737,0,0,1-51.749,19.8a1.577,1.577,0,0,1,1.591,1.712Zm6.1-2.439H-48.4l1.848,2.909L-48.4,24.89h1.03l1.394-2.258,1.394,2.258h1.03l-1.879-2.909,1.879-2.909h-1.03l-1.394,2.379Zm7.621,0h-1.242V17.678h-.894v1.394h-.879v.758h.879v3.636a1.488,1.488,0,0,0,1.576,1.5,1.86,1.86,0,0,0,.667-.106l-.182-.8a1.726,1.726,0,0,1-.394.045c-.394,0-.773-.121-.773-.879V19.829h1.242Zm8.469,1.3A1.961,1.961,0,0,0-33.34,19c-1.227,0-2.136.7-2.136,1.682,0,.8.477,1.341,1.545,1.591l.97.227c.587.136.864.417.864.818,0,.5-.53.909-1.364.909a1.227,1.227,0,0,1-1.348-.939l-.848.212a2,2,0,0,0,2.212,1.515c1.352,0,2.273-.739,2.273-1.742,0-.811-.508-1.322-1.545-1.576l-.864-.212c-.689-.17-1-.4-1-.848,0-.5.53-.864,1.242-.864a1.224,1.224,0,0,1,1.258.833Zm3.985-1.3h-1.242V17.678h-.894v1.394h-.879v.758h.879v3.636a1.488,1.488,0,0,0,1.576,1.5,1.86,1.86,0,0,0,.667-.106l-.182-.8a1.726,1.726,0,0,1-.394.045c-.394,0-.773-.121-.773-.879V19.829h1.242Zm3.727,5.939a2.263,2.263,0,0,0,2.318-1.47l-.864-.242a1.424,1.424,0,0,1-1.455.909,1.762,1.762,0,0,1-1.814-1.924h4.223v-.379c0-2.167-1.288-2.909-2.5-2.909-1.576,0-2.621,1.242-2.621,3.03A2.672,2.672,0,0,0-23.568,25.011Zm-1.814-3.5A1.737,1.737,0,0,1-23.659,19.8a1.577,1.577,0,0,1,1.591,1.712Zm5.587,5.56h.894V24h.076a1.8,1.8,0,0,0,1.7,1.015c1.455,0,2.47-1.167,2.47-3.015,0-1.833-1.015-3-2.485-3a1.771,1.771,0,0,0-1.682,1h-.106v-.924H-19.8Zm.879-5.091c0-1.3.576-2.182,1.667-2.182,1.136,0,1.7.955,1.7,2.182,0,1.242-.576,2.227-1.7,2.227C-18.325,24.208-18.916,23.3-18.916,21.981Zm12.742-1.606A1.961,1.961,0,0,0-8.235,19c-1.227,0-2.136.7-2.136,1.682,0,.8.477,1.341,1.545,1.591l.97.227c.587.136.864.417.864.818,0,.5-.53.909-1.364.909A1.227,1.227,0,0,1-9.7,23.284l-.848.212a2,2,0,0,0,2.212,1.515c1.352,0,2.273-.739,2.273-1.742,0-.811-.508-1.322-1.545-1.576l-.864-.212c-.689-.17-1-.4-1-.848,0-.5.53-.864,1.242-.864a1.224,1.224,0,0,1,1.258.833Zm3.818,4.636c1.576,0,2.636-1.2,2.636-3C.28,20.193-.78,19-2.356,19s-2.636,1.2-2.636,3.015C-4.992,23.814-3.932,25.011-2.356,25.011Zm0-.8c-1.2,0-1.742-1.03-1.742-2.2S-3.553,19.8-2.356,19.8s1.742,1.045,1.742,2.212S-1.159,24.208-2.356,24.208Zm6.363.8c1.576,0,2.636-1.2,2.636-3C6.644,20.193,5.583,19,4.007,19s-2.636,1.2-2.636,3.015C1.371,23.814,2.432,25.011,4.007,25.011Zm0-.8c-1.2,0-1.742-1.03-1.742-2.2S2.81,19.8,4.007,19.8,5.75,20.845,5.75,22.011,5.2,24.208,4.007,24.208ZM8.9,21.39A1.442,1.442,0,0,1,10.386,19.8a1.286,1.286,0,0,1,1.333,1.455V24.89h.894v-3.7c0-1.485-.792-2.2-1.97-2.2a1.717,1.717,0,0,0-1.7.985H8.871v-.909H8.007V24.89H8.9Zm6,3.561a.682.682,0,1,0-.682-.682A.684.684,0,0,0,14.9,24.95Z" transform="translate(151.767 243.648)" fill="#204866"/>
          <path id="Path_13236" data-name="Path 13236" d="M1.391-4.027H3.968V-8.349H5.849L8.158-4.027H11L8.414-8.765a3.514,3.514,0,0,0,2.155-3.47c0-2.423-1.6-3.982-4.369-3.982H1.391ZM3.968-10.42v-3.69H5.706c1.488,0,2.208.661,2.208,1.875s-.72,1.815-2.2,1.815ZM16.355-3.849c2.262,0,3.786-1.1,4.143-2.8L18.152-6.8A1.722,1.722,0,0,1,16.4-5.742a1.988,1.988,0,0,1-2.071-2.2V-7.95h6.226v-.7c0-3.107-1.881-4.643-4.3-4.643-2.69,0-4.434,1.911-4.434,4.732C11.819-5.658,13.539-3.849,16.355-3.849Zm-2.03-5.672A1.931,1.931,0,0,1,16.3-11.4a1.8,1.8,0,0,1,1.869,1.875ZM30.783-.6V-13.17h-2.5v1.536H28.17a2.694,2.694,0,0,0-2.6-1.655c-2.006,0-3.7,1.559-3.7,4.7,0,3.059,1.625,4.708,3.708,4.708a2.7,2.7,0,0,0,2.6-1.613h.077V-.6ZM28.3-8.6c0,1.631-.7,2.7-1.923,2.7C25.134-5.9,24.456-7,24.456-8.6s.667-2.673,1.923-2.673C27.61-11.271,28.3-10.23,28.3-8.6ZM38.67-7.92a1.722,1.722,0,0,1-1.744,1.869A1.565,1.565,0,0,1,35.342-7.8V-13.17H32.807v5.821c.006,2.137,1.256,3.44,3.1,3.44a2.806,2.806,0,0,0,2.774-1.78h.1v1.661h2.434V-13.17H38.67ZM47.4-3.849c2.262,0,3.786-1.1,4.143-2.8L49.193-6.8a1.722,1.722,0,0,1-1.756,1.059,1.988,1.988,0,0,1-2.071-2.2V-7.95h6.226v-.7c0-3.107-1.881-4.643-4.3-4.643-2.69,0-4.434,1.911-4.434,4.732C42.86-5.658,44.58-3.849,47.4-3.849Zm-2.03-5.672a1.931,1.931,0,0,1,1.97-1.875A1.8,1.8,0,0,1,49.2-9.521Zm15.488-1.042c-.226-1.684-1.583-2.726-3.893-2.726-2.339,0-3.881,1.083-3.875,2.845-.006,1.369.857,2.256,2.643,2.613l1.583.315c.8.161,1.161.452,1.173.911-.012.542-.6.929-1.488.929a1.487,1.487,0,0,1-1.661-1.131l-2.494.131c.238,1.75,1.726,2.827,4.149,2.827,2.369,0,4.065-1.208,4.071-3.012-.006-1.321-.869-2.113-2.643-2.476L56.764-9.67c-.851-.185-1.167-.476-1.161-.917-.006-.548.613-.9,1.4-.9a1.428,1.428,0,0,1,1.53,1.071Zm6.672-2.607h-1.72v-2.19H63.27v2.19H62.02v1.9h1.25V-6.5c-.012,1.792,1.208,2.679,3.048,2.6a4.932,4.932,0,0,0,1.375-.238l-.4-1.887a3.464,3.464,0,0,1-.631.083c-.506,0-.857-.19-.857-.893v-4.428h1.72Zm5.536,9.143H75.6V-9.2a1.846,1.846,0,0,1,1.94-1.9,4.265,4.265,0,0,1,1.071.137v-2.25a3.806,3.806,0,0,0-.8-.089,2.221,2.221,0,0,0-2.2,1.726h-.1v-1.6H73.062Zm10.589.179c2.262,0,3.786-1.1,4.143-2.8L85.448-6.8a1.722,1.722,0,0,1-1.756,1.059,1.988,1.988,0,0,1-2.071-2.2V-7.95h6.226v-.7c0-3.107-1.881-4.643-4.3-4.643-2.69,0-4.434,1.911-4.434,4.732C79.115-5.658,80.835-3.849,83.651-3.849Zm-2.03-5.672a1.931,1.931,0,0,1,1.97-1.875A1.8,1.8,0,0,1,85.46-9.521ZM93.633-3.849c2.434,0,3.964-1.429,4.083-3.53H95.323a1.628,1.628,0,0,1-1.661,1.524c-1.184,0-1.952-.994-1.952-2.744,0-1.726.774-2.714,1.952-2.714a1.63,1.63,0,0,1,1.661,1.524h2.393c-.107-2.113-1.708-3.5-4.1-3.5-2.774,0-4.488,1.923-4.488,4.726C89.133-5.783,90.817-3.849,93.633-3.849Zm9.881,0c2.262,0,3.786-1.1,4.143-2.8L105.311-6.8a1.722,1.722,0,0,1-1.756,1.059,1.988,1.988,0,0,1-2.071-2.2V-7.95h6.226v-.7c0-3.107-1.881-4.643-4.3-4.643-2.69,0-4.434,1.911-4.434,4.732C98.978-5.658,100.7-3.849,103.513-3.849Zm-2.03-5.672a1.931,1.931,0,0,1,1.97-1.875,1.8,1.8,0,0,1,1.869,1.875Zm7.881,5.494H111.9V-13.17h-2.536Zm1.274-10.321a1.336,1.336,0,0,0,1.375-1.286,1.335,1.335,0,0,0-1.375-1.28,1.333,1.333,0,0,0-1.369,1.28A1.334,1.334,0,0,0,110.638-14.349Zm11.809,1.179h-2.684L117.87-6.629h-.1l-1.9-6.542H113.2l3.2,9.143h2.857Zm5.161,9.321c2.262,0,3.786-1.1,4.143-2.8L129.406-6.8a1.722,1.722,0,0,1-1.756,1.059,1.988,1.988,0,0,1-2.071-2.2V-7.95H131.8v-.7c0-3.107-1.881-4.643-4.3-4.643-2.69,0-4.434,1.911-4.434,4.732C123.072-5.658,124.793-3.849,127.608-3.849Zm-2.03-5.672a1.931,1.931,0,0,1,1.97-1.875,1.8,1.8,0,0,1,1.869,1.875Zm11.25,5.643a2.7,2.7,0,0,0,2.6-1.613h.107v1.464h2.5v-12.19H139.5v4.583h-.077a2.694,2.694,0,0,0-2.6-1.655c-2.006,0-3.7,1.559-3.7,4.7C133.12-5.527,134.745-3.879,136.828-3.879Zm.8-2.018c-1.244,0-1.923-1.107-1.923-2.7s.667-2.673,1.923-2.673c1.232,0,1.923,1.042,1.923,2.673S138.852-5.9,137.632-5.9Z" transform="translate(48.43 223.043)" fill="#204866"/>
          <g id="Messages-rafiki_1_" data-name="Messages-rafiki (1)" transform="translate(0 0)">
            <g id="freepik--background-complete--inject-6">
              <rect id="Rectangle_1838" data-name="Rectangle 1838" width="239.741" height="0.12" transform="translate(0 156.982)" fill="#ebebeb"/>
              <rect id="Rectangle_1839" data-name="Rectangle 1839" width="17.76" height="0.12" transform="translate(25.154 160.247)" fill="#ebebeb"/>
              <rect id="Rectangle_1840" data-name="Rectangle 1840" width="34.043" height="0.12" transform="translate(81.032 162.841)" fill="#ebebeb"/>
              <rect id="Rectangle_1841" data-name="Rectangle 1841" width="24.334" height="0.12" transform="translate(45.512 160.305)" fill="#ebebeb"/>
              <rect id="Rectangle_1842" data-name="Rectangle 1842" width="23.336" height="0.12" transform="translate(195.043 163.891)" fill="#ebebeb"/>
              <rect id="Rectangle_1843" data-name="Rectangle 1843" width="15.329" height="0.12" transform="translate(177.581 163.891)" fill="#ebebeb"/>
              <rect id="Rectangle_1844" data-name="Rectangle 1844" width="29.733" height="0.12" transform="translate(132.917 161.868)" fill="#ebebeb"/>
              <path id="Path_13017" data-name="Path 13017" d="M133.526,190.6H40.943a2.738,2.738,0,0,1-2.733-2.738V57.714A2.738,2.738,0,0,1,40.943,55h92.583a2.738,2.738,0,0,1,2.738,2.738V187.859A2.738,2.738,0,0,1,133.526,190.6ZM40.943,55.1a2.618,2.618,0,0,0-2.613,2.618V187.859a2.618,2.618,0,0,0,2.613,2.618h92.583a2.623,2.623,0,0,0,2.618-2.618V57.714a2.623,2.623,0,0,0-2.618-2.618Z" transform="translate(-19.889 -55)" fill="#ebebeb"/>
              <path id="Path_13018" data-name="Path 13018" d="M349.826,190.6H257.238a2.743,2.743,0,0,1-2.738-2.738V57.714A2.743,2.743,0,0,1,257.238,55h92.588a2.738,2.738,0,0,1,2.728,2.714V187.859A2.738,2.738,0,0,1,349.826,190.6ZM257.238,55.1a2.623,2.623,0,0,0-2.618,2.618V187.859a2.623,2.623,0,0,0,2.618,2.618h92.588a2.623,2.623,0,0,0,2.618-2.618V57.714a2.623,2.623,0,0,0-2.618-2.618Z" transform="translate(-132.472 -55)" fill="#ebebeb"/>
              <path id="Path_13019" data-name="Path 13019" d="M0,0H37.4a6.578,6.578,0,0,1,6.578,6.578v33.6A6.578,6.578,0,0,1,37.4,46.759H0Z" transform="translate(208.872 155.505) rotate(180)" fill="#f0f0f0"/>
              <rect id="Rectangle_1845" data-name="Rectangle 1845" width="13.775" height="46.759" rx="6.888" transform="translate(215.762 155.505) rotate(180)" fill="#f5f5f5"/>
              <rect id="Rectangle_1846" data-name="Rectangle 1846" width="81.953" height="29.512" transform="translate(121.908 125.993)" fill="#f0f0f0"/>
              <path id="Path_13020" data-name="Path 13020" d="M300.579,380.8H179.452a1.347,1.347,0,0,1-1.352-1.347v-.129h86.048l37.778.129a1.347,1.347,0,0,1-1.347,1.347Z" transform="translate(-92.704 -223.815)" fill="#e0e0e0"/>
              <path id="Path_13021" data-name="Path 13021" d="M187.277,241.34h78.558a9.172,9.172,0,0,1,9.172,9.173v34.144H178.1V250.512a9.172,9.172,0,0,1,9.172-9.173Z" transform="translate(-92.704 -151.993)" fill="#e0e0e0"/>
              <path id="Path_13022" data-name="Path 13022" d="M200.881,241.34H280.3a8.731,8.731,0,0,1,8.731,8.731v34.59H192.15v-34.59A8.731,8.731,0,0,1,200.881,241.34Z" transform="translate(-100.018 -151.993)" fill="#f5f5f5"/>
              <path id="Path_13023" data-name="Path 13023" d="M334.56,312.15h-71.8a4.143,4.143,0,0,0-4.143,4.143v3.735a4.143,4.143,0,0,0,4.143,4.143h71.8a6.008,6.008,0,0,0,6.008-6.013h0A6.008,6.008,0,0,0,334.56,312.15Z" transform="translate(-134.617 -188.851)" fill="#e0e0e0"/>
              <path id="Path_13024" data-name="Path 13024" d="M0,0H37.4a6.578,6.578,0,0,1,6.578,6.578v33.6A6.578,6.578,0,0,1,37.4,46.759H0Z" transform="translate(121.697 155.505) rotate(180)" fill="#f0f0f0"/>
              <rect id="Rectangle_1847" data-name="Rectangle 1847" width="13.775" height="46.759" rx="6.888" transform="translate(128.582 155.505) rotate(180)" fill="#f5f5f5"/>
              <rect id="Rectangle_1848" data-name="Rectangle 1848" width="33.866" height="49.799" transform="translate(158.435 17.99)" fill="#e0e0e0"/>
              <rect id="Rectangle_1849" data-name="Rectangle 1849" width="34.978" height="49.799" transform="translate(159.36 17.99)" fill="#f5f5f5"/>
              <rect id="Rectangle_1850" data-name="Rectangle 1850" width="41.95" height="29.119" transform="translate(162.29 63.862) rotate(-90)" fill="#fff"/>
              <path id="Path_13025" data-name="Path 13025" d="M361.28,140.8V144h0a7.245,7.245,0,0,0,7.245-7.245V133.56h0a7.24,7.24,0,0,0-7.245,7.245Z" transform="translate(-188.053 -95.892)" fill="#f5f5f5"/>
              <path id="Path_13026" data-name="Path 13026" d="M361.28,118.34v3.193h0a7.25,7.25,0,0,0,7.245-7.245v-3.2h0A7.245,7.245,0,0,0,361.28,118.34Z" transform="translate(-188.053 -84.196)" fill="#f5f5f5"/>
              <path id="Path_13027" data-name="Path 13027" d="M361.28,163.259v3.193h0a7.25,7.25,0,0,0,7.245-7.25V156h0a7.245,7.245,0,0,0-7.245,7.259Z" transform="translate(-188.053 -107.572)" fill="#f5f5f5"/>
              <rect id="Rectangle_1851" data-name="Rectangle 1851" width="35.136" height="110.597" transform="translate(142.003 21.912) rotate(90)" fill="#ebebeb"/>
              <rect id="Rectangle_1852" data-name="Rectangle 1852" width="35.136" height="0.666" transform="translate(31.406 21.912) rotate(90)" fill="#e0e0e0"/>
              <rect id="Rectangle_1853" data-name="Rectangle 1853" width="99.694" height="24.233" transform="translate(36.858 27.364)" fill="#f5f5f5"/>
              <path id="Path_13028" data-name="Path 13028" d="M117.711,136.3H109.43l6.483-24.233h8.281Z" transform="translate(-56.96 -84.706)" fill="#fff"/>
              <path id="Path_13029" data-name="Path 13029" d="M137.56,136.3h-4.79l6.483-24.233h4.79Z" transform="translate(-69.109 -84.706)" fill="#fff"/>
              <path id="Path_13030" data-name="Path 13030" d="M224.49,136.3H219.7l6.483-24.233h4.79Z" transform="translate(-114.358 -84.706)" fill="#fff"/>
              <path id="Path_13031" data-name="Path 13031" d="M122.616,259.051H95.808L92.49,222.63H119.3Z" transform="translate(-48.143 -142.255)" fill="#e6e6e6"/>
              <path id="Path_13032" data-name="Path 13032" d="M125.516,259.051H98.7L95.39,222.63H122.2Z" transform="translate(-49.652 -142.255)" fill="#f0f0f0"/>
              <path id="Path_13033" data-name="Path 13033" d="M107.14,259.4l-2.58-28.357h18.748l2.58,28.357Z" transform="translate(-54.425 -146.632)" fill="#fff"/>
              <rect id="Rectangle_1854" data-name="Rectangle 1854" width="3.61" height="40.181" transform="translate(90.958 116.797)" fill="#e6e6e6"/>
              <rect id="Rectangle_1855" data-name="Rectangle 1855" width="2.508" height="40.181" transform="translate(93.197 116.797)" fill="#f5f5f5"/>
              <rect id="Rectangle_1856" data-name="Rectangle 1856" width="38.1" height="4.435" transform="translate(96.481 121.232) rotate(180)" fill="#f5f5f5"/>
              <rect id="Rectangle_1857" data-name="Rectangle 1857" width="3.61" height="35.75" transform="translate(53.155 121.232)" fill="#e6e6e6"/>
              <rect id="Rectangle_1858" data-name="Rectangle 1858" width="2.508" height="35.75" transform="translate(55.399 121.232)" fill="#f5f5f5"/>
              <rect id="Rectangle_1859" data-name="Rectangle 1859" width="3.61" height="35.75" transform="translate(30.313 121.232)" fill="#e6e6e6"/>
              <rect id="Rectangle_1860" data-name="Rectangle 1860" width="2.508" height="35.75" transform="translate(32.557 121.232)" fill="#f5f5f5"/>
              <rect id="Rectangle_1861" data-name="Rectangle 1861" width="3.61" height="35.75" transform="translate(68.115 121.232)" fill="#e6e6e6"/>
              <rect id="Rectangle_1862" data-name="Rectangle 1862" width="2.508" height="35.75" transform="translate(70.354 121.232)" fill="#f5f5f5"/>
              <rect id="Rectangle_1863" data-name="Rectangle 1863" width="28.069" height="4.435" transform="translate(30.313 116.797)" fill="#e6e6e6"/>
            </g>
            <g id="freepik--Shadow--inject-6" transform="translate(26.904 167.78)">
              <ellipse id="freepik--path--inject-6" cx="92.967" cy="5.428" rx="92.967" ry="5.428" fill="#f5f5f5"/>
            </g>
            <g id="freepik--Character--inject-6" transform="translate(114.387 37.283)">
              <path id="Path_13034" data-name="Path 13034" d="M316.559,134.666c-1.832-1.146-7.092,0-6.233,5.754s-5.9,4.282-4.426,10.975,13.459,16.638,20.838,9.887,1.16-9.729,1.3-17.741C328.134,138.78,325.976,130.255,316.559,134.666Z" transform="translate(-273.503 -133.111)" fill="#263238"/>
              <path id="Path_13035" data-name="Path 13035" d="M338.293,160.64a.129.129,0,0,1-.091-.038.12.12,0,0,1,0-.173c4.545-4.517,3.5-7.269,2.167-10.75a19.762,19.762,0,0,1-1.64-6.938c-.072-3.059-1.189-7.235-4.1-8.957-2.062-1.218-4.708-1.007-7.863.628a.125.125,0,0,1-.163-.053.12.12,0,0,1,.053-.168c3.237-1.678,5.96-1.884,8.1-.619,2.992,1.774,4.143,6.041,4.219,9.158a19.535,19.535,0,0,0,1.621,6.857c1.357,3.567,2.436,6.387-2.225,11.028a.129.129,0,0,1-.082.024Z" transform="translate(-284.381 -132.757)" fill="#263238"/>
              <path id="Path_13036" data-name="Path 13036" d="M349.5,183.5s.077.11.129.182l.192.259q.211.269.446.532a12.189,12.189,0,0,0,1.026,1.026,16.708,16.708,0,0,0,2.4,1.827,23.975,23.975,0,0,0,2.695,1.482c.479.235.959.422,1.438.633.091.043,0,0-.062.038s-.115.072-.062.043a2.052,2.052,0,0,0,.547-.734,9.775,9.775,0,0,0,.542-1.309,26.094,26.094,0,0,0,.782-3.054c.216-1.055.384-2.134.532-3.222s.283-2.191.4-3.27h1.952a44.619,44.619,0,0,1-.053,6.885,23.09,23.09,0,0,1-.542,3.524,11.38,11.38,0,0,1-.595,1.841,5.485,5.485,0,0,1-1.371,1.995,3.256,3.256,0,0,1-1.558.753,3.424,3.424,0,0,1-1.707-.149c-.561-.2-1.132-.369-1.688-.6a23.55,23.55,0,0,1-3.27-1.577,21.009,21.009,0,0,1-3.006-2.167,15.482,15.482,0,0,1-1.343-1.347,9.085,9.085,0,0,1-.628-.758l-.3-.422c-.105-.158-.177-.268-.326-.527Z" transform="translate(-294.523 -156.271)" fill="#ffc3bd"/>
              <path id="Path_13037" data-name="Path 13037" d="M344.933,185.418c4.483,2.877,4.119,4.622,4.119,4.622l-2.819,4.085s-7.192-2.877-7.638-5.135C338.124,186.636,342.756,184.027,344.933,185.418Z" transform="translate(-290.614 -159.966)" fill="#263238"/>
              <path id="Path_13038" data-name="Path 13038" d="M344.933,185.418c4.483,2.877,4.119,4.622,4.119,4.622l-2.819,4.085s-7.192-2.877-7.638-5.135C338.124,186.636,342.756,184.027,344.933,185.418Z" transform="translate(-290.614 -159.966)" fill="#fff" opacity="0.1"/>
              <path id="Path_13039" data-name="Path 13039" d="M357.221,194.568h0a.388.388,0,0,1,.1.537l-2.877,4.128a.379.379,0,0,1-.537.1h0a.383.383,0,0,1-.091-.537l2.877-4.128A.388.388,0,0,1,357.221,194.568Z" transform="translate(-298.515 -164.897)" fill="#2a9eda"/>
              <path id="Path_13040" data-name="Path 13040" d="M374.415,175.471,372.19,172.5l4.267-1.1a5.622,5.622,0,0,1-.551,4.589Z" transform="translate(-308.119 -152.872)" fill="#ffc3bd"/>
              <path id="Path_13041" data-name="Path 13041" d="M372.31,165.419l3.553-.6.595,3.155-4.267,1.1Z" transform="translate(-308.119 -149.447)" fill="#ffc3bd"/>
              <path id="Path_13042" data-name="Path 13042" d="M297.04,397.221l4.066.393,2.906-9.561-4.066-.393Z" transform="translate(-269.002 -265.439)" fill="#ffc3bd"/>
              <path id="Path_13043" data-name="Path 13043" d="M243.09,370.364l3.016,2.829,6.511-7.154L249.6,363.21Z" transform="translate(-240.92 -252.712)" fill="#ffc3bd"/>
              <path id="Path_13044" data-name="Path 13044" d="M245.145,376.58l-2.268-4.08a.326.326,0,0,0-.408-.153l-3.491,1.328a.666.666,0,0,0-.321.959c.815,1.41,1.28,2.052,2.273,3.836.614,1.1,1.808,3.639,2.656,5.164s2.4.772,2.186.058a12.151,12.151,0,0,1-.513-6.367A1.108,1.108,0,0,0,245.145,376.58Z" transform="translate(-238.564 -257.456)" fill="#263238"/>
              <path id="Path_13045" data-name="Path 13045" d="M299.563,405.829h-4.934a.412.412,0,0,0-.388.3l-1.074,3.9a.618.618,0,0,0,.6.781h11.359c1.8,0,2.177-1.822,1.438-1.985-3.356-.738-5.274-1.76-6.305-2.733a.988.988,0,0,0-.7-.264Z" transform="translate(-266.974 -274.896)" fill="#263238"/>
              <path id="Path_13046" data-name="Path 13046" d="M305.407,388.063l-1.5,4.924H299.72l1.621-5.317Z" transform="translate(-270.397 -265.444)" opacity="0.2"/>
              <path id="Path_13047" data-name="Path 13047" d="M253.026,363.21l3.016,2.834-3.356,3.687L249.67,366.9Z" transform="translate(-244.345 -252.712)" opacity="0.2"/>
              <path id="Path_13048" data-name="Path 13048" d="M324.741,179.281s1.63,1.108-8.7,23.557l-16.269-4.5c2.1-6.55,3.246-10.63,3.836-25.1a49.753,49.753,0,0,1,7.163,1,53.849,53.849,0,0,1,7.384,2.047A69.72,69.72,0,0,1,324.741,179.281Z" transform="translate(-270.423 -153.829)" fill="#263238"/>
              <path id="Path_13049" data-name="Path 13049" d="M324.741,179.281s1.63,1.108-8.7,23.557l-16.269-4.5c2.1-6.55,3.246-10.63,3.836-25.1a49.753,49.753,0,0,1,7.163,1,53.849,53.849,0,0,1,7.384,2.047A69.72,69.72,0,0,1,324.741,179.281Z" transform="translate(-270.423 -153.829)" fill="#fff" opacity="0.1"/>
              <path id="Path_13050" data-name="Path 13050" d="M325.623,158.4c-.192,2.508-.935,6.991-3.035,8.118,0,0-1.223,4.157,4.08,5.687,4.493,1.29,3.3-3.639,3.3-3.639-2.474-1.367-.959-3.788-.479-6.5Z" transform="translate(-282.236 -146.105)" fill="#ffc3bd"/>
              <path id="Path_13051" data-name="Path 13051" d="M326.887,158.41c-.153,2.009-.657,5.308-1.947,7.1,1.5.149,3.836-.307,4.526-1.438a16.187,16.187,0,0,0,.83-2.45Z" transform="translate(-283.524 -146.11)" opacity="0.2"/>
              <path id="Path_13052" data-name="Path 13052" d="M330.09,144.632c0,4.124.072,5.874-1.88,8.1-2.939,3.356-8,2.441-9.225-1.606-1.1-3.639-.9-9.772,3.035-11.647a5.624,5.624,0,0,1,8.07,5.15Z" transform="translate(-280.125 -135.966)" fill="#ffc3bd"/>
              <path id="Path_13053" data-name="Path 13053" d="M324,140.813c2.316,3.237,10.107,7.734,10.63,3.4s-3.457-8.631-7.4-8.2S322.019,138.06,324,140.813Z" transform="translate(-282.555 -134.434)" fill="#263238"/>
              <path id="Path_13054" data-name="Path 13054" d="M342.961,156.663a3.007,3.007,0,0,1-1.731,1.52c-1,.331-1.553-.551-1.319-1.525.216-.877.993-2.1,2.023-2.014a1.347,1.347,0,0,1,1.026,2.019Z" transform="translate(-291.289 -144.148)" fill="#ffc3bd"/>
              <path id="Path_13055" data-name="Path 13055" d="M315.331,231.419s5.792,23.461,1.995,41.207c-2.546,11.886-11.723,35.9-11.723,35.9l-7.192-.182s6.948-25.2,8.381-35.108c2.46-16.954-3.395-45.114-3.395-45.114Z" transform="translate(-269.715 -182.395)" fill="#2a9eda"/>
              <path id="Path_13056" data-name="Path 13056" d="M316.336,242l-3.586,5.658a174.216,174.216,0,0,1,2.038,20.263C319.846,258.892,317.458,246.795,316.336,242Z" transform="translate(-277.179 -189.62)" opacity="0.2"/>
              <path id="Path_13057" data-name="Path 13057" d="M306.174,392.786l-9.134-.225.614-3.251,9.187.69Z" transform="translate(-269.002 -266.298)" fill="#263238"/>
              <path id="Path_13058" data-name="Path 13058" d="M287.164,229.117s-3.356,25.652-10.582,40.228c-5.845,11.771-21.442,28.529-21.442,28.529l-3.989-4.109s10.549-18.22,14.864-26.031c10.654-19.179,1.213-36.369,8.434-42.194Z" transform="translate(-245.115 -181.052)" fill="#2a9eda"/>
              <path id="Path_13059" data-name="Path 13059" d="M254.725,369.6l-5.145-5.02,1.707-2.321,5.61,5.8Z" transform="translate(-244.298 -252.218)" fill="#263238"/>
              <path id="Path_13060" data-name="Path 13060" d="M298.54,223.352l-1.136,1.256c-.086.1,0,.249.2.3l17.065,4.723c.144.038.288,0,.321-.086l.551-1.438c.038-.1-.067-.216-.225-.264l-16.475-4.56A.312.312,0,0,0,298.54,223.352Z" transform="translate(-269.174 -179.871)" fill="#2a9eda"/>
              <path id="Path_13061" data-name="Path 13061" d="M298.54,223.352l-1.136,1.256c-.086.1,0,.249.2.3l17.065,4.723c.144.038.288,0,.321-.086l.551-1.438c.038-.1-.067-.216-.225-.264l-16.475-4.56A.312.312,0,0,0,298.54,223.352Z" transform="translate(-269.174 -179.871)" fill="#fff" opacity="0.5"/>
              <path id="Path_13062" data-name="Path 13062" d="M302.747,226.213l-.441-.12c-.086-.024-.139-.091-.12-.144l.729-1.832c.024-.058.115-.082.2-.058l.441.125a.118.118,0,0,1,.12.144l-.729,1.832a.173.173,0,0,1-.2.053Z" transform="translate(-271.678 -180.277)" fill="#2a9eda"/>
              <path id="Path_13063" data-name="Path 13063" d="M330.155,233.8l-.441-.12c-.086-.024-.144-.091-.12-.144l.729-1.836a.173.173,0,0,1,.2-.053l.441.125c.086.024.139.086.12.139l-.729,1.817Q330.32,233.835,330.155,233.8Z" transform="translate(-285.944 -184.224)" fill="#2a9eda"/>
              <path id="Path_13064" data-name="Path 13064" d="M316.452,230.013l-.441-.125a.12.12,0,0,1-.125-.139l.734-1.836c0-.053.11-.077.2-.053l.441.12a.124.124,0,0,1,.125.144l-.734,1.836C316.629,230.013,316.538,230.037,316.452,230.013Z" transform="translate(-278.809 -182.255)" fill="#2a9eda"/>
              <path id="Path_13070" data-name="Path 13070" d="M330.642,147.948a.158.158,0,0,1-.153-.043,1.587,1.587,0,0,0-1.376-.479.173.173,0,0,1-.2-.125.168.168,0,0,1,.125-.2,1.918,1.918,0,0,1,1.678.556.173.173,0,0,1,0,.235A.2.2,0,0,1,330.642,147.948Z" transform="translate(-285.592 -140.212)" fill="#263238"/>
              <path id="Path_13072" data-name="Path 13072" d="M284.329,183.8c-.417.633-.8,1.141-1.223,1.678s-.844,1.04-1.285,1.539A35.114,35.114,0,0,1,279,189.864a30.147,30.147,0,0,1-3.136,2.532c-.542.4-1.122.753-1.688,1.117l-.887.508-.441.249c-.163.086-.374.2-.575.283a4.943,4.943,0,0,1-2.839.374,5.374,5.374,0,0,1-2.465-1.17,8.511,8.511,0,0,1-1.563-1.717,13.846,13.846,0,0,1-1.079-1.832A27.882,27.882,0,0,1,262,182.59l1.918-.441c.4,1.141.844,2.325,1.347,3.433a23.4,23.4,0,0,0,1.664,3.2,8.308,8.308,0,0,0,2.071,2.4,1.947,1.947,0,0,0,.959.388,1.625,1.625,0,0,0,.873-.211,2.544,2.544,0,0,0,.268-.158l.374-.24.743-.479c.479-.355.959-.686,1.438-1.064a35.134,35.134,0,0,0,2.714-2.359c.877-.829,1.7-1.717,2.488-2.628.4-.455.786-.916,1.16-1.386s.748-.959,1.05-1.391Z" transform="translate(-250.763 -158.207)" fill="#ffc3bd"/>
              <path id="Path_13073" data-name="Path 13073" d="M262.861,181.524l.422-4.474-4.023,1.645a5,5,0,0,0,2.014,3.054Z" transform="translate(-249.336 -155.812)" fill="#ffc3bd"/>
              <path id="Path_13074" data-name="Path 13074" d="M261.592,171.276l-3.112-.676.374,4.737,4.023-1.645Z" transform="translate(-248.93 -152.455)" fill="#ffc3bd"/>
              <path id="Path_13075" data-name="Path 13075" d="M300.029,173.24c-2.1,0-7.139,8-7.139,8l3.563,3.692s6.713-4.526,6.977-7.192C303.659,175.446,302.7,173.264,300.029,173.24Z" transform="translate(-266.841 -153.829)" fill="#263238"/>
              <path id="Path_13076" data-name="Path 13076" d="M300.029,173.24c-2.1,0-7.139,8-7.139,8l3.563,3.692s6.713-4.526,6.977-7.192C303.659,175.446,302.7,173.264,300.029,173.24Z" transform="translate(-266.841 -153.829)" fill="#fff" opacity="0.1"/>
              <path id="Path_13077" data-name="Path 13077" d="M296.381,193.459h0a.384.384,0,0,1-.542,0l-3.6-3.529a.384.384,0,0,1,0-.542h0a.388.388,0,0,1,.547,0l3.6,3.524A.388.388,0,0,1,296.381,193.459Z" transform="translate(-266.444 -162.176)" fill="#2a9eda"/>
              <path id="Path_13078" data-name="Path 13078" d="M252.773,383.887a.59.59,0,0,0,.36-.134.307.307,0,0,0,.139-.292c-.043-.518-1.357-1.223-1.51-1.3a.082.082,0,0,0-.086,0,.077.077,0,0,0-.029.086c.149.527.479,1.438.959,1.606A.481.481,0,0,0,252.773,383.887Zm-.959-1.491c.479.259,1.227.758,1.251,1.079a.144.144,0,0,1-.077.144.379.379,0,0,1-.369.086C252.36,383.609,252.063,383.125,251.814,382.4Z" transform="translate(-245.371 -262.568)" fill="#2a9eda"/>
              <path id="Path_13079" data-name="Path 13079" d="M252.923,382.139a.959.959,0,0,0,.59-.149.321.321,0,0,0,.077-.4.48.48,0,0,0-.307-.292c-.561-.2-1.606.374-1.649.4a.091.091,0,0,0-.043.072.086.086,0,0,0,.038.072A3,3,0,0,0,252.923,382.139Zm.081-.724a.67.67,0,0,1,.225.038.311.311,0,0,1,.206.2.177.177,0,0,1-.029.216c-.245.206-1.108.091-1.554-.1A3.1,3.1,0,0,1,253,381.415Z" transform="translate(-245.344 -262.105)" fill="#2a9eda"/>
              <path id="Path_13080" data-name="Path 13080" d="M309.564,406.38a1.64,1.64,0,0,0,.959-.225.6.6,0,0,0,.24-.479.259.259,0,0,0-.115-.249c-.446-.307-2.239.518-2.441.614a.081.081,0,0,0-.048.086.077.077,0,0,0,.062.067A6.436,6.436,0,0,0,309.564,406.38Zm.786-.849a.379.379,0,0,1,.2.043c.024,0,.048.043.043.11a.417.417,0,0,1-.177.336,3.082,3.082,0,0,1-1.918.082A6.165,6.165,0,0,1,310.35,405.532Z" transform="translate(-274.789 -274.651)" fill="#2a9eda"/>
              <path id="Path_13081" data-name="Path 13081" d="M308.23,405.157h.029c.542-.221,1.669-1.127,1.606-1.577,0-.1-.077-.216-.321-.245-.959-.11-1.376,1.649-1.4,1.726a.086.086,0,0,0,.029.081.1.1,0,0,0,.053.014Zm1.227-1.669h.058c.168,0,.177.082.182.105.038.288-.767,1.021-1.352,1.328C308.474,404.514,308.839,403.488,309.457,403.488Z" transform="translate(-274.783 -273.595)" fill="#2a9eda"/>
            </g>
            <g id="freepik--Smartphone--inject-6" transform="translate(54 1.512)">
              <rect id="Rectangle_1864" data-name="Rectangle 1864" width="67.823" height="143.24" rx="13.96" transform="translate(80.025 164.198) rotate(175.01)" fill="#2a9eda"/>
              <path id="Path_13083" data-name="Path 13083" d="M118.431,186.236h0a1.918,1.918,0,0,0,1.731-2.067l-1.491-17.06a1.918,1.918,0,0,0-2.062-1.736h0a1.918,1.918,0,0,0-1.736,2.067l1.5,17.06A1.918,1.918,0,0,0,118.431,186.236Z" transform="translate(-113.79 -113.96)" fill="#2a9eda"/>
              <rect id="Rectangle_1865" data-name="Rectangle 1865" width="3.495" height="13.291" rx="1.748" transform="translate(72.947 58.601) rotate(175.01)" fill="#263238"/>
              <rect id="Rectangle_1866" data-name="Rectangle 1866" width="3.51" height="13.345" rx="1.755" transform="translate(73.734 76.141) rotate(174.857)" fill="#263238"/>
              <rect id="Rectangle_1867" data-name="Rectangle 1867" width="67.823" height="143.24" rx="13.96" transform="translate(81.164 164.096) rotate(175.01)" fill="#263238"/>
              <path id="Path_13084" data-name="Path 13084" d="M130.6,252.381l63.411-5.538a1.261,1.261,0,0,0,1.141-1.362L184.423,122.447a1.261,1.261,0,0,0-1.357-1.141l-63.435,5.543a1.251,1.251,0,0,0-1.136,1.357l10.75,123.04a1.247,1.247,0,0,0,1.357,1.136Z" transform="translate(-115.676 -91.023)" fill="#2a9eda" opacity="0.4"/>
              <path id="Path_13085" data-name="Path 13085" d="M212.652,122.84l-7.969,127.187-13.253,1.16L199.4,124Z" transform="translate(-153.643 -91.824)" fill="#2a9eda" opacity="0.3"/>
              <rect id="Rectangle_1868" data-name="Rectangle 1868" width="14.734" height="1.693" rx="0.846" transform="translate(27.844 28.167) rotate(-4.99)" fill="#fff" opacity="0.2"/>
              <path id="Path_13086" data-name="Path 13086" d="M166.773,217.12h65.981a6.487,6.487,0,0,1,6.468,6.468v32.365a6.492,6.492,0,0,1-6.468,6.473H209.922l-10.16,10.16-10.16-10.16H166.773a6.492,6.492,0,0,1-6.473-6.473V223.588A6.487,6.487,0,0,1,166.773,217.12Z" transform="translate(-137.439 -140.898)" fill="#2a9eda"/>
              <path id="Path_13087" data-name="Path 13087" d="M166.773,217.12h65.981a6.487,6.487,0,0,1,6.468,6.468v32.365a6.492,6.492,0,0,1-6.468,6.473H209.922l-10.16,10.16-10.16-10.16H166.773a6.492,6.492,0,0,1-6.473-6.473V223.588A6.487,6.487,0,0,1,166.773,217.12Z" transform="translate(-137.439 -140.898)" fill="#fff" opacity="0.3"/>
              <path id="Path_13088" data-name="Path 13088" d="M182.62,236.835v22.871a3.356,3.356,0,0,0,3.308,3.385h50.9a3.356,3.356,0,0,0,3.308-3.385V236.835a3.476,3.476,0,0,0-.24-1.266,3.328,3.328,0,0,0-3.069-2.119h-50.9a3.318,3.318,0,0,0-3.064,2.119,3.357,3.357,0,0,0-.245,1.266Z" transform="translate(-149.057 -149.398)" fill="#fff"/>
              <path id="Path_13089" data-name="Path 13089" d="M183.13,235.569l24.607,10.716a9.772,9.772,0,0,0,7.82,0l24.607-10.716a3.328,3.328,0,0,0-3.069-2.119h-50.9A3.318,3.318,0,0,0,183.13,235.569Z" transform="translate(-149.323 -149.398)" opacity="0.1"/>
              <path id="Path_13094" data-name="Path 13094" d="M9.839,0A9.839,9.839,0,1,1,0,9.839,9.839,9.839,0,0,1,9.839,0Z" transform="translate(14.04 79.096) rotate(-45)" fill="#00e091"/>
              <path id="Path_13090" data-name="Path 13090" d="M169.18,222.586h-2.292v-8.631a7.907,7.907,0,0,1-2.958,1.736v-2.076a6.684,6.684,0,0,0,1.947-1.117,4.224,4.224,0,0,0,1.438-1.918h1.86Z" transform="translate(-139.329 -137.494)" fill="#fff"/>
              <path id="Path_13091" data-name="Path 13091" d="M262.864,76.262a1.438,1.438,0,0,1-1.41-1.218,16.518,16.518,0,0,0-18.767-13.852,1.438,1.438,0,0,1-.422-2.824,19.371,19.371,0,0,1,22.008,16.254,1.438,1.438,0,0,1-1.2,1.621A1.078,1.078,0,0,1,262.864,76.262Z" transform="translate(-179.555 -58.153)" fill="#2a9eda"/>
              <path id="Path_13092" data-name="Path 13092" d="M256.927,85.1a1.438,1.438,0,0,1-1.41-1.213,9.336,9.336,0,0,0-10.606-7.835,1.438,1.438,0,0,1-.427-2.824,12.193,12.193,0,0,1,13.857,10.232,1.438,1.438,0,0,1-1.2,1.625,1.631,1.631,0,0,1-.216.014Z" transform="translate(-180.71 -65.932)" fill="#2a9eda"/>
              <path id="Path_13093" data-name="Path 13093" d="M251.022,93.959a1.438,1.438,0,0,1-1.41-1.218,2.153,2.153,0,0,0-2.455-1.812,1.438,1.438,0,0,1-.422-2.819,5.006,5.006,0,0,1,5.7,4.234,1.438,1.438,0,0,1-1.2,1.621A1.093,1.093,0,0,1,251.022,93.959Z" transform="translate(-181.891 -73.717)" fill="#2a9eda"/>
            </g>
          </g>
        </g>
      </g>
    </g>
  </g>
</svg>
